{
DisplayStrings = (
"\U2044",
"\\",
"\"",
/,
"~"
);
date = "2011-03-31 00:17:50 +0200";
designer = "Rudi Rennsau";
familyName = Plottura;
fontMaster = (
{
ascender = 825;
capHeight = 754;
descender = "-175";
id = "A4368790-3638-4B5D-B474-0996C59BD988";
italicAngle = 0;
weight = Regular;
weightValue = 400;
widthValue = 5;
xHeight = 470;
}
);
glyphs = (
{
changeCount = 1;
color = 6;
glyphname = A;
layers = (
{
background = {
paths = (
{
closed = 1;
nodes = (
"511 214 LINE",
"600 0 LINE",
"693 0 LINE",
"354 790 LINE",
"6 0 LINE",
"98 0 LINE",
"189 214 LINE"
);
},
{
closed = 1;
nodes = (
"478 292 LINE",
"223 292 LINE",
"352 594 LINE"
);
}
);
};
layerId = "A4368790-3638-4B5D-B474-0996C59BD988";
name = Regular;
paths = (
{
closed = 1;
nodes = (
"52 23 LINE",
"353 715 LINE",
"647 23 LINE",
"350 101 LINE"
);
},
{
closed = 1;
nodes = (
"152 253 LINE",
"549 253 LINE",
"350 356 LINE"
);
}
);
width = 699;
}
);
unicode = 0041;
},
{
changeCount = 0;
export = 0;
glyphname = AE;
layers = (
{
layerId = "A4368790-3638-4B5D-B474-0996C59BD988";
name = Regular;
paths = (
{
closed = 1;
nodes = (
"510 212 LINE",
"599 0 LINE",
"992 0 LINE",
"959 78 LINE",
"653 78 LINE",
"530 373 LINE",
"828 373 LINE",
"793 451 LINE",
"496 451 LINE",
"402 676 LINE",
"707 676 LINE",
"673 754 LINE",
"342 754 LINE",
"6 0 LINE",
"99 0 LINE",
"188 212 LINE"
);
},
{
closed = 1;
nodes = (
"476 290 LINE",
"224 290 LINE",
"352 587 LINE"
);
}
);
width = 1000;
}
);
leftKerningGroupId = "@MMK_R_A";
unicode = 00C6;
},
{
changeCount = 0;
export = 0;
glyphname = Aacute;
layers = (
{
layerId = "A4368790-3638-4B5D-B474-0996C59BD988";
name = Regular;
paths = (
{
closed = 1;
nodes = (
"511 214 LINE",
"600 0 LINE",
"693 0 LINE",
"354 790 LINE",
"6 0 LINE",
"98 0 LINE",
"189 214 LINE"
);
},
{
closed = 1;
nodes = (
"478 292 LINE",
"223 292 LINE",
"352 594 LINE"
);
},
{
closed = 1;
nodes = (
"408 1003 LINE",
"289 839 LINE",
"339 811 LINE",
"492 965 LINE"
);
}
);
width = 699;
}
);
leftKerningGroupId = "@MMK_R_A";
unicode = 00C1;
},
{
changeCount = 0;
export = 0;
glyphname = Acircumflex;
layers = (
{
layerId = "A4368790-3638-4B5D-B474-0996C59BD988";
name = Regular;
paths = (
{
closed = 1;
nodes = (
"511 214 LINE",
"600 0 LINE",
"693 0 LINE",
"354 790 LINE",
"6 0 LINE",
"98 0 LINE",
"189 214 LINE"
);
},
{
closed = 1;
nodes = (
"478 292 LINE",
"223 292 LINE",
"352 594 LINE"
);
},
{
closed = 1;
nodes = (
"193 863 LINE",
"250 818 LINE",
"349 903 LINE",
"449 818 LINE",
"507 863 LINE",
"349 996 LINE"
);
}
);
width = 699;
}
);
leftKerningGroupId = "@MMK_R_A";
unicode = 00C2;
},
{
changeCount = 1;
color = 6;
glyphname = Adieresis;
layers = (
{
background = {
paths = (
{
closed = 1;
nodes = (
"511 214 LINE",
"600 0 LINE",
"693 0 LINE",
"354 790 LINE",
"6 0 LINE",
"98 0 LINE",
"189 214 LINE"
);
},
{
closed = 1;
nodes = (
"478 292 LINE",
"223 292 LINE",
"352 594 LINE"
);
},
{
closed = 1;
nodes = (
"221 964 OFFCURVE",
"197 940 OFFCURVE",
"197 910 CURVE SMOOTH",
"197 880 OFFCURVE",
"221 856 OFFCURVE",
"251 856 CURVE SMOOTH",
"281 856 OFFCURVE",
"305 880 OFFCURVE",
"305 910 CURVE SMOOTH",
"305 940 OFFCURVE",
"281 964 OFFCURVE",
"251 964 CURVE SMOOTH"
);
},
{
closed = 1;
nodes = (
"418 964 OFFCURVE",
"394 940 OFFCURVE",
"394 910 CURVE SMOOTH",
"394 880 OFFCURVE",
"418 856 OFFCURVE",
"448 856 CURVE SMOOTH",
"478 856 OFFCURVE",
"502 880 OFFCURVE",
"502 910 CURVE SMOOTH",
"502 940 OFFCURVE",
"478 964 OFFCURVE",
"448 964 CURVE SMOOTH"
);
}
);
};
layerId = "A4368790-3638-4B5D-B474-0996C59BD988";
name = Regular;
paths = (
{
closed = 1;
nodes = (
"52 23 LINE",
"353 715 LINE",
"647 23 LINE",
"350 101 LINE"
);
},
{
closed = 1;
nodes = (
"152 253 LINE",
"549 253 LINE",
"350 356 LINE"
);
},
{
closed = 1;
nodes = (
"249 908 LINE",
"249 919 LINE",
"260 909 LINE SMOOTH"
);
},
{
closed = 1;
nodes = (
"448 908 LINE",
"448 919 LINE",
"459 909 LINE"
);
}
);
width = 699;
}
);
leftKerningGroupId = "@MMK_R_A";
unicode = 00C4;
},
{
changeCount = 0;
export = 0;
glyphname = Agrave;
layers = (
{
layerId = "A4368790-3638-4B5D-B474-0996C59BD988";
name = Regular;
paths = (
{
closed = 1;
nodes = (
"511 214 LINE",
"600 0 LINE",
"693 0 LINE",
"354 790 LINE",
"6 0 LINE",
"98 0 LINE",
"189 214 LINE"
);
},
{
closed = 1;
nodes = (
"478 292 LINE",
"223 292 LINE",
"352 594 LINE"
);
},
{
closed = 1;
nodes = (
"209 965 LINE",
"362 811 LINE",
"412 839 LINE",
"293 1003 LINE"
);
}
);
width = 699;
}
);
leftKerningGroupId = "@MMK_R_A";
unicode = 00C0;
},
{
changeCount = 0;
export = 0;
glyphname = Aring;
layers = (
{
layerId = "A4368790-3638-4B5D-B474-0996C59BD988";
name = Regular;
paths = (
{
closed = 1;
nodes = (
"511 214 LINE",
"600 0 LINE",
"693 0 LINE",
"354 790 LINE",
"6 0 LINE",
"98 0 LINE",
"189 214 LINE"
);
},
{
closed = 1;
nodes = (
"478 292 LINE",
"223 292 LINE",
"352 594 LINE"
);
},
{
closed = 1;
nodes = (
"297 1006 OFFCURVE",
"253 962 OFFCURVE",
"253 909 CURVE SMOOTH",
"253 855 OFFCURVE",
"297 811 OFFCURVE",
"351 811 CURVE SMOOTH",
"405 811 OFFCURVE",
"448 855 OFFCURVE",
"448 909 CURVE SMOOTH",
"448 962 OFFCURVE",
"404 1006 OFFCURVE",
"351 1006 CURVE SMOOTH"
);
},
{
closed = 1;
nodes = (
"377 956 OFFCURVE",
"398 935 OFFCURVE",
"398 909 CURVE SMOOTH",
"398 883 OFFCURVE",
"377 861 OFFCURVE",
"351 861 CURVE SMOOTH",
"325 861 OFFCURVE",
"303 883 OFFCURVE",
"303 909 CURVE SMOOTH",
"303 935 OFFCURVE",
"325 956 OFFCURVE",
"351 956 CURVE SMOOTH"
);
}
);
width = 699;
}
);
leftKerningGroupId = "@MMK_R_A";
unicode = 00C5;
},
{
changeCount = 0;
export = 0;
glyphname = Atilde;
layers = (
{
layerId = "A4368790-3638-4B5D-B474-0996C59BD988";
name = Regular;
paths = (
{
closed = 1;
nodes = (
"511 214 LINE",
"600 0 LINE",
"693 0 LINE",
"354 790 LINE",
"6 0 LINE",
"98 0 LINE",
"189 214 LINE"
);
},
{
closed = 1;
nodes = (
"478 292 LINE",
"223 292 LINE",
"352 594 LINE"
);
},
{
closed = 1;
nodes = (
"224 847 LINE",
"234 869 OFFCURVE",
"246 893 OFFCURVE",
"274 893 CURVE SMOOTH",
"295 893 OFFCURVE",
"319 882 OFFCURVE",
"344 871 CURVE SMOOTH",
"369 859 OFFCURVE",
"395 848 OFFCURVE",
"419 848 CURVE SMOOTH",
"468 848 OFFCURVE",
"507 885 OFFCURVE",
"525 929 CURVE",
"478 967 LINE",
"466 945 OFFCURVE",
"450 919 OFFCURVE",
"422 919 CURVE SMOOTH",
"404 919 OFFCURVE",
"383 931 OFFCURVE",
"358 942 CURVE",
"334 954 OFFCURVE",
"307 965 OFFCURVE",
"277 965 CURVE SMOOTH",
"227 965 OFFCURVE",
"198 926 OFFCURVE",
"175 886 CURVE"
);
}
);
width = 699;
}
);
leftKerningGroupId = "@MMK_R_A";
unicode = 00C3;
},
{
changeCount = 1;
color = 6;
glyphname = B;
layers = (
{
background = {
paths = (
{
closed = 1;
nodes = (
"160 350 LINE",
"233 350 LINE SMOOTH",
"325 350 OFFCURVE",
"437 333 OFFCURVE",
"437 216 CURVE SMOOTH",
"437 101 OFFCURVE",
"338 78 OFFCURVE",
"244 78 CURVE SMOOTH",
"160 78 LINE"
);
},
{
closed = 1;
nodes = (
"76 0 LINE",
"251 0 LINE SMOOTH",
"400 0 OFFCURVE",
"521 60 OFFCURVE",
"521 210 CURVE SMOOTH",
"521 300 OFFCURVE",
"468 381 OFFCURVE",
"378 403 CURVE",
"429 437 OFFCURVE",
"452 489 OFFCURVE",
"452 550 CURVE SMOOTH",
"452 704 OFFCURVE",
"337 754 OFFCURVE",
"200 754 CURVE SMOOTH",
"76 754 LINE"
);
},
{
closed = 1;
nodes = (
"160 676 LINE",
"193 676 LINE SMOOTH",
"296 676 OFFCURVE",
"368 664 OFFCURVE",
"368 550 CURVE SMOOTH",
"368 433 OFFCURVE",
"287 422 OFFCURVE",
"192 422 CURVE SMOOTH",
"160 422 LINE"
);
}
);
};
layerId = "A4368790-3638-4B5D-B474-0996C59BD988";
name = Regular;
paths = (
{
closed = 1;
nodes = (
"126 37 LINE",
"138 37 LINE",
"311 37 LINE SMOOTH",
"399 37 OFFCURVE",
"476 98 OFFCURVE",
"477 220 CURVE SMOOTH",
"478 345 OFFCURVE",
"393 393 OFFCURVE",
"253 393 CURVE SMOOTH",
"118 393 LINE",
"253 393 LINE SMOOTH",
"351 393 OFFCURVE",
"413 459 OFFCURVE",
"413 569 CURVE SMOOTH",
"413 673 OFFCURVE",
"347 718 OFFCURVE",
"256 718 CURVE SMOOTH",
"118 718 LINE",
"118 37 LINE"
);
}
);
width = 568;
}
);
unicode = 0042;
},
{
changeCount = 1;
color = 6;
glyphname = C;
layers = (
{
background = {
paths = (
{
closed = 1;
nodes = (
"651 693 LINE",
"584 743 OFFCURVE",
"510 767 OFFCURVE",
"426 767 CURVE SMOOTH",
"210 767 OFFCURVE",
"33 590 OFFCURVE",
"33 374 CURVE SMOOTH",
"33 160 OFFCURVE",
"213 -13 OFFCURVE",
"426 -13 CURVE SMOOTH",
"506 -13 OFFCURVE",
"586 14 OFFCURVE",
"651 61 CURVE",
"651 165 LINE",
"591 105 OFFCURVE",
"508 65 OFFCURVE",
"423 65 CURVE SMOOTH",
"254 65 OFFCURVE",
"117 211 OFFCURVE",
"117 377 CURVE SMOOTH",
"117 543 OFFCURVE",
"253 689 OFFCURVE",
"421 689 CURVE SMOOTH",
"508 689 OFFCURVE",
"591 651 OFFCURVE",
"651 589 CURVE"
);
}
);
};
layerId = "A4368790-3638-4B5D-B474-0996C59BD988";
name = Regular;
paths = (
{
closed = 1;
nodes = (
"585 399 LINE",
"611 671 LINE",
"557 706 OFFCURVE",
"493 725 OFFCURVE",
"424 725 CURVE SMOOTH",
"230 725 OFFCURVE",
"73 567 OFFCURVE",
"73 374 CURVE SMOOTH",
"73 180 OFFCURVE",
"231 23 OFFCURVE",
"424 23 CURVE SMOOTH",
"492 23 OFFCURVE",
"555 43 OFFCURVE",
"609 76 CURVE"
);
}
);
width = 717;
}
);
unicode = 0043;
},
{
changeCount = 0;
export = 0;
glyphname = Ccedilla;
layers = (
{
layerId = "A4368790-3638-4B5D-B474-0996C59BD988";
name = Regular;
paths = (
{
closed = 1;
nodes = (
"651 693 LINE",
"584 743 OFFCURVE",
"510 767 OFFCURVE",
"426 767 CURVE SMOOTH",
"210 767 OFFCURVE",
"33 590 OFFCURVE",
"33 374 CURVE SMOOTH",
"33 160 OFFCURVE",
"213 -13 OFFCURVE",
"426 -13 CURVE SMOOTH",
"506 -13 OFFCURVE",
"586 14 OFFCURVE",
"651 61 CURVE",
"651 165 LINE",
"591 105 OFFCURVE",
"508 65 OFFCURVE",
"423 65 CURVE SMOOTH",
"254 65 OFFCURVE",
"117 211 OFFCURVE",
"117 377 CURVE SMOOTH",
"117 543 OFFCURVE",
"253 689 OFFCURVE",
"421 689 CURVE SMOOTH",
"508 689 OFFCURVE",
"591 651 OFFCURVE",
"651 589 CURVE"
);
},
{
closed = 1;
nodes = (
"444 -53 LINE",
"370 -23 LINE",
"274 -171 LINE",
"330 -199 LINE"
);
}
);
width = 717;
}
);
unicode = 00C7;
},
{
changeCount = 1;
color = 6;
glyphname = D;
layers = (
{
background = {
paths = (
{
closed = 1;
nodes = (
"76 0 LINE",
"216 0 LINE SMOOTH",
"334 0 OFFCURVE",
"424 15 OFFCURVE",
"514 95 CURVE SMOOTH",
"597 169 OFFCURVE",
"637 266 OFFCURVE",
"637 376 CURVE SMOOTH",
"637 488 OFFCURVE",
"598 589 OFFCURVE",
"512 663 CURVE SMOOTH",
"423 739 OFFCURVE",
"331 754 OFFCURVE",
"218 754 CURVE SMOOTH",
"76 754 LINE"
);
},
{
closed = 1;
nodes = (
"160 78 LINE",
"160 676 LINE",
"221 676 LINE SMOOTH",
"310 676 OFFCURVE",
"386 664 OFFCURVE",
"455 603 CURVE SMOOTH",
"520 546 OFFCURVE",
"553 463 OFFCURVE",
"553 377 CURVE SMOOTH",
"553 293 OFFCURVE",
"521 214 OFFCURVE",
"459 156 CURVE SMOOTH",
"390 91 OFFCURVE",
"313 78 OFFCURVE",
"221 78 CURVE SMOOTH"
);
}
);
};
layerId = "A4368790-3638-4B5D-B474-0996C59BD988";
name = Regular;
paths = (
{
closed = 1;
nodes = (
"126 35 LINE",
"135 35 LINE",
"221 35 LINE SMOOTH",
"326 35 OFFCURVE",
"410 49 OFFCURVE",
"489 122 CURVE SMOOTH",
"562 188 OFFCURVE",
"598 276 OFFCURVE",
"598 373 CURVE SMOOTH",
"598 472 OFFCURVE",
"562 564 OFFCURVE",
"486 629 CURVE SMOOTH",
"407 698 OFFCURVE",
"323 711 OFFCURVE",
"222 711 CURVE SMOOTH",
"118 711 LINE",
"118 35 LINE"
);
}
);
width = 678;
}
);
unicode = 0044;
},
{
changeCount = 1;
color = 6;
glyphname = E;
layers = (
{
background = {
paths = (
{
closed = 1;
nodes = (
"76 0 LINE",
"467 0 LINE",
"467 78 LINE",
"160 78 LINE",
"160 374 LINE",
"458 374 LINE",
"458 452 LINE",
"160 452 LINE",
"160 676 LINE",
"467 676 LINE",
"467 754 LINE",
"76 754 LINE"
);
}
);
};
layerId = "A4368790-3638-4B5D-B474-0996C59BD988";
name = Regular;
paths = (
{
closed = 1;
nodes = (
"470 416 LINE",
"447 715 LINE",
"121 715 LINE SMOOTH",
"121 39 LINE",
"447 39 LINE"
);
},
{
closed = 1;
nodes = (
"262 467 LINE",
"438 413 LINE",
"121 413 LINE"
);
}
);
width = 534;
}
);
unicode = 0045;
},
{
changeCount = 0;
export = 0;
glyphname = Eacute;
layers = (
{
layerId = "A4368790-3638-4B5D-B474-0996C59BD988";
name = Regular;
paths = (
{
closed = 1;
nodes = (
"76 0 LINE",
"467 0 LINE",
"467 78 LINE",
"160 78 LINE",
"160 374 LINE",
"458 374 LINE",
"458 452 LINE",
"160 452 LINE",
"160 676 LINE",
"467 676 LINE",
"467 754 LINE",
"76 754 LINE"
);
},
{
closed = 1;
nodes = (
"325 1003 LINE",
"206 839 LINE",
"256 811 LINE",
"409 965 LINE"
);
}
);
width = 534;
}
);
unicode = 00C9;
},
{
changeCount = 0;
export = 0;
glyphname = Ecircumflex;
layers = (
{
layerId = "A4368790-3638-4B5D-B474-0996C59BD988";
name = Regular;
paths = (
{
closed = 1;
nodes = (
"76 0 LINE",
"467 0 LINE",
"467 78 LINE",
"160 78 LINE",
"160 374 LINE",
"458 374 LINE",
"458 452 LINE",
"160 452 LINE",
"160 676 LINE",
"467 676 LINE",
"467 754 LINE",
"76 754 LINE"
);
},
{
closed = 1;
nodes = (
"110 863 LINE",
"167 818 LINE",
"266 903 LINE",
"366 818 LINE",
"424 863 LINE",
"266 996 LINE"
);
}
);
width = 534;
}
);
unicode = 00CA;
},
{
changeCount = 0;
export = 0;
glyphname = Edieresis;
layers = (
{
layerId = "A4368790-3638-4B5D-B474-0996C59BD988";
name = Regular;
paths = (
{
closed = 1;
nodes = (
"76 0 LINE",
"467 0 LINE",
"467 78 LINE",
"160 78 LINE",
"160 374 LINE",
"458 374 LINE",
"458 452 LINE",
"160 452 LINE",
"160 676 LINE",
"467 676 LINE",
"467 754 LINE",
"76 754 LINE"
);
},
{
closed = 1;
nodes = (
"139 964 OFFCURVE",
"115 940 OFFCURVE",
"115 910 CURVE SMOOTH",
"115 880 OFFCURVE",
"139 856 OFFCURVE",
"169 856 CURVE SMOOTH",
"199 856 OFFCURVE",
"223 880 OFFCURVE",
"223 910 CURVE SMOOTH",
"223 940 OFFCURVE",
"199 964 OFFCURVE",
"169 964 CURVE SMOOTH"
);
},
{
closed = 1;
nodes = (
"336 964 OFFCURVE",
"312 940 OFFCURVE",
"312 910 CURVE SMOOTH",
"312 880 OFFCURVE",
"336 856 OFFCURVE",
"366 856 CURVE SMOOTH",
"396 856 OFFCURVE",
"420 880 OFFCURVE",
"420 910 CURVE SMOOTH",
"420 940 OFFCURVE",
"396 964 OFFCURVE",
"366 964 CURVE SMOOTH"
);
}
);
width = 534;
}
);
unicode = 00CB;
},
{
changeCount = 0;
export = 0;
glyphname = Egrave;
layers = (
{
layerId = "A4368790-3638-4B5D-B474-0996C59BD988";
name = Regular;
paths = (
{
closed = 1;
nodes = (
"76 0 LINE",
"467 0 LINE",
"467 78 LINE",
"160 78 LINE",
"160 374 LINE",
"458 374 LINE",
"458 452 LINE",
"160 452 LINE",
"160 676 LINE",
"467 676 LINE",
"467 754 LINE",
"76 754 LINE"
);
},
{
closed = 1;
nodes = (
"141 965 LINE",
"294 811 LINE",
"344 839 LINE",
"225 1003 LINE"
);
}
);
width = 534;
}
);
unicode = 00C8;
},
{
changeCount = 0;
export = 0;
glyphname = Eth;
layers = (
{
layerId = "A4368790-3638-4B5D-B474-0996C59BD988";
name = Regular;
paths = (
{
closed = 1;
nodes = (
"76 0 LINE",
"216 0 LINE SMOOTH",
"334 0 OFFCURVE",
"424 15 OFFCURVE",
"514 95 CURVE SMOOTH",
"597 169 OFFCURVE",
"637 266 OFFCURVE",
"637 376 CURVE SMOOTH",
"637 488 OFFCURVE",
"598 589 OFFCURVE",
"512 663 CURVE SMOOTH",
"423 739 OFFCURVE",
"331 754 OFFCURVE",
"218 754 CURVE SMOOTH",
"76 754 LINE",
"76 442 LINE",
"0 442 LINE",
"0 370 LINE",
"76 370 LINE"
);
},
{
closed = 1;
nodes = (
"160 78 LINE",
"160 370 LINE",
"294 370 LINE",
"294 442 LINE",
"160 442 LINE",
"160 676 LINE",
"221 676 LINE SMOOTH",
"310 676 OFFCURVE",
"386 664 OFFCURVE",
"455 603 CURVE SMOOTH",
"520 546 OFFCURVE",
"553 463 OFFCURVE",
"553 377 CURVE SMOOTH",
"553 293 OFFCURVE",
"521 214 OFFCURVE",
"459 156 CURVE SMOOTH",
"390 91 OFFCURVE",
"313 78 OFFCURVE",
"221 78 CURVE SMOOTH"
);
}
);
width = 678;
}
);
unicode = 00D0;
},
{
changeCount = 1;
color = 6;
glyphname = F;
layers = (
{
background = {
paths = (
{
closed = 1;
nodes = (
"419 676 LINE",
"419 754 LINE",
"76 754 LINE",
"76 0 LINE",
"160 0 LINE",
"160 374 LINE",
"411 374 LINE",
"411 452 LINE",
"160 452 LINE",
"160 676 LINE"
);
}
);
};
layerId = "A4368790-3638-4B5D-B474-0996C59BD988";
name = Regular;
paths = (
{
closed = 1;
nodes = (
"422 416 LINE",
"399 715 LINE",
"121 715 LINE SMOOTH",
"121 19 LINE"
);
},
{
closed = 1;
nodes = (
"262 467 LINE",
"390 413 LINE",
"121 413 LINE"
);
}
);
width = 478;
}
);
rightKerningGroupId = "@MMK_L_F";
unicode = 0046;
},
{
changeCount = 1;
color = 6;
glyphname = G;
layers = (
{
background = {
paths = (
{
closed = 1;
nodes = (
"463 379 LINE",
"463 301 LINE",
"687 301 LINE",
"687 161 OFFCURVE",
"549 65 OFFCURVE",
"418 65 CURVE SMOOTH",
"339 65 OFFCURVE",
"259 106 OFFCURVE",
"204 161 CURVE SMOOTH",
"148 218 OFFCURVE",
"116 294 OFFCURVE",
"116 374 CURVE SMOOTH",
"116 544 OFFCURVE",
"252 689 OFFCURVE",
"424 689 CURVE SMOOTH",
"535 689 OFFCURVE",
"620 636 OFFCURVE",
"683 547 CURVE",
"744 604 LINE",
"664 708 OFFCURVE",
"557 767 OFFCURVE",
"425 767 CURVE SMOOTH",
"208 767 OFFCURVE",
"32 591 OFFCURVE",
"32 375 CURVE SMOOTH",
"32 163 OFFCURVE",
"208 -13 OFFCURVE",
"420 -13 CURVE SMOOTH",
"525 -13 OFFCURVE",
"630 33 OFFCURVE",
"699 113 CURVE SMOOTH",
"768 193 OFFCURVE",
"779 277 OFFCURVE",
"777 379 CURVE"
);
}
);
};
layerId = "A4368790-3638-4B5D-B474-0996C59BD988";
name = Regular;
paths = (
{
closed = 1;
nodes = (
"489 489 LINE",
"702 594 LINE",
"638 675 OFFCURVE",
"538 728 OFFCURVE",
"426 728 CURVE SMOOTH",
"232 728 OFFCURVE",
"75 570 OFFCURVE",
"75 377 CURVE SMOOTH",
"75 183 OFFCURVE",
"233 26 OFFCURVE",
"426 26 CURVE SMOOTH",
"608 26 OFFCURVE",
"733 159 OFFCURVE",
"737 341 CURVE",
"485 341 LINE"
);
}
);
width = 820;
}
);
unicode = 0047;
},
{
changeCount = 1;
color = 6;
glyphname = H;
layers = (
{
background = {
paths = (
{
closed = 1;
nodes = (
"164 448 LINE",
"164 754 LINE",
"80 754 LINE",
"80 0 LINE",
"164 0 LINE",
"164 370 LINE",
"550 370 LINE",
"550 0 LINE",
"634 0 LINE",
"634 754 LINE",
"550 754 LINE",
"550 448 LINE"
);
}
);
};
layerId = "A4368790-3638-4B5D-B474-0996C59BD988";
name = Regular;
paths = (
{
closed = 1;
nodes = (
"86 416 LINE",
"119 20 LINE",
"119 734 LINE"
);
},
{
closed = 1;
nodes = (
"352 559 LINE",
"119 411 LINE",
"593 411 LINE"
);
},
{
closed = 1;
nodes = (
"630 416 LINE",
"592 734 LINE",
"592 20 LINE"
);
}
);
width = 714;
}
);
unicode = 0048;
},
{
changeCount = 1;
color = 6;
glyphname = I;
layers = (
{
background = {
paths = (
{
closed = 1;
nodes = (
"162 754 LINE",
"78 754 LINE",
"78 0 LINE",
"162 0 LINE"
);
}
);
};
layerId = "A4368790-3638-4B5D-B474-0996C59BD988";
name = Regular;
paths = (
{
closed = 1;
nodes = (
"73 414 LINE",
"120 20 LINE",
"120 734 LINE"
);
}
);
width = 239;
}
);
unicode = 0049;
},
{
changeCount = 0;
export = 0;
glyphname = Iacute;
layers = (
{
layerId = "A4368790-3638-4B5D-B474-0996C59BD988";
name = Regular;
paths = (
{
closed = 1;
nodes = (
"162 754 LINE",
"78 754 LINE",
"78 0 LINE",
"162 0 LINE"
);
},
{
closed = 1;
nodes = (
"162 1003 LINE",
"43 839 LINE",
"93 811 LINE",
"246 965 LINE"
);
}
);
width = 239;
}
);
unicode = 00CD;
},
{
changeCount = 0;
export = 0;
glyphname = Icircumflex;
layers = (
{
layerId = "A4368790-3638-4B5D-B474-0996C59BD988";
name = Regular;
paths = (
{
closed = 1;
nodes = (
"162 754 LINE",
"78 754 LINE",
"78 0 LINE",
"162 0 LINE"
);
},
{
closed = 1;
nodes = (
"-37 863 LINE",
"20 818 LINE",
"119 903 LINE",
"219 818 LINE",
"277 863 LINE",
"119 996 LINE"
);
}
);
width = 239;
}
);
unicode = 00CE;
},
{
changeCount = 0;
export = 0;
glyphname = Idieresis;
layers = (
{
layerId = "A4368790-3638-4B5D-B474-0996C59BD988";
name = Regular;
paths = (
{
closed = 1;
nodes = (
"162 754 LINE",
"78 754 LINE",
"78 0 LINE",
"162 0 LINE"
);
},
{
closed = 1;
nodes = (
"-9 964 OFFCURVE",
"-33 940 OFFCURVE",
"-33 910 CURVE SMOOTH",
"-33 880 OFFCURVE",
"-9 856 OFFCURVE",
"21 856 CURVE SMOOTH",
"51 856 OFFCURVE",
"75 880 OFFCURVE",
"75 910 CURVE SMOOTH",
"75 940 OFFCURVE",
"51 964 OFFCURVE",
"21 964 CURVE SMOOTH"
);
},
{
closed = 1;
nodes = (
"188 964 OFFCURVE",
"164 940 OFFCURVE",
"164 910 CURVE SMOOTH",
"164 880 OFFCURVE",
"188 856 OFFCURVE",
"218 856 CURVE SMOOTH",
"248 856 OFFCURVE",
"272 880 OFFCURVE",
"272 910 CURVE SMOOTH",
"272 940 OFFCURVE",
"248 964 OFFCURVE",
"218 964 CURVE SMOOTH"
);
}
);
width = 239;
}
);
unicode = 00CF;
},
{
changeCount = 0;
export = 0;
glyphname = Igrave;
layers = (
{
layerId = "A4368790-3638-4B5D-B474-0996C59BD988";
name = Regular;
paths = (
{
closed = 1;
nodes = (
"162 754 LINE",
"78 754 LINE",
"78 0 LINE",
"162 0 LINE"
);
},
{
closed = 1;
nodes = (
"-7 965 LINE",
"146 811 LINE",
"196 839 LINE",
"77 1003 LINE"
);
}
);
width = 239;
}
);
unicode = 00CC;
},
{
changeCount = 1;
color = 6;
glyphname = J;
layers = (
{
background = {
paths = (
{
closed = 1;
nodes = (
"236 754 LINE",
"152 754 LINE",
"152 157 LINE SMOOTH",
"152 98 OFFCURVE",
"152 0 OFFCURVE",
"70 0 CURVE SMOOTH",
"31 0 OFFCURVE",
"8 18 OFFCURVE",
"-19 43 CURVE",
"-66 -22 LINE",
"-28 -54 OFFCURVE",
"18 -78 OFFCURVE",
"68 -78 CURVE SMOOTH",
"119 -78 OFFCURVE",
"167 -57 OFFCURVE",
"198 -16 CURVE SMOOTH",
"236 34 OFFCURVE",
"236 97 OFFCURVE",
"236 157 CURVE SMOOTH"
);
}
);
};
layerId = "A4368790-3638-4B5D-B474-0996C59BD988";
name = Regular;
paths = (
{
closed = 1;
nodes = (
"140 681 LINE",
"-29 1 LINE",
"0 -22 OFFCURVE",
"31 -38 OFFCURVE",
"70 -38 CURVE SMOOTH",
"111 -38 OFFCURVE",
"145 -20 OFFCURVE",
"166 11 CURVE SMOOTH",
"195 53 OFFCURVE",
"195 110 OFFCURVE",
"195 158 CURVE SMOOTH",
"195 734 LINE"
);
}
);
width = 314;
}
);
unicode = 004A;
},
{
changeCount = 1;
color = 6;
glyphname = K;
layers = (
{
background = {
paths = (
{
closed = 1;
nodes = (
"160 431 LINE",
"160 754 LINE",
"76 754 LINE",
"76 0 LINE",
"160 0 LINE",
"160 325 LINE",
"181 346 LINE",
"490 0 LINE",
"606 0 LINE",
"240 403 LINE",
"594 754 LINE",
"481 754 LINE"
);
}
);
};
layerId = "A4368790-3638-4B5D-B474-0996C59BD988";
name = Regular;
paths = (
{
closed = 1;
nodes = (
"362 447 LINE",
"528 743 LINE",
"119 335 LINE"
);
},
{
closed = 1;
nodes = (
"8 304 LINE",
"119 23 LINE",
"119 735 LINE"
);
},
{
closed = 1;
nodes = (
"536 243 LINE",
"189 405 LINE",
"536 15 LINE"
);
}
);
width = 611;
}
);
unicode = 004B;
},
{
changeCount = 1;
color = 6;
glyphname = L;
layers = (
{
background = {
paths = (
{
closed = 1;
nodes = (
"160 754 LINE",
"76 754 LINE",
"76 0 LINE",
"368 0 LINE",
"368 78 LINE",
"160 78 LINE"
);
}
);
};
layerId = "A4368790-3638-4B5D-B474-0996C59BD988";
name = Regular;
paths = (
{
closed = 1;
nodes = (
"194 345 LINE",
"120 734 LINE",
"117 38 LINE",
"347 38 LINE"
);
}
);
width = 375;
}
);
rightKerningGroupId = "@MMK_L_L";
unicode = 004C;
},
{
changeCount = 0;
export = 0;
glyphname = Lslash;
layers = (
{
layerId = "A4368790-3638-4B5D-B474-0996C59BD988";
name = Regular;
paths = (
{
closed = 1;
nodes = (
"76 0 LINE",
"368 0 LINE",
"368 78 LINE",
"160 78 LINE",
"160 374 LINE",
"290 458 LINE",
"290 538 LINE",
"160 454 LINE",
"160 754 LINE",
"76 754 LINE",
"76 399 LINE",
"0 350 LINE",
"0 270 LINE",
"76 319 LINE"
);
}
);
width = 375;
}
);
rightKerningGroupId = "@MMK_L_L";
unicode = 0141;
},
{
changeCount = 1;
color = 6;
glyphname = M;
layers = (
{
background = {
paths = (
{
closed = 1;
nodes = (
"21 0 LINE",
"107 0 LINE",
"204 510 LINE",
"206 510 LINE",
"448 -31 LINE",
"691 510 LINE",
"693 510 LINE",
"790 0 LINE",
"876 0 LINE",
"723 797 LINE",
"448 164 LINE",
"174 797 LINE"
);
}
);
};
layerId = "A4368790-3638-4B5D-B474-0996C59BD988";
name = Regular;
paths = (
{
closed = 1;
nodes = (
"436 34 LINE",
"835 26 LINE",
"710 700 LINE",
"450 71 LINE",
"191 700 LINE",
"66 26 LINE"
);
}
);
width = 896;
}
);
unicode = 004D;
},
{
changeCount = 1;
color = 6;
glyphname = N;
layers = (
{
background = {
paths = (
{
closed = 1;
nodes = (
"81 0 LINE",
"165 0 LINE",
"165 581 LINE",
"753 -34 LINE",
"753 754 LINE",
"669 754 LINE",
"669 170 LINE",
"81 786 LINE"
);
}
);
};
layerId = "A4368790-3638-4B5D-B474-0996C59BD988";
name = Regular;
paths = (
{
closed = 1;
nodes = (
"294 139 LINE",
"710 732 LINE",
"710 46 LINE",
"122 704 LINE",
"122 20 LINE"
);
}
);
width = 834;
}
);
unicode = 004E;
},
{
changeCount = 0;
export = 0;
glyphname = Ntilde;
layers = (
{
layerId = "A4368790-3638-4B5D-B474-0996C59BD988";
name = Regular;
paths = (
{
closed = 1;
nodes = (
"81 0 LINE",
"165 0 LINE",
"165 581 LINE",
"753 -34 LINE",
"753 754 LINE",
"669 754 LINE",
"669 170 LINE",
"81 786 LINE"
);
},
{
closed = 1;
nodes = (
"291 847 LINE",
"301 869 OFFCURVE",
"313 893 OFFCURVE",
"341 893 CURVE SMOOTH",
"362 893 OFFCURVE",
"386 882 OFFCURVE",
"411 871 CURVE SMOOTH",
"436 859 OFFCURVE",
"462 848 OFFCURVE",
"486 848 CURVE SMOOTH",
"535 848 OFFCURVE",
"574 885 OFFCURVE",
"592 929 CURVE",
"545 967 LINE",
"533 945 OFFCURVE",
"517 919 OFFCURVE",
"489 919 CURVE SMOOTH",
"471 919 OFFCURVE",
"450 931 OFFCURVE",
"425 942 CURVE",
"401 954 OFFCURVE",
"374 965 OFFCURVE",
"344 965 CURVE SMOOTH",
"294 965 OFFCURVE",
"265 926 OFFCURVE",
"242 886 CURVE"
);
}
);
width = 834;
}
);
unicode = 00D1;
},
{
changeCount = 1;
color = 6;
glyphname = O;
layers = (
{
background = {
paths = (
{
closed = 1;
nodes = (
"216 767 OFFCURVE",
"38 592 OFFCURVE",
"38 376 CURVE SMOOTH",
"38 159 OFFCURVE",
"216 -13 OFFCURVE",
"431 -13 CURVE SMOOTH",
"646 -13 OFFCURVE",
"824 159 OFFCURVE",
"824 376 CURVE SMOOTH",
"824 592 OFFCURVE",
"646 767 OFFCURVE",
"431 767 CURVE SMOOTH"
);
},
{
closed = 1;
nodes = (
"604 689 OFFCURVE",
"740 548 OFFCURVE",
"740 377 CURVE SMOOTH",
"740 207 OFFCURVE",
"602 65 OFFCURVE",
"431 65 CURVE SMOOTH",
"260 65 OFFCURVE",
"122 207 OFFCURVE",
"122 377 CURVE SMOOTH",
"122 548 OFFCURVE",
"258 689 OFFCURVE",
"431 689 CURVE SMOOTH"
);
}
);
};
layerId = "A4368790-3638-4B5D-B474-0996C59BD988";
name = Regular;
paths = (
{
closed = 1;
nodes = (
"431 27 LINE",
"435 27 LINE SMOOTH",
"626 29 OFFCURVE",
"782 185 OFFCURVE",
"782 377 CURVE SMOOTH",
"782 571 OFFCURVE",
"625 729 OFFCURVE",
"431 729 CURVE",
"237 729 OFFCURVE",
"80 571 OFFCURVE",
"80 377 CURVE SMOOTH",
"80 185 OFFCURVE",
"236 29 OFFCURVE",
"427 27 CURVE SMOOTH"
);
}
);
width = 862;
}
);
unicode = 004F;
},
{
changeCount = 0;
export = 0;
glyphname = OE;
layers = (
{
layerId = "A4368790-3638-4B5D-B474-0996C59BD988";
name = Regular;
paths = (
{
closed = 1;
nodes = (
"729 0 LINE",
"1123 0 LINE",
"1123 78 LINE",
"813 78 LINE",
"813 374 LINE",
"1114 374 LINE",
"1114 452 LINE",
"813 452 LINE",
"813 676 LINE",
"1123 676 LINE",
"1123 754 LINE",
"729 754 LINE",
"729 606 LINE",
"727 606 LINE",
"660 707 OFFCURVE",
"550 767 OFFCURVE",
"431 767 CURVE SMOOTH",
"216 767 OFFCURVE",
"38 592 OFFCURVE",
"38 376 CURVE SMOOTH",
"38 159 OFFCURVE",
"216 -13 OFFCURVE",
"431 -13 CURVE SMOOTH",
"550 -14 OFFCURVE",
"662 45 OFFCURVE",
"727 145 CURVE",
"729 145 LINE"
);
},
{
closed = 1;
nodes = (
"604 689 OFFCURVE",
"740 548 OFFCURVE",
"740 377 CURVE SMOOTH",
"740 207 OFFCURVE",
"602 65 OFFCURVE",
"431 65 CURVE SMOOTH",
"260 65 OFFCURVE",
"122 207 OFFCURVE",
"122 377 CURVE SMOOTH",
"122 548 OFFCURVE",
"258 689 OFFCURVE",
"431 689 CURVE SMOOTH"
);
}
);
width = 1190;
}
);
unicode = 0152;
},
{
changeCount = 0;
export = 0;
glyphname = Oacute;
layers = (
{
layerId = "A4368790-3638-4B5D-B474-0996C59BD988";
name = Regular;
paths = (
{
closed = 1;
nodes = (
"216 767 OFFCURVE",
"38 592 OFFCURVE",
"38 376 CURVE SMOOTH",
"38 159 OFFCURVE",
"216 -13 OFFCURVE",
"431 -13 CURVE SMOOTH",
"646 -13 OFFCURVE",
"824 159 OFFCURVE",
"824 376 CURVE SMOOTH",
"824 592 OFFCURVE",
"646 767 OFFCURVE",
"431 767 CURVE SMOOTH"
);
},
{
closed = 1;
nodes = (
"604 689 OFFCURVE",
"740 548 OFFCURVE",
"740 377 CURVE SMOOTH",
"740 207 OFFCURVE",
"602 65 OFFCURVE",
"431 65 CURVE SMOOTH",
"260 65 OFFCURVE",
"122 207 OFFCURVE",
"122 377 CURVE SMOOTH",
"122 548 OFFCURVE",
"258 689 OFFCURVE",
"431 689 CURVE SMOOTH"
);
},
{
closed = 1;
nodes = (
"489 1003 LINE",
"370 839 LINE",
"420 811 LINE",
"573 965 LINE"
);
}
);
width = 862;
}
);
unicode = 00D3;
},
{
changeCount = 0;
export = 0;
glyphname = Ocircumflex;
layers = (
{
layerId = "A4368790-3638-4B5D-B474-0996C59BD988";
name = Regular;
paths = (
{
closed = 1;
nodes = (
"216 767 OFFCURVE",
"38 592 OFFCURVE",
"38 376 CURVE SMOOTH",
"38 159 OFFCURVE",
"216 -13 OFFCURVE",
"431 -13 CURVE SMOOTH",
"646 -13 OFFCURVE",
"824 159 OFFCURVE",
"824 376 CURVE SMOOTH",
"824 592 OFFCURVE",
"646 767 OFFCURVE",
"431 767 CURVE SMOOTH"
);
},
{
closed = 1;
nodes = (
"604 689 OFFCURVE",
"740 548 OFFCURVE",
"740 377 CURVE SMOOTH",
"740 207 OFFCURVE",
"602 65 OFFCURVE",
"431 65 CURVE SMOOTH",
"260 65 OFFCURVE",
"122 207 OFFCURVE",
"122 377 CURVE SMOOTH",
"122 548 OFFCURVE",
"258 689 OFFCURVE",
"431 689 CURVE SMOOTH"
);
},
{
closed = 1;
nodes = (
"274 863 LINE",
"331 818 LINE",
"430 903 LINE",
"530 818 LINE",
"588 863 LINE",
"430 996 LINE"
);
}
);
width = 862;
}
);
unicode = 00D4;
},
{
changeCount = 1;
color = 6;
glyphname = Odieresis;
layers = (
{
background = {
paths = (
{
closed = 1;
nodes = (
"216 767 OFFCURVE",
"38 592 OFFCURVE",
"38 376 CURVE SMOOTH",
"38 159 OFFCURVE",
"216 -13 OFFCURVE",
"431 -13 CURVE SMOOTH",
"646 -13 OFFCURVE",
"824 159 OFFCURVE",
"824 376 CURVE SMOOTH",
"824 592 OFFCURVE",
"646 767 OFFCURVE",
"431 767 CURVE SMOOTH"
);
},
{
closed = 1;
nodes = (
"604 689 OFFCURVE",
"740 548 OFFCURVE",
"740 377 CURVE SMOOTH",
"740 207 OFFCURVE",
"602 65 OFFCURVE",
"431 65 CURVE SMOOTH",
"260 65 OFFCURVE",
"122 207 OFFCURVE",
"122 377 CURVE SMOOTH",
"122 548 OFFCURVE",
"258 689 OFFCURVE",
"431 689 CURVE SMOOTH"
);
},
{
closed = 1;
nodes = (
"303 964 OFFCURVE",
"279 940 OFFCURVE",
"279 910 CURVE SMOOTH",
"279 880 OFFCURVE",
"303 856 OFFCURVE",
"333 856 CURVE SMOOTH",
"363 856 OFFCURVE",
"387 880 OFFCURVE",
"387 910 CURVE SMOOTH",
"387 940 OFFCURVE",
"363 964 OFFCURVE",
"333 964 CURVE SMOOTH"
);
},
{
closed = 1;
nodes = (
"500 964 OFFCURVE",
"476 940 OFFCURVE",
"476 910 CURVE SMOOTH",
"476 880 OFFCURVE",
"500 856 OFFCURVE",
"530 856 CURVE SMOOTH",
"560 856 OFFCURVE",
"584 880 OFFCURVE",
"584 910 CURVE SMOOTH",
"584 940 OFFCURVE",
"560 964 OFFCURVE",
"530 964 CURVE SMOOTH"
);
},
{
closed = 1;
nodes = (
"431 27 LINE",
"435 27 LINE SMOOTH",
"626 29 OFFCURVE",
"782 185 OFFCURVE",
"782 377 CURVE SMOOTH",
"782 571 OFFCURVE",
"625 729 OFFCURVE",
"431 729 CURVE",
"237 729 OFFCURVE",
"80 571 OFFCURVE",
"80 377 CURVE SMOOTH",
"80 185 OFFCURVE",
"236 29 OFFCURVE",
"427 27 CURVE SMOOTH"
);
}
);
};
layerId = "A4368790-3638-4B5D-B474-0996C59BD988";
name = Regular;
paths = (
{
closed = 1;
nodes = (
"431 27 LINE",
"435 27 LINE SMOOTH",
"626 29 OFFCURVE",
"782 185 OFFCURVE",
"782 377 CURVE SMOOTH",
"782 571 OFFCURVE",
"625 729 OFFCURVE",
"431 729 CURVE",
"237 729 OFFCURVE",
"80 571 OFFCURVE",
"80 377 CURVE SMOOTH",
"80 185 OFFCURVE",
"236 29 OFFCURVE",
"427 27 CURVE SMOOTH"
);
},
{
closed = 1;
nodes = (
"341 909 LINE SMOOTH",
"330 908 LINE",
"330 919 LINE"
);
},
{
closed = 1;
nodes = (
"540 909 LINE",
"529 908 LINE",
"529 919 LINE"
);
}
);
width = 862;
}
);
unicode = 00D6;
},
{
changeCount = 0;
export = 0;
glyphname = Ograve;
layers = (
{
layerId = "A4368790-3638-4B5D-B474-0996C59BD988";
name = Regular;
paths = (
{
closed = 1;
nodes = (
"216 767 OFFCURVE",
"38 592 OFFCURVE",
"38 376 CURVE SMOOTH",
"38 159 OFFCURVE",
"216 -13 OFFCURVE",
"431 -13 CURVE SMOOTH",
"646 -13 OFFCURVE",
"824 159 OFFCURVE",
"824 376 CURVE SMOOTH",
"824 592 OFFCURVE",
"646 767 OFFCURVE",
"431 767 CURVE SMOOTH"
);
},
{
closed = 1;
nodes = (
"604 689 OFFCURVE",
"740 548 OFFCURVE",
"740 377 CURVE SMOOTH",
"740 207 OFFCURVE",
"602 65 OFFCURVE",
"431 65 CURVE SMOOTH",
"260 65 OFFCURVE",
"122 207 OFFCURVE",
"122 377 CURVE SMOOTH",
"122 548 OFFCURVE",
"258 689 OFFCURVE",
"431 689 CURVE SMOOTH"
);
},
{
closed = 1;
nodes = (
"290 965 LINE",
"443 811 LINE",
"493 839 LINE",
"374 1003 LINE"
);
}
);
width = 862;
}
);
unicode = 00D2;
},
{
changeCount = 0;
export = 0;
glyphname = Oslash;
layers = (
{
layerId = "A4368790-3638-4B5D-B474-0996C59BD988";
name = Regular;
paths = (
{
closed = 1;
nodes = (
"189 184 LINE",
"147 237 OFFCURVE",
"122 304 OFFCURVE",
"122 377 CURVE SMOOTH",
"122 548 OFFCURVE",
"258 689 OFFCURVE",
"431 689 CURVE SMOOTH",
"506 689 OFFCURVE",
"574 663 OFFCURVE",
"626 620 CURVE"
);
},
{
closed = 1;
nodes = (
"671 574 LINE",
"715 519 OFFCURVE",
"740 451 OFFCURVE",
"740 377 CURVE SMOOTH",
"740 207 OFFCURVE",
"602 65 OFFCURVE",
"431 65 CURVE SMOOTH",
"356 65 OFFCURVE",
"288 92 OFFCURVE",
"234 138 CURVE"
);
},
{
closed = 1;
nodes = (
"42 37 LINE",
"86 -10 LINE",
"176 80 LINE",
"245 22 OFFCURVE",
"334 -13 OFFCURVE",
"431 -13 CURVE SMOOTH",
"646 -13 OFFCURVE",
"824 159 OFFCURVE",
"824 376 CURVE SMOOTH",
"824 474 OFFCURVE",
"788 563 OFFCURVE",
"728 631 CURVE",
"820 722 LINE",
"774 767 LINE",
"682 676 LINE",
"614 733 OFFCURVE",
"526 767 OFFCURVE",
"431 767 CURVE SMOOTH",
"216 767 OFFCURVE",
"38 592 OFFCURVE",
"38 376 CURVE SMOOTH",
"38 280 OFFCURVE",
"73 193 OFFCURVE",
"131 126 CURVE"
);
}
);
width = 862;
}
);
unicode = 00D8;
},
{
changeCount = 0;
export = 0;
glyphname = Otilde;
layers = (
{
layerId = "A4368790-3638-4B5D-B474-0996C59BD988";
name = Regular;
paths = (
{
closed = 1;
nodes = (
"216 767 OFFCURVE",
"38 592 OFFCURVE",
"38 376 CURVE SMOOTH",
"38 159 OFFCURVE",
"216 -13 OFFCURVE",
"431 -13 CURVE SMOOTH",
"646 -13 OFFCURVE",
"824 159 OFFCURVE",
"824 376 CURVE SMOOTH",
"824 592 OFFCURVE",
"646 767 OFFCURVE",
"431 767 CURVE SMOOTH"
);
},
{
closed = 1;
nodes = (
"604 689 OFFCURVE",
"740 548 OFFCURVE",
"740 377 CURVE SMOOTH",
"740 207 OFFCURVE",
"602 65 OFFCURVE",
"431 65 CURVE SMOOTH",
"260 65 OFFCURVE",
"122 207 OFFCURVE",
"122 377 CURVE SMOOTH",
"122 548 OFFCURVE",
"258 689 OFFCURVE",
"431 689 CURVE SMOOTH"
);
},
{
closed = 1;
nodes = (
"305 847 LINE",
"315 869 OFFCURVE",
"327 893 OFFCURVE",
"355 893 CURVE SMOOTH",
"376 893 OFFCURVE",
"400 882 OFFCURVE",
"425 871 CURVE SMOOTH",
"450 859 OFFCURVE",
"476 848 OFFCURVE",
"500 848 CURVE SMOOTH",
"549 848 OFFCURVE",
"588 885 OFFCURVE",
"606 929 CURVE",
"559 967 LINE",
"547 945 OFFCURVE",
"531 919 OFFCURVE",
"503 919 CURVE SMOOTH",
"485 919 OFFCURVE",
"464 931 OFFCURVE",
"439 942 CURVE",
"415 954 OFFCURVE",
"388 965 OFFCURVE",
"358 965 CURVE SMOOTH",
"308 965 OFFCURVE",
"279 926 OFFCURVE",
"256 886 CURVE"
);
}
);
width = 862;
}
);
unicode = 00D5;
},
{
changeCount = 1;
color = 6;
glyphname = P;
layers = (
{
background = {
paths = (
{
closed = 1;
nodes = (
"160 330 LINE",
"221 330 LINE SMOOTH",
"284 330 OFFCURVE",
"349 338 OFFCURVE",
"400 380 CURVE SMOOTH",
"447 419 OFFCURVE",
"472 481 OFFCURVE",
"472 542 CURVE SMOOTH",
"472 609 OFFCURVE",
"443 675 OFFCURVE",
"387 714 CURVE SMOOTH",
"332 752 OFFCURVE",
"265 754 OFFCURVE",
"200 754 CURVE SMOOTH",
"76 754 LINE",
"76 0 LINE",
"160 0 LINE"
);
},
{
closed = 1;
nodes = (
"160 676 LINE",
"191 676 LINE SMOOTH",
"289 676 OFFCURVE",
"388 667 OFFCURVE",
"388 544 CURVE SMOOTH",
"388 436 OFFCURVE",
"309 408 OFFCURVE",
"216 408 CURVE SMOOTH",
"160 408 LINE"
);
}
);
};
layerId = "A4368790-3638-4B5D-B474-0996C59BD988";
name = Regular;
paths = (
{
closed = 1;
nodes = (
"281 208 LINE",
"119 370 LINE",
"228 370 LINE SMOOTH",
"279 371 OFFCURVE",
"329 379 OFFCURVE",
"367 408 CURVE SMOOTH",
"407 437 OFFCURVE",
"431 486 OFFCURVE",
"431 544 CURVE SMOOTH",
"431 609 OFFCURVE",
"403 658 OFFCURVE",
"356 687 CURVE SMOOTH",
"310 714 OFFCURVE",
"253 716 OFFCURVE",
"196 716 CURVE SMOOTH",
"119 716 LINE",
"119 22 LINE"
);
}
);
width = 503;
}
);
rightKerningGroupId = "@MMK_L_P";
unicode = 0050;
},
{
changeCount = 1;
color = 6;
glyphname = Q;
layers = (
{
background = {
paths = (
{
closed = 1;
nodes = (
"527 304 LINE",
"417 304 LINE",
"599 121 LINE",
"553 86 OFFCURVE",
"487 65 OFFCURVE",
"431 65 CURVE SMOOTH",
"260 65 OFFCURVE",
"122 207 OFFCURVE",
"122 377 CURVE SMOOTH",
"122 548 OFFCURVE",
"258 689 OFFCURVE",
"431 689 CURVE SMOOTH",
"604 689 OFFCURVE",
"740 549 OFFCURVE",
"740 377 CURVE SMOOTH",
"740 296 OFFCURVE",
"713 227 OFFCURVE",
"657 168 CURVE"
);
},
{
closed = 1;
nodes = (
"721 -7 LINE",
"828 -7 LINE",
"715 108 LINE",
"786 184 OFFCURVE",
"824 269 OFFCURVE",
"824 374 CURVE SMOOTH",
"824 590 OFFCURVE",
"649 767 OFFCURVE",
"431 767 CURVE SMOOTH",
"216 767 OFFCURVE",
"38 592 OFFCURVE",
"38 376 CURVE SMOOTH",
"38 159 OFFCURVE",
"216 -13 OFFCURVE",
"431 -13 CURVE SMOOTH",
"507 -13 OFFCURVE",
"596 14 OFFCURVE",
"658 61 CURVE"
);
}
);
};
layerId = "A4368790-3638-4B5D-B474-0996C59BD988";
name = Regular;
paths = (
{
closed = 1;
nodes = (
"431 27 LINE",
"435 27 LINE SMOOTH",
"626 29 OFFCURVE",
"782 185 OFFCURVE",
"782 377 CURVE SMOOTH",
"782 571 OFFCURVE",
"625 729 OFFCURVE",
"431 729 CURVE",
"237 729 OFFCURVE",
"80 571 OFFCURVE",
"80 377 CURVE SMOOTH",
"80 185 OFFCURVE",
"236 29 OFFCURVE",
"427 27 CURVE SMOOTH"
);
},
{
closed = 1;
nodes = (
"905 292 LINE",
"486 292 LINE",
"761 6 LINE"
);
}
);
width = 862;
}
);
unicode = 0051;
},
{
changeCount = 1;
color = 6;
glyphname = R;
layers = (
{
background = {
paths = (
{
closed = 1;
nodes = (
"160 676 LINE",
"185 676 LINE SMOOTH",
"286 676 OFFCURVE",
"377 664 OFFCURVE",
"377 540 CURVE SMOOTH",
"377 423 OFFCURVE",
"281 405 OFFCURVE",
"186 405 CURVE SMOOTH",
"160 405 LINE"
);
},
{
closed = 1;
nodes = (
"160 331 LINE",
"181 331 LINE",
"409 0 LINE",
"512 0 LINE",
"272 338 LINE",
"388 348 OFFCURVE",
"461 430 OFFCURVE",
"461 546 CURVE SMOOTH",
"461 716 OFFCURVE",
"328 754 OFFCURVE",
"185 754 CURVE SMOOTH",
"76 754 LINE",
"76 0 LINE",
"160 0 LINE"
);
}
);
};
layerId = "A4368790-3638-4B5D-B474-0996C59BD988";
name = Regular;
paths = (
{
closed = 1;
nodes = (
"202 201 LINE",
"116 374 LINE",
"196 374 LINE SMOOTH",
"380 374 OFFCURVE",
"414 470 OFFCURVE",
"414 557 CURVE SMOOTH",
"414 668 OFFCURVE",
"323 717 OFFCURVE",
"208 717 CURVE SMOOTH",
"116 717 LINE",
"116 25 LINE"
);
},
{
closed = 1;
nodes = (
"414 263 LINE",
"202 374 LINE",
"444 27 LINE"
);
}
);
width = 542;
}
);
rightKerningGroupId = "@MMK_L_R";
unicode = 0052;
},
{
changeCount = 1;
color = 6;
glyphname = S;
layers = (
{
background = {
paths = (
{
closed = 1;
nodes = (
"485 650 LINE",
"445 724 OFFCURVE",
"374 767 OFFCURVE",
"290 767 CURVE SMOOTH",
"178 767 OFFCURVE",
"79 692 OFFCURVE",
"79 575 CURVE SMOOTH",
"79 467 OFFCURVE",
"155 422 OFFCURVE",
"243 382 CURVE SMOOTH",
"289 362 LINE SMOOTH",
"359 330 OFFCURVE",
"428 300 OFFCURVE",
"428 212 CURVE SMOOTH",
"428 127 OFFCURVE",
"354 65 OFFCURVE",
"273 65 CURVE SMOOTH",
"192 65 OFFCURVE",
"133 128 OFFCURVE",
"122 205 CURVE",
"40 182 LINE",
"64 65 OFFCURVE",
"154 -13 OFFCURVE",
"275 -13 CURVE SMOOTH",
"406 -13 OFFCURVE",
"512 88 OFFCURVE",
"512 220 CURVE SMOOTH",
"512 340 OFFCURVE",
"429 389 OFFCURVE",
"331 432 CURVE SMOOTH",
"281 454 LINE SMOOTH",
"230 477 OFFCURVE",
"163 507 OFFCURVE",
"163 572 CURVE SMOOTH",
"163 641 OFFCURVE",
"221 689 OFFCURVE",
"288 689 CURVE SMOOTH",
"352 689 OFFCURVE",
"388 659 OFFCURVE",
"418 607 CURVE"
);
}
);
};
layerId = "A4368790-3638-4B5D-B474-0996C59BD988";
name = Regular;
paths = (
{
closed = 1;
nodes = (
"379 472 LINE",
"86 171 LINE",
"110 84 OFFCURVE",
"181 23 OFFCURVE",
"274 23 CURVE SMOOTH",
"380 23 OFFCURVE",
"470 105 OFFCURVE",
"470 213 CURVE SMOOTH",
"470 317 OFFCURVE",
"394 357 OFFCURVE",
"310 394 CURVE SMOOTH",
"262 415 LINE SMOOTH",
"193 447 OFFCURVE",
"121 484 OFFCURVE",
"121 571 CURVE SMOOTH",
"121 664 OFFCURVE",
"200 725 OFFCURVE",
"289 725 CURVE SMOOTH",
"355 725 OFFCURVE",
"404 697 OFFCURVE",
"439 646 CURVE"
);
}
);
width = 559;
}
);
unicode = 0053;
},
{
changeCount = 0;
export = 0;
glyphname = Scaron;
layers = (
{
layerId = "A4368790-3638-4B5D-B474-0996C59BD988";
name = Regular;
paths = (
{
closed = 1;
nodes = (
"485 650 LINE",
"445 724 OFFCURVE",
"374 767 OFFCURVE",
"290 767 CURVE SMOOTH",
"178 767 OFFCURVE",
"79 692 OFFCURVE",
"79 575 CURVE SMOOTH",
"79 467 OFFCURVE",
"155 422 OFFCURVE",
"243 382 CURVE SMOOTH",
"289 362 LINE SMOOTH",
"359 330 OFFCURVE",
"428 300 OFFCURVE",
"428 212 CURVE SMOOTH",
"428 127 OFFCURVE",
"354 65 OFFCURVE",
"273 65 CURVE SMOOTH",
"192 65 OFFCURVE",
"133 128 OFFCURVE",
"122 205 CURVE",
"40 182 LINE",
"64 65 OFFCURVE",
"154 -13 OFFCURVE",
"275 -13 CURVE SMOOTH",
"406 -13 OFFCURVE",
"512 88 OFFCURVE",
"512 220 CURVE SMOOTH",
"512 340 OFFCURVE",
"429 389 OFFCURVE",
"331 432 CURVE SMOOTH",
"281 454 LINE SMOOTH",
"230 477 OFFCURVE",
"163 507 OFFCURVE",
"163 572 CURVE SMOOTH",
"163 641 OFFCURVE",
"221 689 OFFCURVE",
"288 689 CURVE SMOOTH",
"352 689 OFFCURVE",
"388 659 OFFCURVE",
"418 607 CURVE"
);
},
{
closed = 1;
nodes = (
"447 951 LINE",
"390 996 LINE",
"291 911 LINE",
"191 996 LINE",
"133 951 LINE",
"291 818 LINE"
);
}
);
width = 559;
}
);
unicode = 0160;
},
{
changeCount = 1;
color = 6;
glyphname = T;
layers = (
{
background = {
paths = (
{
closed = 1;
nodes = (
"276 676 LINE",
"460 676 LINE",
"460 754 LINE",
"10 754 LINE",
"10 676 LINE",
"192 676 LINE",
"192 0 LINE",
"276 0 LINE"
);
}
);
};
layerId = "A4368790-3638-4B5D-B474-0996C59BD988";
name = Regular;
paths = (
{
closed = 1;
nodes = (
"294 648 LINE",
"238 693 LINE",
"238 20 LINE"
);
},
{
closed = 1;
nodes = (
"186 759 LINE",
"31 715 LINE",
"439 715 LINE"
);
}
);
width = 470;
}
);
rightKerningGroupId = "@MMK_L_T";
unicode = 0054;
},
{
changeCount = 0;
export = 0;
glyphname = Thorn;
layers = (
{
layerId = "A4368790-3638-4B5D-B474-0996C59BD988";
name = Regular;
paths = (
{
closed = 1;
nodes = (
"160 190 LINE",
"221 190 LINE SMOOTH",
"284 190 OFFCURVE",
"349 198 OFFCURVE",
"400 240 CURVE SMOOTH",
"447 279 OFFCURVE",
"472 341 OFFCURVE",
"472 402 CURVE SMOOTH",
"472 469 OFFCURVE",
"443 535 OFFCURVE",
"387 574 CURVE SMOOTH",
"332 612 OFFCURVE",
"265 614 OFFCURVE",
"200 614 CURVE SMOOTH",
"160 614 LINE",
"160 754 LINE",
"76 754 LINE",
"76 0 LINE",
"160 0 LINE"
);
},
{
closed = 1;
nodes = (
"160 536 LINE",
"191 536 LINE SMOOTH",
"289 536 OFFCURVE",
"388 527 OFFCURVE",
"388 404 CURVE SMOOTH",
"388 296 OFFCURVE",
"309 268 OFFCURVE",
"216 268 CURVE SMOOTH",
"160 268 LINE"
);
}
);
width = 503;
}
);
unicode = 00DE;
},
{
changeCount = 1;
color = 6;
glyphname = U;
layers = (
{
background = {
paths = (
{
closed = 1;
nodes = (
"158 754 LINE",
"74 754 LINE",
"74 282 LINE SMOOTH",
"74 196 OFFCURVE",
"82 127 OFFCURVE",
"148 64 CURVE SMOOTH",
"199 14 OFFCURVE",
"272 -13 OFFCURVE",
"343 -13 CURVE SMOOTH",
"419 -13 OFFCURVE",
"494 17 OFFCURVE",
"546 73 CURVE SMOOTH",
"606 135 OFFCURVE",
"612 200 OFFCURVE",
"612 282 CURVE SMOOTH",
"612 754 LINE",
"528 754 LINE",
"528 305 LINE SMOOTH",
"528 246 OFFCURVE",
"531 180 OFFCURVE",
"491 132 CURVE SMOOTH",
"456 90 OFFCURVE",
"397 65 OFFCURVE",
"343 65 CURVE SMOOTH",
"288 65 OFFCURVE",
"224 91 OFFCURVE",
"191 137 CURVE SMOOTH",
"156 185 OFFCURVE",
"158 249 OFFCURVE",
"158 305 CURVE SMOOTH"
);
}
);
};
layerId = "A4368790-3638-4B5D-B474-0996C59BD988";
name = Regular;
paths = (
{
closed = 1;
nodes = (
"292 707 LINE",
"115 730 LINE",
"115 291 LINE SMOOTH",
"115 220 OFFCURVE",
"119 153 OFFCURVE",
"169 98 CURVE SMOOTH",
"211 50 OFFCURVE",
"279 23 OFFCURVE",
"342 23 CURVE SMOOTH",
"407 23 OFFCURVE",
"474 51 OFFCURVE",
"518 100 CURVE SMOOTH",
"567 155 OFFCURVE",
"569 220 OFFCURVE",
"569 291 CURVE SMOOTH",
"569 730 LINE"
);
}
);
width = 685;
}
);
unicode = 0055;
},
{
changeCount = 0;
export = 0;
glyphname = Uacute;
layers = (
{
layerId = "A4368790-3638-4B5D-B474-0996C59BD988";
name = Regular;
paths = (
{
closed = 1;
nodes = (
"158 754 LINE",
"74 754 LINE",
"74 282 LINE SMOOTH",
"74 196 OFFCURVE",
"82 127 OFFCURVE",
"148 64 CURVE SMOOTH",
"199 14 OFFCURVE",
"272 -13 OFFCURVE",
"343 -13 CURVE SMOOTH",
"419 -13 OFFCURVE",
"494 17 OFFCURVE",
"546 73 CURVE SMOOTH",
"606 135 OFFCURVE",
"612 200 OFFCURVE",
"612 282 CURVE SMOOTH",
"612 754 LINE",
"528 754 LINE",
"528 305 LINE SMOOTH",
"528 246 OFFCURVE",
"531 180 OFFCURVE",
"491 132 CURVE SMOOTH",
"456 90 OFFCURVE",
"397 65 OFFCURVE",
"343 65 CURVE SMOOTH",
"288 65 OFFCURVE",
"224 91 OFFCURVE",
"191 137 CURVE SMOOTH",
"156 185 OFFCURVE",
"158 249 OFFCURVE",
"158 305 CURVE SMOOTH"
);
},
{
closed = 1;
nodes = (
"401 1003 LINE",
"282 839 LINE",
"332 811 LINE",
"485 965 LINE"
);
}
);
width = 685;
}
);
unicode = 00DA;
},
{
changeCount = 0;
export = 0;
glyphname = Ucircumflex;
layers = (
{
layerId = "A4368790-3638-4B5D-B474-0996C59BD988";
name = Regular;
paths = (
{
closed = 1;
nodes = (
"158 754 LINE",
"74 754 LINE",
"74 282 LINE SMOOTH",
"74 196 OFFCURVE",
"82 127 OFFCURVE",
"148 64 CURVE SMOOTH",
"199 14 OFFCURVE",
"272 -13 OFFCURVE",
"343 -13 CURVE SMOOTH",
"419 -13 OFFCURVE",
"494 17 OFFCURVE",
"546 73 CURVE SMOOTH",
"606 135 OFFCURVE",
"612 200 OFFCURVE",
"612 282 CURVE SMOOTH",
"612 754 LINE",
"528 754 LINE",
"528 305 LINE SMOOTH",
"528 246 OFFCURVE",
"531 180 OFFCURVE",
"491 132 CURVE SMOOTH",
"456 90 OFFCURVE",
"397 65 OFFCURVE",
"343 65 CURVE SMOOTH",
"288 65 OFFCURVE",
"224 91 OFFCURVE",
"191 137 CURVE SMOOTH",
"156 185 OFFCURVE",
"158 249 OFFCURVE",
"158 305 CURVE SMOOTH"
);
},
{
closed = 1;
nodes = (
"186 863 LINE",
"243 818 LINE",
"342 903 LINE",
"442 818 LINE",
"500 863 LINE",
"342 996 LINE"
);
}
);
width = 685;
}
);
unicode = 00DB;
},
{
changeCount = 1;
color = 6;
glyphname = Udieresis;
layers = (
{
background = {
paths = (
{
closed = 1;
nodes = (
"158 754 LINE",
"74 754 LINE",
"74 282 LINE SMOOTH",
"74 196 OFFCURVE",
"82 127 OFFCURVE",
"148 64 CURVE SMOOTH",
"199 14 OFFCURVE",
"272 -13 OFFCURVE",
"343 -13 CURVE SMOOTH",
"419 -13 OFFCURVE",
"494 17 OFFCURVE",
"546 73 CURVE SMOOTH",
"606 135 OFFCURVE",
"612 200 OFFCURVE",
"612 282 CURVE SMOOTH",
"612 754 LINE",
"528 754 LINE",
"528 305 LINE SMOOTH",
"528 246 OFFCURVE",
"531 180 OFFCURVE",
"491 132 CURVE SMOOTH",
"456 90 OFFCURVE",
"397 65 OFFCURVE",
"343 65 CURVE SMOOTH",
"288 65 OFFCURVE",
"224 91 OFFCURVE",
"191 137 CURVE SMOOTH",
"156 185 OFFCURVE",
"158 249 OFFCURVE",
"158 305 CURVE SMOOTH"
);
},
{
closed = 1;
nodes = (
"214 964 OFFCURVE",
"190 940 OFFCURVE",
"190 910 CURVE SMOOTH",
"190 880 OFFCURVE",
"214 856 OFFCURVE",
"244 856 CURVE SMOOTH",
"274 856 OFFCURVE",
"298 880 OFFCURVE",
"298 910 CURVE SMOOTH",
"298 940 OFFCURVE",
"274 964 OFFCURVE",
"244 964 CURVE SMOOTH"
);
},
{
closed = 1;
nodes = (
"411 964 OFFCURVE",
"387 940 OFFCURVE",
"387 910 CURVE SMOOTH",
"387 880 OFFCURVE",
"411 856 OFFCURVE",
"441 856 CURVE SMOOTH",
"471 856 OFFCURVE",
"495 880 OFFCURVE",
"495 910 CURVE SMOOTH",
"495 940 OFFCURVE",
"471 964 OFFCURVE",
"441 964 CURVE SMOOTH"
);
},
{
closed = 1;
nodes = (
"249 908 LINE",
"249 919 LINE",
"260 909 LINE SMOOTH"
);
},
{
closed = 1;
nodes = (
"448 908 LINE",
"448 919 LINE",
"459 909 LINE"
);
}
);
};
layerId = "A4368790-3638-4B5D-B474-0996C59BD988";
name = Regular;
paths = (
{
closed = 1;
nodes = (
"253 909 LINE SMOOTH",
"242 908 LINE",
"242 919 LINE"
);
},
{
closed = 1;
nodes = (
"452 909 LINE",
"441 908 LINE",
"441 919 LINE"
);
},
{
closed = 1;
nodes = (
"292 707 LINE",
"115 730 LINE",
"115 291 LINE SMOOTH",
"115 220 OFFCURVE",
"119 153 OFFCURVE",
"169 98 CURVE SMOOTH",
"211 50 OFFCURVE",
"279 23 OFFCURVE",
"342 23 CURVE SMOOTH",
"407 23 OFFCURVE",
"474 51 OFFCURVE",
"518 100 CURVE SMOOTH",
"567 155 OFFCURVE",
"569 220 OFFCURVE",
"569 291 CURVE SMOOTH",
"569 730 LINE"
);
}
);
width = 685;
}
);
unicode = 00DC;
},
{
changeCount = 0;
export = 0;
glyphname = Ugrave;
layers = (
{
layerId = "A4368790-3638-4B5D-B474-0996C59BD988";
name = Regular;
paths = (
{
closed = 1;
nodes = (
"158 754 LINE",
"74 754 LINE",
"74 282 LINE SMOOTH",
"74 196 OFFCURVE",
"82 127 OFFCURVE",
"148 64 CURVE SMOOTH",
"199 14 OFFCURVE",
"272 -13 OFFCURVE",
"343 -13 CURVE SMOOTH",
"419 -13 OFFCURVE",
"494 17 OFFCURVE",
"546 73 CURVE SMOOTH",
"606 135 OFFCURVE",
"612 200 OFFCURVE",
"612 282 CURVE SMOOTH",
"612 754 LINE",
"528 754 LINE",
"528 305 LINE SMOOTH",
"528 246 OFFCURVE",
"531 180 OFFCURVE",
"491 132 CURVE SMOOTH",
"456 90 OFFCURVE",
"397 65 OFFCURVE",
"343 65 CURVE SMOOTH",
"288 65 OFFCURVE",
"224 91 OFFCURVE",
"191 137 CURVE SMOOTH",
"156 185 OFFCURVE",
"158 249 OFFCURVE",
"158 305 CURVE SMOOTH"
);
},
{
closed = 1;
nodes = (
"202 965 LINE",
"355 811 LINE",
"405 839 LINE",
"286 1003 LINE"
);
}
);
width = 685;
}
);
unicode = 00D9;
},
{
changeCount = 1;
color = 6;
glyphname = V;
layers = (
{
background = {
paths = (
{
closed = 1;
nodes = (
"97 754 LINE",
"6 754 LINE",
"312 -45 LINE",
"618 754 LINE",
"527 754 LINE",
"312 179 LINE"
);
}
);
};
layerId = "A4368790-3638-4B5D-B474-0996C59BD988";
name = Regular;
paths = (
{
closed = 1;
nodes = (
"292 681 LINE",
"50 720 LINE",
"310 33 LINE",
"571 720 LINE"
);
}
);
width = 624;
}
);
leftKerningGroupId = "@MMK_R_V";
rightKerningGroupId = "@MMK_L_V";
unicode = 0056;
},
{
changeCount = 1;
color = 6;
glyphname = W;
layers = (
{
background = {
paths = (
{
closed = 1;
nodes = (
"104 754 LINE",
"13 754 LINE",
"302 -39 LINE",
"546 568 LINE",
"790 -39 LINE",
"1079 754 LINE",
"988 754 LINE",
"790 189 LINE",
"546 793 LINE",
"302 189 LINE"
);
}
);
};
layerId = "A4368790-3638-4B5D-B474-0996C59BD988";
name = Regular;
paths = (
{
closed = 1;
nodes = (
"374 738 LINE",
"59 719 LINE",
"302 30 LINE",
"546 719 LINE",
"788 30 LINE",
"1034 719 LINE"
);
}
);
width = 1091;
}
);
leftKerningGroupId = "@MMK_R_W";
rightKerningGroupId = "@MMK_L_W";
unicode = 0057;
},
{
changeCount = 1;
color = 6;
glyphname = X;
layers = (
{
background = {
paths = (
{
closed = 1;
nodes = (
"236 390 LINE",
"13 0 LINE",
"109 0 LINE",
"282 310 LINE",
"455 0 LINE",
"551 0 LINE",
"328 390 LINE",
"532 754 LINE",
"436 754 LINE",
"282 470 LINE",
"128 754 LINE",
"32 754 LINE"
);
}
);
};
layerId = "A4368790-3638-4B5D-B474-0996C59BD988";
name = Regular;
paths = (
{
closed = 1;
nodes = (
"471 344 LINE",
"469 727 LINE",
"64 11 LINE"
);
},
{
closed = 1;
nodes = (
"140 461 LINE",
"498 11 LINE",
"93 727 LINE"
);
}
);
width = 564;
}
);
unicode = 0058;
},
{
changeCount = 1;
color = 6;
glyphname = Y;
layers = (
{
background = {
paths = (
{
closed = 1;
nodes = (
"255 324 LINE",
"255 0 LINE",
"339 0 LINE",
"339 324 LINE",
"586 754 LINE",
"489 754 LINE",
"297 418 LINE",
"105 754 LINE",
"8 754 LINE"
);
}
);
};
layerId = "A4368790-3638-4B5D-B474-0996C59BD988";
name = Regular;
paths = (
{
closed = 1;
nodes = (
"236 269 LINE",
"298 20 LINE",
"298 342 LINE",
"68 731 LINE"
);
},
{
closed = 1;
nodes = (
"474 516 LINE",
"527 731 LINE",
"298 342 LINE"
);
}
);
width = 593;
}
);
leftKerningGroupId = "@MMK_R_Y";
rightKerningGroupId = "@MMK_L_Y";
unicode = 0059;
},
{
changeCount = 0;
export = 0;
glyphname = Yacute;
layers = (
{
layerId = "A4368790-3638-4B5D-B474-0996C59BD988";
name = Regular;
paths = (
{
closed = 1;
nodes = (
"255 324 LINE",
"255 0 LINE",
"339 0 LINE",
"339 324 LINE",
"586 754 LINE",
"489 754 LINE",
"297 418 LINE",
"105 754 LINE",
"8 754 LINE"
);
},
{
closed = 1;
nodes = (
"375 1003 LINE",
"256 839 LINE",
"306 811 LINE",
"459 965 LINE"
);
}
);
width = 593;
}
);
leftKerningGroupId = "@MMK_R_Y";
rightKerningGroupId = "@MMK_L_Y";
unicode = 00DD;
},
{
changeCount = 0;
export = 0;
glyphname = Ydieresis;
layers = (
{
layerId = "A4368790-3638-4B5D-B474-0996C59BD988";
name = Regular;
paths = (
{
closed = 1;
nodes = (
"255 324 LINE",
"255 0 LINE",
"339 0 LINE",
"339 324 LINE",
"586 754 LINE",
"489 754 LINE",
"297 418 LINE",
"105 754 LINE",
"8 754 LINE"
);
},
{
closed = 1;
nodes = (
"180 964 OFFCURVE",
"156 940 OFFCURVE",
"156 910 CURVE SMOOTH",
"156 880 OFFCURVE",
"180 856 OFFCURVE",
"210 856 CURVE SMOOTH",
"240 856 OFFCURVE",
"264 880 OFFCURVE",
"264 910 CURVE SMOOTH",
"264 940 OFFCURVE",
"240 964 OFFCURVE",
"210 964 CURVE SMOOTH"
);
},
{
closed = 1;
nodes = (
"377 964 OFFCURVE",
"353 940 OFFCURVE",
"353 910 CURVE SMOOTH",
"353 880 OFFCURVE",
"377 856 OFFCURVE",
"407 856 CURVE SMOOTH",
"437 856 OFFCURVE",
"461 880 OFFCURVE",
"461 910 CURVE SMOOTH",
"461 940 OFFCURVE",
"437 964 OFFCURVE",
"407 964 CURVE SMOOTH"
);
}
);
width = 593;
}
);
leftKerningGroupId = "@MMK_R_Y";
rightKerningGroupId = "@MMK_L_Y";
unicode = 0178;
},
{
changeCount = 1;
color = 6;
glyphname = Z;
layers = (
{
background = {
paths = (
{
closed = 1;
nodes = (
"153 78 LINE",
"565 754 LINE",
"66 754 LINE",
"66 676 LINE",
"425 676 LINE",
"14 0 LINE",
"554 0 LINE",
"554 78 LINE"
);
}
);
};
layerId = "A4368790-3638-4B5D-B474-0996C59BD988";
name = Regular;
paths = (
{
closed = 1;
nodes = (
"458 247 LINE",
"86 713 LINE",
"505 713 LINE",
"74 37 LINE",
"534 37 LINE"
);
}
);
width = 586;
}
);
unicode = 005A;
},
{
changeCount = 0;
export = 0;
glyphname = Zcaron;
layers = (
{
layerId = "A4368790-3638-4B5D-B474-0996C59BD988";
name = Regular;
paths = (
{
closed = 1;
nodes = (
"153 78 LINE",
"565 754 LINE",
"66 754 LINE",
"66 676 LINE",
"425 676 LINE",
"14 0 LINE",
"554 0 LINE",
"554 78 LINE"
);
},
{
closed = 1;
nodes = (
"462 951 LINE",
"405 996 LINE",
"306 911 LINE",
"206 996 LINE",
"148 951 LINE",
"306 818 LINE"
);
}
);
width = 586;
}
);
unicode = 017D;
},
{
changeCount = 1;
color = 6;
glyphname = a;
layers = (
{
background = {
paths = (
{
closed = 1;
nodes = (
"370 409 OFFCURVE",
"429 333 OFFCURVE",
"429 239 CURVE SMOOTH",
"429 144 OFFCURVE",
"375 61 OFFCURVE",
"272 61 CURVE SMOOTH",
"172 61 OFFCURVE",
"118 148 OFFCURVE",
"118 240 CURVE SMOOTH",
"118 328 OFFCURVE",
"178 409 OFFCURVE",
"271 409 CURVE SMOOTH"
);
},
{
closed = 1;
nodes = (
"505 470 LINE",
"425 470 LINE",
"425 403 LINE",
"423 403 LINE",
"384 453 OFFCURVE",
"326 483 OFFCURVE",
"262 483 CURVE SMOOTH",
"121 483 OFFCURVE",
"36 368 OFFCURVE",
"36 234 CURVE SMOOTH",
"36 104 OFFCURVE",
"123 -13 OFFCURVE",
"261 -13 CURVE SMOOTH",
"327 -13 OFFCURVE",
"382 13 OFFCURVE",
"423 65 CURVE",
"425 65 LINE",
"425 0 LINE",
"505 0 LINE"
);
}
);
};
layerId = "A4368790-3638-4B5D-B474-0996C59BD988";
name = Regular;
paths = (
{
closed = 1;
nodes = (
"496 271 LINE",
"458 15 LINE",
"458 446 LINE"
);
},
{
closed = 1;
nodes = (
"458 240 LINE",
"457 268 LINE",
"445 390 OFFCURVE",
"347 446 OFFCURVE",
"273 446 CURVE SMOOTH",
"155 446 OFFCURVE",
"82 348 OFFCURVE",
"82 236 CURVE SMOOTH",
"82 122 OFFCURVE",
"151 24 OFFCURVE",
"273 24 CURVE SMOOTH",
"350 24 OFFCURVE",
"445 81 OFFCURVE",
"457 214 CURVE"
);
}
);
width = 577;
}
);
unicode = 0061;
},
{
changeCount = 0;
export = 0;
glyphname = aacute;
layers = (
{
layerId = "A4368790-3638-4B5D-B474-0996C59BD988";
name = Regular;
paths = (
{
closed = 1;
nodes = (
"370 409 OFFCURVE",
"429 333 OFFCURVE",
"429 239 CURVE SMOOTH",
"429 144 OFFCURVE",
"375 61 OFFCURVE",
"272 61 CURVE SMOOTH",
"172 61 OFFCURVE",
"118 148 OFFCURVE",
"118 240 CURVE SMOOTH",
"118 328 OFFCURVE",
"178 409 OFFCURVE",
"271 409 CURVE SMOOTH"
);
},
{
closed = 1;
nodes = (
"505 470 LINE",
"425 470 LINE",
"425 403 LINE",
"423 403 LINE",
"384 453 OFFCURVE",
"326 483 OFFCURVE",
"262 483 CURVE SMOOTH",
"121 483 OFFCURVE",
"36 368 OFFCURVE",
"36 234 CURVE SMOOTH",
"36 104 OFFCURVE",
"123 -13 OFFCURVE",
"261 -13 CURVE SMOOTH",
"327 -13 OFFCURVE",
"382 13 OFFCURVE",
"423 65 CURVE",
"425 65 LINE",
"425 0 LINE",
"505 0 LINE"
);
},
{
closed = 1;
nodes = (
"347 744 LINE",
"228 580 LINE",
"278 552 LINE",
"431 706 LINE"
);
}
);
width = 577;
}
);
leftKerningGroupId = "@MMK_R_a";
unicode = 00E1;
},
{
changeCount = 0;
export = 0;
glyphname = acircumflex;
layers = (
{
layerId = "A4368790-3638-4B5D-B474-0996C59BD988";
name = Regular;
paths = (
{
closed = 1;
nodes = (
"370 409 OFFCURVE",
"429 333 OFFCURVE",
"429 239 CURVE SMOOTH",
"429 144 OFFCURVE",
"375 61 OFFCURVE",
"272 61 CURVE SMOOTH",
"172 61 OFFCURVE",
"118 148 OFFCURVE",
"118 240 CURVE SMOOTH",
"118 328 OFFCURVE",
"178 409 OFFCURVE",
"271 409 CURVE SMOOTH"
);
},
{
closed = 1;
nodes = (
"505 470 LINE",
"425 470 LINE",
"425 403 LINE",
"423 403 LINE",
"384 453 OFFCURVE",
"326 483 OFFCURVE",
"262 483 CURVE SMOOTH",
"121 483 OFFCURVE",
"36 368 OFFCURVE",
"36 234 CURVE SMOOTH",
"36 104 OFFCURVE",
"123 -13 OFFCURVE",
"261 -13 CURVE SMOOTH",
"327 -13 OFFCURVE",
"382 13 OFFCURVE",
"423 65 CURVE",
"425 65 LINE",
"425 0 LINE",
"505 0 LINE"
);
},
{
closed = 1;
nodes = (
"132 604 LINE",
"189 559 LINE",
"288 644 LINE",
"388 559 LINE",
"446 604 LINE",
"288 737 LINE"
);
}
);
width = 577;
}
);
leftKerningGroupId = "@MMK_R_a";
unicode = 00E2;
},
{
changeCount = 1;
color = 6;
glyphname = adieresis;
layers = (
{
background = {
paths = (
{
closed = 1;
nodes = (
"370 409 OFFCURVE",
"429 333 OFFCURVE",
"429 239 CURVE SMOOTH",
"429 144 OFFCURVE",
"375 61 OFFCURVE",
"272 61 CURVE SMOOTH",
"172 61 OFFCURVE",
"118 148 OFFCURVE",
"118 240 CURVE SMOOTH",
"118 328 OFFCURVE",
"178 409 OFFCURVE",
"271 409 CURVE SMOOTH"
);
},
{
closed = 1;
nodes = (
"505 470 LINE",
"425 470 LINE",
"425 403 LINE",
"423 403 LINE",
"384 453 OFFCURVE",
"326 483 OFFCURVE",
"262 483 CURVE SMOOTH",
"121 483 OFFCURVE",
"36 368 OFFCURVE",
"36 234 CURVE SMOOTH",
"36 104 OFFCURVE",
"123 -13 OFFCURVE",
"261 -13 CURVE SMOOTH",
"327 -13 OFFCURVE",
"382 13 OFFCURVE",
"423 65 CURVE",
"425 65 LINE",
"425 0 LINE",
"505 0 LINE"
);
},
{
closed = 1;
nodes = (
"160 705 OFFCURVE",
"136 681 OFFCURVE",
"136 651 CURVE SMOOTH",
"136 621 OFFCURVE",
"160 597 OFFCURVE",
"190 597 CURVE SMOOTH",
"220 597 OFFCURVE",
"244 621 OFFCURVE",
"244 651 CURVE SMOOTH",
"244 681 OFFCURVE",
"220 705 OFFCURVE",
"190 705 CURVE SMOOTH"
);
},
{
closed = 1;
nodes = (
"357 705 OFFCURVE",
"333 681 OFFCURVE",
"333 651 CURVE SMOOTH",
"333 621 OFFCURVE",
"357 597 OFFCURVE",
"387 597 CURVE SMOOTH",
"417 597 OFFCURVE",
"441 621 OFFCURVE",
"441 651 CURVE SMOOTH",
"441 681 OFFCURVE",
"417 705 OFFCURVE",
"387 705 CURVE SMOOTH"
);
}
);
};
layerId = "A4368790-3638-4B5D-B474-0996C59BD988";
name = Regular;
paths = (
{
closed = 1;
nodes = (
"496 271 LINE",
"458 15 LINE",
"458 446 LINE"
);
},
{
closed = 1;
nodes = (
"458 240 LINE",
"457 268 LINE",
"445 390 OFFCURVE",
"347 446 OFFCURVE",
"273 446 CURVE SMOOTH",
"155 446 OFFCURVE",
"82 348 OFFCURVE",
"82 236 CURVE SMOOTH",
"82 122 OFFCURVE",
"151 24 OFFCURVE",
"273 24 CURVE SMOOTH",
"350 24 OFFCURVE",
"445 81 OFFCURVE",
"457 214 CURVE"
);
},
{
closed = 1;
nodes = (
"193 652 LINE SMOOTH",
"182 651 LINE",
"182 662 LINE"
);
},
{
closed = 1;
nodes = (
"392 652 LINE",
"381 651 LINE",
"381 662 LINE"
);
}
);
width = 577;
}
);
leftKerningGroupId = "@MMK_R_a";
unicode = 00E4;
},
{
changeCount = 0;
export = 0;
glyphname = ae;
layers = (
{
layerId = "A4368790-3638-4B5D-B474-0996C59BD988";
name = Regular;
paths = (
{
closed = 1;
nodes = (
"447 286 LINE",
"457 354 OFFCURVE",
"521 409 OFFCURVE",
"590 409 CURVE SMOOTH",
"660 409 OFFCURVE",
"717 354 OFFCURVE",
"728 286 CURVE"
);
},
{
closed = 1;
nodes = (
"275 223 OFFCURVE",
"354 205 OFFCURVE",
"354 144 CURVE SMOOTH",
"354 79 OFFCURVE",
"280 61 OFFCURVE",
"227 61 CURVE SMOOTH",
"176 61 OFFCURVE",
"109 79 OFFCURVE",
"109 140 CURVE SMOOTH",
"109 200 OFFCURVE",
"178 223 OFFCURVE",
"228 223 CURVE SMOOTH"
);
},
{
closed = 1;
nodes = (
"809 218 LINE",
"815 358 OFFCURVE",
"736 483 OFFCURVE",
"585 483 CURVE SMOOTH",
"515 483 OFFCURVE",
"440 448 OFFCURVE",
"403 386 CURVE",
"373 453 OFFCURVE",
"299 483 OFFCURVE",
"229 483 CURVE SMOOTH",
"177 483 OFFCURVE",
"130 470 OFFCURVE",
"80 455 CURVE",
"80 379 LINE",
"127 395 OFFCURVE",
"175 409 OFFCURVE",
"224 409 CURVE SMOOTH",
"326 409 OFFCURVE",
"358 347 OFFCURVE",
"359 254 CURVE",
"316 283 OFFCURVE",
"277 294 OFFCURVE",
"225 294 CURVE SMOOTH",
"131 294 OFFCURVE",
"29 247 OFFCURVE",
"29 138 CURVE SMOOTH",
"29 29 OFFCURVE",
"137 -13 OFFCURVE",
"231 -13 CURVE SMOOTH",
"308 -13 OFFCURVE",
"368 12 OFFCURVE",
"407 80 CURVE",
"449 18 OFFCURVE",
"517 -13 OFFCURVE",
"587 -13 CURVE SMOOTH",
"683 -13 OFFCURVE",
"759 35 OFFCURVE",
"804 119 CURVE",
"736 158 LINE",
"705 102 OFFCURVE",
"661 61 OFFCURVE",
"593 61 CURVE SMOOTH",
"502 61 OFFCURVE",
"440 131 OFFCURVE",
"439 218 CURVE"
);
}
);
width = 843;
}
);
leftKerningGroupId = "@MMK_R_a";
unicode = 00E6;
},
{
changeCount = 0;
export = 0;
glyphname = agrave;
layers = (
{
layerId = "A4368790-3638-4B5D-B474-0996C59BD988";
name = Regular;
paths = (
{
closed = 1;
nodes = (
"370 409 OFFCURVE",
"429 333 OFFCURVE",
"429 239 CURVE SMOOTH",
"429 144 OFFCURVE",
"375 61 OFFCURVE",
"272 61 CURVE SMOOTH",
"172 61 OFFCURVE",
"118 148 OFFCURVE",
"118 240 CURVE SMOOTH",
"118 328 OFFCURVE",
"178 409 OFFCURVE",
"271 409 CURVE SMOOTH"
);
},
{
closed = 1;
nodes = (
"505 470 LINE",
"425 470 LINE",
"425 403 LINE",
"423 403 LINE",
"384 453 OFFCURVE",
"326 483 OFFCURVE",
"262 483 CURVE SMOOTH",
"121 483 OFFCURVE",
"36 368 OFFCURVE",
"36 234 CURVE SMOOTH",
"36 104 OFFCURVE",
"123 -13 OFFCURVE",
"261 -13 CURVE SMOOTH",
"327 -13 OFFCURVE",
"382 13 OFFCURVE",
"423 65 CURVE",
"425 65 LINE",
"425 0 LINE",
"505 0 LINE"
);
},
{
closed = 1;
nodes = (
"148 706 LINE",
"301 552 LINE",
"351 580 LINE",
"232 744 LINE"
);
}
);
width = 577;
}
);
leftKerningGroupId = "@MMK_R_a";
unicode = 00E0;
},
{
changeCount = 0;
export = 0;
glyphname = aring;
layers = (
{
layerId = "A4368790-3638-4B5D-B474-0996C59BD988";
name = Regular;
paths = (
{
closed = 1;
nodes = (
"370 409 OFFCURVE",
"429 333 OFFCURVE",
"429 239 CURVE SMOOTH",
"429 144 OFFCURVE",
"375 61 OFFCURVE",
"272 61 CURVE SMOOTH",
"172 61 OFFCURVE",
"118 148 OFFCURVE",
"118 240 CURVE SMOOTH",
"118 328 OFFCURVE",
"178 409 OFFCURVE",
"271 409 CURVE SMOOTH"
);
},
{
closed = 1;
nodes = (
"505 470 LINE",
"425 470 LINE",
"425 403 LINE",
"423 403 LINE",
"384 453 OFFCURVE",
"326 483 OFFCURVE",
"262 483 CURVE SMOOTH",
"121 483 OFFCURVE",
"36 368 OFFCURVE",
"36 234 CURVE SMOOTH",
"36 104 OFFCURVE",
"123 -13 OFFCURVE",
"261 -13 CURVE SMOOTH",
"327 -13 OFFCURVE",
"382 13 OFFCURVE",
"423 65 CURVE",
"425 65 LINE",
"425 0 LINE",
"505 0 LINE"
);
},
{
closed = 1;
nodes = (
"236 747 OFFCURVE",
"192 703 OFFCURVE",
"192 650 CURVE SMOOTH",
"192 596 OFFCURVE",
"236 552 OFFCURVE",
"290 552 CURVE SMOOTH",
"344 552 OFFCURVE",
"387 596 OFFCURVE",
"387 650 CURVE SMOOTH",
"387 703 OFFCURVE",
"343 747 OFFCURVE",
"290 747 CURVE SMOOTH"
);
},
{
closed = 1;
nodes = (
"316 697 OFFCURVE",
"337 676 OFFCURVE",
"337 650 CURVE SMOOTH",
"337 624 OFFCURVE",
"316 602 OFFCURVE",
"290 602 CURVE SMOOTH",
"264 602 OFFCURVE",
"242 624 OFFCURVE",
"242 650 CURVE SMOOTH",
"242 676 OFFCURVE",
"264 697 OFFCURVE",
"290 697 CURVE SMOOTH"
);
}
);
width = 577;
}
);
leftKerningGroupId = "@MMK_R_a";
unicode = 00E5;
},
{
changeCount = 0;
export = 0;
glyphname = atilde;
layers = (
{
layerId = "A4368790-3638-4B5D-B474-0996C59BD988";
name = Regular;
paths = (
{
closed = 1;
nodes = (
"370 409 OFFCURVE",
"429 333 OFFCURVE",
"429 239 CURVE SMOOTH",
"429 144 OFFCURVE",
"375 61 OFFCURVE",
"272 61 CURVE SMOOTH",
"172 61 OFFCURVE",
"118 148 OFFCURVE",
"118 240 CURVE SMOOTH",
"118 328 OFFCURVE",
"178 409 OFFCURVE",
"271 409 CURVE SMOOTH"
);
},
{
closed = 1;
nodes = (
"505 470 LINE",
"425 470 LINE",
"425 403 LINE",
"423 403 LINE",
"384 453 OFFCURVE",
"326 483 OFFCURVE",
"262 483 CURVE SMOOTH",
"121 483 OFFCURVE",
"36 368 OFFCURVE",
"36 234 CURVE SMOOTH",
"36 104 OFFCURVE",
"123 -13 OFFCURVE",
"261 -13 CURVE SMOOTH",
"327 -13 OFFCURVE",
"382 13 OFFCURVE",
"423 65 CURVE",
"425 65 LINE",
"425 0 LINE",
"505 0 LINE"
);
},
{
closed = 1;
nodes = (
"163 588 LINE",
"173 610 OFFCURVE",
"185 634 OFFCURVE",
"213 634 CURVE SMOOTH",
"234 634 OFFCURVE",
"258 623 OFFCURVE",
"283 612 CURVE SMOOTH",
"308 600 OFFCURVE",
"334 589 OFFCURVE",
"358 589 CURVE SMOOTH",
"407 589 OFFCURVE",
"446 626 OFFCURVE",
"464 670 CURVE",
"417 708 LINE",
"405 686 OFFCURVE",
"389 660 OFFCURVE",
"361 660 CURVE SMOOTH",
"343 660 OFFCURVE",
"322 672 OFFCURVE",
"297 683 CURVE",
"273 695 OFFCURVE",
"246 706 OFFCURVE",
"216 706 CURVE SMOOTH",
"166 706 OFFCURVE",
"137 667 OFFCURVE",
"114 627 CURVE"
);
}
);
width = 577;
}
);
leftKerningGroupId = "@MMK_R_a";
unicode = 00E3;
},
{
changeCount = 1;
color = 6;
glyphname = b;
layers = (
{
background = {
paths = (
{
closed = 1;
nodes = (
"400 409 OFFCURVE",
"459 333 OFFCURVE",
"459 239 CURVE SMOOTH",
"459 144 OFFCURVE",
"405 61 OFFCURVE",
"302 61 CURVE SMOOTH",
"202 61 OFFCURVE",
"148 148 OFFCURVE",
"148 240 CURVE SMOOTH",
"148 328 OFFCURVE",
"208 409 OFFCURVE",
"301 409 CURVE SMOOTH"
);
},
{
closed = 1;
nodes = (
"72 0 LINE",
"152 0 LINE",
"152 65 LINE",
"154 65 LINE",
"192 14 OFFCURVE",
"251 -13 OFFCURVE",
"316 -13 CURVE SMOOTH",
"454 -13 OFFCURVE",
"541 104 OFFCURVE",
"541 235 CURVE SMOOTH",
"541 368 OFFCURVE",
"455 483 OFFCURVE",
"315 483 CURVE SMOOTH",
"251 483 OFFCURVE",
"192 453 OFFCURVE",
"154 403 CURVE",
"152 403 LINE",
"152 825 LINE",
"72 825 LINE"
);
}
);
};
layerId = "A4368790-3638-4B5D-B474-0996C59BD988";
name = Regular;
paths = (
{
closed = 1;
nodes = (
"83 270 LINE",
"116 22 LINE",
"116 805 LINE"
);
},
{
closed = 1;
nodes = (
"116 239 LINE",
"117 267 LINE",
"129 389 OFFCURVE",
"227 445 OFFCURVE",
"301 445 CURVE SMOOTH",
"419 445 OFFCURVE",
"492 347 OFFCURVE",
"492 235 CURVE SMOOTH",
"492 121 OFFCURVE",
"423 23 OFFCURVE",
"301 23 CURVE SMOOTH",
"224 23 OFFCURVE",
"129 80 OFFCURVE",
"117 213 CURVE"
);
}
);
width = 577;
}
);
unicode = 0062;
},
{
changeCount = 1;
color = 6;
glyphname = c;
layers = (
{
background = {
paths = (
{
closed = 1;
nodes = (
"425 436 LINE",
"383 466 OFFCURVE",
"331 483 OFFCURVE",
"280 483 CURVE SMOOTH",
"142 483 OFFCURVE",
"29 375 OFFCURVE",
"29 235 CURVE SMOOTH",
"29 93 OFFCURVE",
"137 -13 OFFCURVE",
"279 -13 CURVE SMOOTH",
"335 -13 OFFCURVE",
"382 4 OFFCURVE",
"428 35 CURVE",
"428 142 LINE",
"426 142 LINE",
"387 91 OFFCURVE",
"340 61 OFFCURVE",
"273 61 CURVE SMOOTH",
"175 61 OFFCURVE",
"111 142 OFFCURVE",
"111 235 CURVE SMOOTH",
"111 329 OFFCURVE",
"180 409 OFFCURVE",
"277 409 CURVE SMOOTH",
"340 409 OFFCURVE",
"386 377 OFFCURVE",
"423 330 CURVE",
"425 330 LINE"
);
}
);
};
layerId = "A4368790-3638-4B5D-B474-0996C59BD988";
name = Regular;
paths = (
{
closed = 1;
nodes = (
"382 221 LINE",
"401 402 LINE",
"367 429 OFFCURVE",
"323 445 OFFCURVE",
"274 445 CURVE SMOOTH",
"156 445 OFFCURVE",
"67 350 OFFCURVE",
"67 234 CURVE SMOOTH",
"67 117 OFFCURVE",
"156 23 OFFCURVE",
"274 23 CURVE SMOOTH",
"320 23 OFFCURVE",
"361 37 OFFCURVE",
"395 61 CURVE"
);
}
);
width = 476;
}
);
leftKerningGroupId = "@MMK_R_c";
unicode = 0063;
},
{
changeCount = 0;
export = 0;
glyphname = ccedilla;
layers = (
{
layerId = "A4368790-3638-4B5D-B474-0996C59BD988";
name = Regular;
paths = (
{
closed = 1;
nodes = (
"425 436 LINE",
"383 466 OFFCURVE",
"331 483 OFFCURVE",
"280 483 CURVE SMOOTH",
"142 483 OFFCURVE",
"29 375 OFFCURVE",
"29 235 CURVE SMOOTH",
"29 93 OFFCURVE",
"137 -13 OFFCURVE",
"279 -13 CURVE SMOOTH",
"335 -13 OFFCURVE",
"382 4 OFFCURVE",
"428 35 CURVE",
"428 142 LINE",
"426 142 LINE",
"387 91 OFFCURVE",
"340 61 OFFCURVE",
"273 61 CURVE SMOOTH",
"175 61 OFFCURVE",
"111 142 OFFCURVE",
"111 235 CURVE SMOOTH",
"111 329 OFFCURVE",
"180 409 OFFCURVE",
"277 409 CURVE SMOOTH",
"340 409 OFFCURVE",
"386 377 OFFCURVE",
"423 330 CURVE",
"425 330 LINE"
);
},
{
closed = 1;
nodes = (
"324 -53 LINE",
"250 -23 LINE",
"154 -171 LINE",
"210 -199 LINE"
);
}
);
width = 476;
}
);
leftKerningGroupId = "@MMK_R_c";
unicode = 00E7;
},
{
changeCount = 1;
color = 6;
glyphname = d;
layers = (
{
background = {
paths = (
{
closed = 1;
nodes = (
"370 409 OFFCURVE",
"429 333 OFFCURVE",
"429 239 CURVE SMOOTH",
"429 144 OFFCURVE",
"375 61 OFFCURVE",
"272 61 CURVE SMOOTH",
"172 61 OFFCURVE",
"118 148 OFFCURVE",
"118 240 CURVE SMOOTH",
"118 328 OFFCURVE",
"178 409 OFFCURVE",
"271 409 CURVE SMOOTH"
);
},
{
closed = 1;
nodes = (
"425 0 LINE",
"505 0 LINE",
"505 825 LINE",
"425 825 LINE",
"425 403 LINE",
"423 403 LINE",
"385 453 OFFCURVE",
"325 483 OFFCURVE",
"262 483 CURVE SMOOTH",
"121 483 OFFCURVE",
"36 368 OFFCURVE",
"36 234 CURVE SMOOTH",
"36 104 OFFCURVE",
"123 -13 OFFCURVE",
"261 -13 CURVE SMOOTH",
"325 -13 OFFCURVE",
"384 14 OFFCURVE",
"423 65 CURVE",
"425 65 LINE"
);
}
);
};
layerId = "A4368790-3638-4B5D-B474-0996C59BD988";
name = Regular;
paths = (
{
closed = 1;
nodes = (
"465 242 LINE",
"464 270 LINE",
"452 392 OFFCURVE",
"354 448 OFFCURVE",
"280 448 CURVE SMOOTH",
"162 448 OFFCURVE",
"89 350 OFFCURVE",
"89 238 CURVE SMOOTH",
"89 124 OFFCURVE",
"158 26 OFFCURVE",
"280 26 CURVE SMOOTH",
"357 26 OFFCURVE",
"452 83 OFFCURVE",
"464 216 CURVE"
);
},
{
closed = 1;
nodes = (
"498 273 LINE",
"465 20 LINE",
"465 805 LINE"
);
}
);
width = 577;
}
);
unicode = 0064;
},
{
changeCount = 0;
export = 0;
glyphname = dotlessi;
layers = (
{
layerId = "A4368790-3638-4B5D-B474-0996C59BD988";
name = Regular;
paths = (
{
closed = 1;
nodes = (
"171 470 LINE",
"91 470 LINE",
"91 0 LINE",
"171 0 LINE"
);
}
);
width = 262;
}
);
unicode = 0131;
},
{
changeCount = 1;
color = 6;
glyphname = e;
layers = (
{
background = {
paths = (
{
closed = 1;
nodes = (
"485 218 LINE",
"493 358 OFFCURVE",
"413 483 OFFCURVE",
"262 483 CURVE SMOOTH",
"115 483 OFFCURVE",
"34 368 OFFCURVE",
"34 229 CURVE SMOOTH",
"34 94 OFFCURVE",
"124 -13 OFFCURVE",
"264 -13 CURVE SMOOTH",
"360 -13 OFFCURVE",
"436 35 OFFCURVE",
"481 119 CURVE",
"413 158 LINE",
"382 102 OFFCURVE",
"338 61 OFFCURVE",
"270 61 CURVE SMOOTH",
"179 61 OFFCURVE",
"117 131 OFFCURVE",
"116 218 CURVE"
);
},
{
closed = 1;
nodes = (
"120 286 LINE",
"130 354 OFFCURVE",
"194 409 OFFCURVE",
"263 409 CURVE SMOOTH",
"333 409 OFFCURVE",
"390 354 OFFCURVE",
"401 286 CURVE"
);
}
);
};
layerId = "A4368790-3638-4B5D-B474-0996C59BD988";
name = Regular;
paths = (
{
closed = 1;
nodes = (
"287 181 LINE",
"71 250 LINE",
"450 250 LINE",
"442 358 OFFCURVE",
"364 446 OFFCURVE",
"261 446 CURVE SMOOTH",
"152 446 OFFCURVE",
"70 351 OFFCURVE",
"70 234 CURVE SMOOTH",
"70 117 OFFCURVE",
"152 24 OFFCURVE",
"261 24 CURVE SMOOTH",
"335 24 OFFCURVE",
"400 61 OFFCURVE",
"433 115 CURVE"
);
}
);
width = 519;
}
);
leftKerningGroupId = "@MMK_R_e";
unicode = 0065;
},
{
changeCount = 0;
export = 0;
glyphname = eacute;
layers = (
{
layerId = "A4368790-3638-4B5D-B474-0996C59BD988";
name = Regular;
paths = (
{
closed = 1;
nodes = (
"485 218 LINE",
"493 358 OFFCURVE",
"413 483 OFFCURVE",
"262 483 CURVE SMOOTH",
"115 483 OFFCURVE",
"34 368 OFFCURVE",
"34 229 CURVE SMOOTH",
"34 94 OFFCURVE",
"124 -13 OFFCURVE",
"264 -13 CURVE SMOOTH",
"360 -13 OFFCURVE",
"436 35 OFFCURVE",
"481 119 CURVE",
"413 158 LINE",
"382 102 OFFCURVE",
"338 61 OFFCURVE",
"270 61 CURVE SMOOTH",
"179 61 OFFCURVE",
"117 131 OFFCURVE",
"116 218 CURVE"
);
},
{
closed = 1;
nodes = (
"120 286 LINE",
"130 354 OFFCURVE",
"194 409 OFFCURVE",
"263 409 CURVE SMOOTH",
"333 409 OFFCURVE",
"390 354 OFFCURVE",
"401 286 CURVE"
);
},
{
closed = 1;
nodes = (
"318 744 LINE",
"199 580 LINE",
"249 552 LINE",
"402 706 LINE"
);
}
);
width = 519;
}
);
unicode = 00E9;
},
{
changeCount = 0;
export = 0;
glyphname = ecircumflex;
layers = (
{
layerId = "A4368790-3638-4B5D-B474-0996C59BD988";
name = Regular;
paths = (
{
closed = 1;
nodes = (
"485 218 LINE",
"493 358 OFFCURVE",
"413 483 OFFCURVE",
"262 483 CURVE SMOOTH",
"115 483 OFFCURVE",
"34 368 OFFCURVE",
"34 229 CURVE SMOOTH",
"34 94 OFFCURVE",
"124 -13 OFFCURVE",
"264 -13 CURVE SMOOTH",
"360 -13 OFFCURVE",
"436 35 OFFCURVE",
"481 119 CURVE",
"413 158 LINE",
"382 102 OFFCURVE",
"338 61 OFFCURVE",
"270 61 CURVE SMOOTH",
"179 61 OFFCURVE",
"117 131 OFFCURVE",
"116 218 CURVE"
);
},
{
closed = 1;
nodes = (
"120 286 LINE",
"130 354 OFFCURVE",
"194 409 OFFCURVE",
"263 409 CURVE SMOOTH",
"333 409 OFFCURVE",
"390 354 OFFCURVE",
"401 286 CURVE"
);
},
{
closed = 1;
nodes = (
"103 604 LINE",
"160 559 LINE",
"259 644 LINE",
"359 559 LINE",
"417 604 LINE",
"259 737 LINE"
);
}
);
width = 519;
}
);
unicode = 00EA;
},
{
changeCount = 0;
export = 0;
glyphname = edieresis;
layers = (
{
layerId = "A4368790-3638-4B5D-B474-0996C59BD988";
name = Regular;
paths = (
{
closed = 1;
nodes = (
"485 218 LINE",
"493 358 OFFCURVE",
"413 483 OFFCURVE",
"262 483 CURVE SMOOTH",
"115 483 OFFCURVE",
"34 368 OFFCURVE",
"34 229 CURVE SMOOTH",
"34 94 OFFCURVE",
"124 -13 OFFCURVE",
"264 -13 CURVE SMOOTH",
"360 -13 OFFCURVE",
"436 35 OFFCURVE",
"481 119 CURVE",
"413 158 LINE",
"382 102 OFFCURVE",
"338 61 OFFCURVE",
"270 61 CURVE SMOOTH",
"179 61 OFFCURVE",
"117 131 OFFCURVE",
"116 218 CURVE"
);
},
{
closed = 1;
nodes = (
"120 286 LINE",
"130 354 OFFCURVE",
"194 409 OFFCURVE",
"263 409 CURVE SMOOTH",
"333 409 OFFCURVE",
"390 354 OFFCURVE",
"401 286 CURVE"
);
},
{
closed = 1;
nodes = (
"131 705 OFFCURVE",
"107 681 OFFCURVE",
"107 651 CURVE SMOOTH",
"107 621 OFFCURVE",
"131 597 OFFCURVE",
"161 597 CURVE SMOOTH",
"191 597 OFFCURVE",
"215 621 OFFCURVE",
"215 651 CURVE SMOOTH",
"215 681 OFFCURVE",
"191 705 OFFCURVE",
"161 705 CURVE SMOOTH"
);
},
{
closed = 1;
nodes = (
"328 705 OFFCURVE",
"304 681 OFFCURVE",
"304 651 CURVE SMOOTH",
"304 621 OFFCURVE",
"328 597 OFFCURVE",
"358 597 CURVE SMOOTH",
"388 597 OFFCURVE",
"412 621 OFFCURVE",
"412 651 CURVE SMOOTH",
"412 681 OFFCURVE",
"388 705 OFFCURVE",
"358 705 CURVE SMOOTH"
);
}
);
width = 519;
}
);
unicode = 00EB;
},
{
changeCount = 0;
export = 0;
glyphname = egrave;
layers = (
{
layerId = "A4368790-3638-4B5D-B474-0996C59BD988";
name = Regular;
paths = (
{
closed = 1;
nodes = (
"485 218 LINE",
"493 358 OFFCURVE",
"413 483 OFFCURVE",
"262 483 CURVE SMOOTH",
"115 483 OFFCURVE",
"34 368 OFFCURVE",
"34 229 CURVE SMOOTH",
"34 94 OFFCURVE",
"124 -13 OFFCURVE",
"264 -13 CURVE SMOOTH",
"360 -13 OFFCURVE",
"436 35 OFFCURVE",
"481 119 CURVE",
"413 158 LINE",
"382 102 OFFCURVE",
"338 61 OFFCURVE",
"270 61 CURVE SMOOTH",
"179 61 OFFCURVE",
"117 131 OFFCURVE",
"116 218 CURVE"
);
},
{
closed = 1;
nodes = (
"120 286 LINE",
"130 354 OFFCURVE",
"194 409 OFFCURVE",
"263 409 CURVE SMOOTH",
"333 409 OFFCURVE",
"390 354 OFFCURVE",
"401 286 CURVE"
);
},
{
closed = 1;
nodes = (
"119 706 LINE",
"272 552 LINE",
"322 580 LINE",
"203 744 LINE"
);
}
);
width = 519;
}
);
unicode = 00E8;
},
{
changeCount = 0;
export = 0;
glyphname = eth;
layers = (
{
layerId = "A4368790-3638-4B5D-B474-0996C59BD988";
name = Regular;
paths = (
{
closed = 1;
nodes = (
"93 785 LINE",
"166 740 OFFCURVE",
"201 710 OFFCURVE",
"218 695 CURVE",
"88 608 LINE",
"127 567 LINE",
"260 656 LINE",
"332 589 OFFCURVE",
"396 510 OFFCURVE",
"429 417 CURVE",
"409 436 OFFCURVE",
"362 481 OFFCURVE",
"273 481 CURVE SMOOTH",
"130 481 OFFCURVE",
"34 361 OFFCURVE",
"34 235 CURVE SMOOTH",
"34 99 OFFCURVE",
"143 -12 OFFCURVE",
"281 -12 CURVE SMOOTH",
"391 -12 OFFCURVE",
"527 68 OFFCURVE",
"527 256 CURVE SMOOTH",
"527 493 OFFCURVE",
"367 646 OFFCURVE",
"318 694 CURVE",
"452 784 LINE",
"412 825 LINE",
"274 733 LINE",
"228 772 OFFCURVE",
"204 788 OFFCURVE",
"137 831 CURVE"
);
},
{
closed = 1;
nodes = (
"115 334 OFFCURVE",
"185 410 OFFCURVE",
"283 410 CURVE SMOOTH",
"382 410 OFFCURVE",
"448 328 OFFCURVE",
"448 236 CURVE SMOOTH",
"448 142 OFFCURVE",
"381 62 OFFCURVE",
"282 62 CURVE SMOOTH",
"190 62 OFFCURVE",
"115 133 OFFCURVE",
"115 236 CURVE SMOOTH"
);
}
);
width = 561;
}
);
unicode = 00F0;
},
{
changeCount = 1;
color = 6;
glyphname = f;
layers = (
{
background = {
paths = (
{
closed = 1;
nodes = (
"163 396 LINE",
"282 396 LINE",
"282 470 LINE",
"163 470 LINE",
"163 629 LINE SMOOTH",
"163 712 OFFCURVE",
"163 758 OFFCURVE",
"228 758 CURVE SMOOTH",
"248 758 OFFCURVE",
"264 753 OFFCURVE",
"282 747 CURVE",
"282 828 LINE",
"263 834 OFFCURVE",
"244 838 OFFCURVE",
"225 838 CURVE SMOOTH",
"177 838 OFFCURVE",
"130 821 OFFCURVE",
"104 779 CURVE SMOOTH",
"83 745 OFFCURVE",
"83 696 OFFCURVE",
"83 657 CURVE SMOOTH",
"83 470 LINE",
"39 470 LINE",
"39 396 LINE",
"83 396 LINE",
"83 0 LINE",
"163 0 LINE"
);
}
);
};
layerId = "A4368790-3638-4B5D-B474-0996C59BD988";
name = Regular;
paths = (
{
closed = 1;
nodes = (
"221 217 LINE",
"261 801 LINE",
"109 821 OFFCURVE",
"124 685 OFFCURVE",
"124 639 CURVE SMOOTH",
"124 20 LINE"
);
},
{
closed = 1;
nodes = (
"158 399 LINE",
"260 433 LINE",
"51 433 LINE"
);
}
);
width = 274;
}
);
rightKerningGroupId = "@MMK_L_f";
unicode = 0066;
},
{
changeCount = 1;
color = 6;
glyphname = g;
layers = (
{
background = {
paths = (
{
closed = 1;
nodes = (
"365 409 OFFCURVE",
"424 333 OFFCURVE",
"424 239 CURVE SMOOTH",
"424 144 OFFCURVE",
"370 61 OFFCURVE",
"267 61 CURVE SMOOTH",
"167 61 OFFCURVE",
"113 148 OFFCURVE",
"113 240 CURVE SMOOTH",
"113 328 OFFCURVE",
"173 409 OFFCURVE",
"266 409 CURVE SMOOTH"
);
},
{
closed = 1;
nodes = (
"500 470 LINE",
"420 470 LINE",
"420 403 LINE",
"418 403 LINE",
"380 454 OFFCURVE",
"323 483 OFFCURVE",
"258 483 CURVE SMOOTH",
"119 483 OFFCURVE",
"31 365 OFFCURVE",
"31 233 CURVE SMOOTH",
"31 102 OFFCURVE",
"118 -13 OFFCURVE",
"255 -13 CURVE SMOOTH",
"318 -13 OFFCURVE",
"380 16 OFFCURVE",
"418 65 CURVE",
"420 65 LINE",
"420 9 LINE SMOOTH",
"420 -97 OFFCURVE",
"393 -188 OFFCURVE",
"269 -188 CURVE SMOOTH",
"183 -188 OFFCURVE",
"120 -133 OFFCURVE",
"119 -46 CURVE",
"39 -46 LINE",
"42 -179 OFFCURVE",
"139 -262 OFFCURVE",
"270 -262 CURVE SMOOTH",
"340 -262 OFFCURVE",
"408 -235 OFFCURVE",
"452 -179 CURVE SMOOTH",
"500 -117 OFFCURVE",
"500 -52 OFFCURVE",
"500 23 CURVE SMOOTH"
);
}
);
};
layerId = "A4368790-3638-4B5D-B474-0996C59BD988";
name = Regular;
paths = (
{
closed = 1;
nodes = (
"286 -59 LINE",
"91 -66 LINE",
"107 -159 OFFCURVE",
"173 -231 OFFCURVE",
"278 -231 CURVE SMOOTH",
"355 -231 OFFCURVE",
"462 -155 OFFCURVE",
"461 -41 CURVE",
"462 450 LINE"
);
},
{
closed = 1;
nodes = (
"462 237 LINE",
"461 265 LINE",
"449 388 OFFCURVE",
"351 443 OFFCURVE",
"277 443 CURVE SMOOTH",
"159 443 OFFCURVE",
"86 346 OFFCURVE",
"86 234 CURVE SMOOTH",
"86 119 OFFCURVE",
"155 21 OFFCURVE",
"277 21 CURVE SMOOTH",
"354 21 OFFCURVE",
"449 78 OFFCURVE",
"461 211 CURVE"
);
}
);
width = 580;
}
);
unicode = 0067;
},
{
changeCount = 1;
color = 6;
glyphname = germandbls;
layers = (
{
background = {
paths = (
{
closed = 1;
nodes = (
"72 0 LINE",
"152 0 LINE",
"152 577 LINE SMOOTH",
"152 614 OFFCURVE",
"151 670 OFFCURVE",
"165 704 CURVE SMOOTH",
"181 746 OFFCURVE",
"226 764 OFFCURVE",
"269 764 CURVE SMOOTH",
"334 764 OFFCURVE",
"384 720 OFFCURVE",
"384 654 CURVE SMOOTH",
"384 578 OFFCURVE",
"328 531 OFFCURVE",
"254 532 CURVE",
"254 458 LINE",
"301 454 OFFCURVE",
"350 443 OFFCURVE",
"388 414 CURVE SMOOTH",
"433 379 OFFCURVE",
"459 322 OFFCURVE",
"459 266 CURVE SMOOTH",
"459 151 OFFCURVE",
"366 68 OFFCURVE",
"254 61 CURVE",
"254 -13 LINE",
"406 -11 OFFCURVE",
"541 107 OFFCURVE",
"541 263 CURVE SMOOTH",
"541 365 OFFCURVE",
"479 470 OFFCURVE",
"380 504 CURVE",
"434 531 OFFCURVE",
"464 590 OFFCURVE",
"464 650 CURVE SMOOTH",
"464 760 OFFCURVE",
"379 838 OFFCURVE",
"270 838 CURVE SMOOTH",
"212 838 OFFCURVE",
"148 816 OFFCURVE",
"111 768 CURVE SMOOTH",
"77 725 OFFCURVE",
"72 667 OFFCURVE",
"72 614 CURVE SMOOTH",
"72 470 LINE",
"28 470 LINE",
"28 396 LINE",
"72 396 LINE"
);
}
);
};
layerId = "A4368790-3638-4B5D-B474-0996C59BD988";
name = Regular;
paths = (
{
closed = 1;
nodes = (
"209 84 LINE",
"275 24 LINE",
"354 36 OFFCURVE",
"500 108 OFFCURVE",
"500 259 CURVE SMOOTH",
"500 408 OFFCURVE",
"386 493 OFFCURVE",
"260 493 CURVE",
"396 493 OFFCURVE",
"421 610 OFFCURVE",
"421 658 CURVE SMOOTH",
"421 705 OFFCURVE",
"393 801 OFFCURVE",
"262 801 CURVE SMOOTH",
"131 801 OFFCURVE",
"111 679 OFFCURVE",
"111 634 CURVE SMOOTH",
"111 589 OFFCURVE",
"111 20 OFFCURVE",
"111 20 CURVE"
);
},
{
closed = 1;
nodes = (
"82 478 LINE",
"48 433 LINE",
"111 433 LINE"
);
}
);
width = 577;
}
);
unicode = 00DF;
},
{
changeCount = 1;
color = 6;
glyphname = h;
layers = (
{
background = {
paths = (
{
closed = 1;
nodes = (
"76 825 LINE",
"76 0 LINE",
"156 0 LINE",
"156 223 LINE SMOOTH",
"156 307 OFFCURVE",
"163 409 OFFCURVE",
"273 409 CURVE SMOOTH",
"366 409 OFFCURVE",
"372 341 OFFCURVE",
"372 265 CURVE SMOOTH",
"372 0 LINE",
"452 0 LINE",
"452 279 LINE SMOOTH",
"452 389 OFFCURVE",
"422 483 OFFCURVE",
"292 483 CURVE SMOOTH",
"234 483 OFFCURVE",
"191 458 OFFCURVE",
"158 413 CURVE",
"156 415 LINE",
"156 825 LINE"
);
}
);
};
layerId = "A4368790-3638-4B5D-B474-0996C59BD988";
name = Regular;
paths = (
{
closed = 1;
nodes = (
"256 129 LINE",
"414 20 LINE",
"414 267 LINE SMOOTH",
"414 360 OFFCURVE",
"395 453 OFFCURVE",
"283 453 CURVE SMOOTH",
"227 453 OFFCURVE",
"182 417 OFFCURVE",
"158 379 CURVE SMOOTH",
"134 340 OFFCURVE",
"118 294 OFFCURVE",
"118 242 CURVE"
);
},
{
closed = 1;
nodes = (
"23 333 LINE",
"118 20 LINE",
"118 805 LINE"
);
}
);
width = 528;
}
);
unicode = 0068;
},
{
changeCount = 1;
color = 6;
glyphname = i;
layers = (
{
background = {
paths = (
{
closed = 1;
nodes = (
"171 470 LINE",
"91 470 LINE",
"91 0 LINE",
"171 0 LINE"
);
},
{
closed = 1;
nodes = (
"100 704 OFFCURVE",
"74 678 OFFCURVE",
"74 647 CURVE SMOOTH",
"74 615 OFFCURVE",
"100 590 OFFCURVE",
"131 590 CURVE SMOOTH",
"162 590 OFFCURVE",
"188 615 OFFCURVE",
"188 647 CURVE SMOOTH",
"188 678 OFFCURVE",
"162 704 OFFCURVE",
"131 704 CURVE SMOOTH"
);
}
);
};
layerId = "A4368790-3638-4B5D-B474-0996C59BD988";
name = Regular;
paths = (
{
closed = 1;
nodes = (
"246 336 LINE",
"131 20 LINE",
"131 450 LINE"
);
},
{
closed = 1;
nodes = (
"142 649 LINE",
"131 659 LINE",
"131 648 LINE"
);
}
);
width = 262;
}
);
leftKerningGroupId = "@MMK_R_i";
unicode = 0069;
},
{
changeCount = 0;
export = 0;
glyphname = iacute;
layers = (
{
layerId = "A4368790-3638-4B5D-B474-0996C59BD988";
name = Regular;
paths = (
{
closed = 1;
nodes = (
"171 470 LINE",
"91 470 LINE",
"91 0 LINE",
"171 0 LINE"
);
},
{
closed = 1;
nodes = (
"174 744 LINE",
"55 580 LINE",
"105 552 LINE",
"258 706 LINE"
);
}
);
width = 262;
}
);
unicode = 00ED;
},
{
changeCount = 0;
export = 0;
glyphname = icircumflex;
layers = (
{
layerId = "A4368790-3638-4B5D-B474-0996C59BD988";
name = Regular;
paths = (
{
closed = 1;
nodes = (
"171 470 LINE",
"91 470 LINE",
"91 0 LINE",
"171 0 LINE"
);
},
{
closed = 1;
nodes = (
"-26 604 LINE",
"31 559 LINE",
"130 644 LINE",
"230 559 LINE",
"288 604 LINE",
"130 737 LINE"
);
}
);
width = 262;
}
);
unicode = 00EE;
},
{
changeCount = 0;
export = 0;
glyphname = idieresis;
layers = (
{
layerId = "A4368790-3638-4B5D-B474-0996C59BD988";
name = Regular;
paths = (
{
closed = 1;
nodes = (
"171 470 LINE",
"91 470 LINE",
"91 0 LINE",
"171 0 LINE"
);
},
{
closed = 1;
nodes = (
"3 705 OFFCURVE",
"-21 681 OFFCURVE",
"-21 651 CURVE SMOOTH",
"-21 621 OFFCURVE",
"3 597 OFFCURVE",
"33 597 CURVE SMOOTH",
"63 597 OFFCURVE",
"87 621 OFFCURVE",
"87 651 CURVE SMOOTH",
"87 681 OFFCURVE",
"63 705 OFFCURVE",
"33 705 CURVE SMOOTH"
);
},
{
closed = 1;
nodes = (
"200 705 OFFCURVE",
"176 681 OFFCURVE",
"176 651 CURVE SMOOTH",
"176 621 OFFCURVE",
"200 597 OFFCURVE",
"230 597 CURVE SMOOTH",
"260 597 OFFCURVE",
"284 621 OFFCURVE",
"284 651 CURVE SMOOTH",
"284 681 OFFCURVE",
"260 705 OFFCURVE",
"230 705 CURVE SMOOTH"
);
}
);
width = 262;
}
);
unicode = 00EF;
},
{
changeCount = 0;
export = 0;
glyphname = igrave;
layers = (
{
layerId = "A4368790-3638-4B5D-B474-0996C59BD988";
name = Regular;
paths = (
{
closed = 1;
nodes = (
"171 470 LINE",
"91 470 LINE",
"91 0 LINE",
"171 0 LINE"
);
},
{
closed = 1;
nodes = (
"5 706 LINE",
"158 552 LINE",
"208 580 LINE",
"89 744 LINE"
);
}
);
width = 262;
}
);
unicode = 00EC;
},
{
changeCount = 1;
color = 6;
glyphname = j;
layers = (
{
background = {
paths = (
{
closed = 1;
nodes = (
"171 470 LINE",
"91 470 LINE",
"91 -264 LINE",
"171 -264 LINE"
);
},
{
closed = 1;
nodes = (
"100 704 OFFCURVE",
"74 678 OFFCURVE",
"74 647 CURVE SMOOTH",
"74 615 OFFCURVE",
"100 590 OFFCURVE",
"131 590 CURVE SMOOTH",
"162 590 OFFCURVE",
"188 615 OFFCURVE",
"188 647 CURVE SMOOTH",
"188 678 OFFCURVE",
"162 704 OFFCURVE",
"131 704 CURVE SMOOTH"
);
}
);
};
layerId = "A4368790-3638-4B5D-B474-0996C59BD988";
name = Regular;
paths = (
{
closed = 1;
nodes = (
"82 336 LINE",
"131 -244 LINE",
"131 450 LINE"
);
},
{
closed = 1;
nodes = (
"142 649 LINE",
"131 659 LINE",
"131 648 LINE"
);
}
);
width = 262;
}
);
unicode = 006A;
},
{
changeCount = 1;
color = 6;
glyphname = k;
layers = (
{
background = {
paths = (
{
closed = 1;
nodes = (
"152 825 LINE",
"72 825 LINE",
"72 0 LINE",
"152 0 LINE",
"152 193 LINE",
"173 214 LINE",
"362 0 LINE",
"468 0 LINE",
"229 270 LINE",
"430 470 LINE",
"323 470 LINE",
"152 296 LINE"
);
}
);
};
layerId = "A4368790-3638-4B5D-B474-0996C59BD988";
name = Regular;
paths = (
{
closed = 1;
nodes = (
"8 448 LINE",
"112 20 LINE",
"112 805 LINE"
);
},
{
closed = 1;
nodes = (
"239 472 LINE",
"112 207 LINE",
"360 451 LINE"
);
},
{
closed = 1;
nodes = (
"365 207 LINE",
"173 267 LINE",
"400 15 LINE"
);
}
);
width = 470;
}
);
unicode = 006B;
},
{
changeCount = 1;
color = 6;
glyphname = l;
layers = (
{
background = {
paths = (
{
closed = 1;
nodes = (
"154 825 LINE",
"74 825 LINE",
"74 0 LINE",
"154 0 LINE"
);
}
);
};
layerId = "A4368790-3638-4B5D-B474-0996C59BD988";
name = Regular;
paths = (
{
closed = 1;
nodes = (
"72 463 LINE",
"112 20 LINE",
"112 805 LINE"
);
}
);
width = 227;
}
);
unicode = 006C;
},
{
changeCount = 0;
export = 0;
glyphname = lslash;
layers = (
{
layerId = "A4368790-3638-4B5D-B474-0996C59BD988";
name = Regular;
paths = (
{
closed = 1;
nodes = (
"89 0 LINE",
"169 0 LINE",
"169 424 LINE",
"243 473 LINE",
"243 544 LINE",
"169 495 LINE",
"169 825 LINE",
"89 825 LINE",
"89 441 LINE",
"15 392 LINE",
"15 321 LINE",
"89 370 LINE"
);
}
);
width = 258;
}
);
unicode = 0142;
},
{
changeCount = 1;
color = 6;
glyphname = m;
layers = (
{
background = {
paths = (
{
closed = 1;
nodes = (
"156 470 LINE",
"76 470 LINE",
"76 0 LINE",
"156 0 LINE",
"156 243 LINE SMOOTH",
"156 314 OFFCURVE",
"166 409 OFFCURVE",
"260 409 CURVE SMOOTH",
"337 409 OFFCURVE",
"344 325 OFFCURVE",
"344 267 CURVE SMOOTH",
"344 0 LINE",
"424 0 LINE",
"424 249 LINE SMOOTH",
"424 320 OFFCURVE",
"434 409 OFFCURVE",
"526 409 CURVE SMOOTH",
"608 409 OFFCURVE",
"612 334 OFFCURVE",
"612 273 CURVE SMOOTH",
"612 0 LINE",
"692 0 LINE",
"692 286 LINE SMOOTH",
"692 385 OFFCURVE",
"662 483 OFFCURVE",
"542 483 CURVE SMOOTH",
"485 483 OFFCURVE",
"429 457 OFFCURVE",
"401 405 CURVE",
"376 454 OFFCURVE",
"326 483 OFFCURVE",
"271 483 CURVE SMOOTH",
"223 483 OFFCURVE",
"183 458 OFFCURVE",
"158 419 CURVE",
"156 419 LINE"
);
}
);
};
layerId = "A4368790-3638-4B5D-B474-0996C59BD988";
name = Regular;
paths = (
{
closed = 1;
nodes = (
"291 247 LINE",
"388 20 LINE",
"388 272 LINE SMOOTH",
"388 365 OFFCURVE",
"370 458 OFFCURVE",
"268 458 CURVE SMOOTH",
"217 458 OFFCURVE",
"176 422 OFFCURVE",
"154 384 CURVE SMOOTH",
"132 345 OFFCURVE",
"117 299 OFFCURVE",
"117 247 CURVE"
);
},
{
closed = 1;
nodes = (
"536 219 LINE",
"658 20 LINE",
"658 269 LINE SMOOTH",
"658 362 OFFCURVE",
"641 455 OFFCURVE",
"539 455 CURVE SMOOTH",
"488 455 OFFCURVE",
"446 420 OFFCURVE",
"424 381 CURVE SMOOTH",
"402 342 OFFCURVE",
"388 297 OFFCURVE",
"388 245 CURVE"
);
},
{
closed = 1;
nodes = (
"81 218 LINE",
"117 20 LINE",
"117 450 LINE"
);
}
);
width = 768;
}
);
leftKerningGroupId = "@MMK_R_m";
unicode = 006D;
},
{
changeCount = 1;
color = 6;
glyphname = n;
layers = (
{
background = {
paths = (
{
closed = 1;
nodes = (
"156 470 LINE",
"76 470 LINE",
"76 0 LINE",
"156 0 LINE",
"156 223 LINE SMOOTH",
"156 307 OFFCURVE",
"163 409 OFFCURVE",
"273 409 CURVE SMOOTH",
"366 409 OFFCURVE",
"372 341 OFFCURVE",
"372 265 CURVE SMOOTH",
"372 0 LINE",
"452 0 LINE",
"452 279 LINE SMOOTH",
"452 389 OFFCURVE",
"422 483 OFFCURVE",
"292 483 CURVE SMOOTH",
"234 483 OFFCURVE",
"191 458 OFFCURVE",
"158 413 CURVE",
"156 413 LINE"
);
}
);
};
layerId = "A4368790-3638-4B5D-B474-0996C59BD988";
name = Regular;
paths = (
{
closed = 1;
nodes = (
"255 133 LINE",
"413 20 LINE",
"413 270 LINE SMOOTH",
"413 363 OFFCURVE",
"394 457 OFFCURVE",
"283 457 CURVE SMOOTH",
"227 457 OFFCURVE",
"181 421 OFFCURVE",
"157 382 CURVE SMOOTH",
"133 343 OFFCURVE",
"117 298 OFFCURVE",
"117 246 CURVE SMOOTH"
);
},
{
closed = 1;
nodes = (
"89 325 LINE",
"117 20 LINE",
"117 449 LINE"
);
}
);
width = 528;
}
);
leftKerningGroupId = "@MMK_R_n";
unicode = 006E;
},
{
changeCount = 0;
export = 0;
glyphname = ntilde;
layers = (
{
layerId = "A4368790-3638-4B5D-B474-0996C59BD988";
name = Regular;
paths = (
{
closed = 1;
nodes = (
"156 470 LINE",
"76 470 LINE",
"76 0 LINE",
"156 0 LINE",
"156 223 LINE SMOOTH",
"156 307 OFFCURVE",
"163 409 OFFCURVE",
"273 409 CURVE SMOOTH",
"366 409 OFFCURVE",
"372 341 OFFCURVE",
"372 265 CURVE SMOOTH",
"372 0 LINE",
"452 0 LINE",
"452 279 LINE SMOOTH",
"452 389 OFFCURVE",
"422 483 OFFCURVE",
"292 483 CURVE SMOOTH",
"234 483 OFFCURVE",
"191 458 OFFCURVE",
"158 413 CURVE",
"156 413 LINE"
);
},
{
closed = 1;
nodes = (
"138 588 LINE",
"148 610 OFFCURVE",
"160 634 OFFCURVE",
"188 634 CURVE SMOOTH",
"209 634 OFFCURVE",
"233 623 OFFCURVE",
"258 612 CURVE SMOOTH",
"283 600 OFFCURVE",
"309 589 OFFCURVE",
"333 589 CURVE SMOOTH",
"382 589 OFFCURVE",
"421 626 OFFCURVE",
"439 670 CURVE",
"392 708 LINE",
"380 686 OFFCURVE",
"364 660 OFFCURVE",
"336 660 CURVE SMOOTH",
"318 660 OFFCURVE",
"297 672 OFFCURVE",
"272 683 CURVE",
"248 695 OFFCURVE",
"221 706 OFFCURVE",
"191 706 CURVE SMOOTH",
"141 706 OFFCURVE",
"112 667 OFFCURVE",
"89 627 CURVE"
);
}
);
width = 528;
}
);
leftKerningGroupId = "@MMK_R_n";
unicode = 00F1;
},
{
changeCount = 1;
color = 6;
glyphname = o;
layers = (
{
background = {
paths = (
{
closed = 1;
nodes = (
"418 -13 OFFCURVE",
"528 96 OFFCURVE",
"528 234 CURVE SMOOTH",
"528 372 OFFCURVE",
"419 483 OFFCURVE",
"281 483 CURVE SMOOTH",
"143 483 OFFCURVE",
"34 372 OFFCURVE",
"34 234 CURVE SMOOTH",
"34 96 OFFCURVE",
"144 -13 OFFCURVE",
"281 -13 CURVE SMOOTH"
);
},
{
closed = 1;
nodes = (
"380 409 OFFCURVE",
"448 330 OFFCURVE",
"448 235 CURVE SMOOTH",
"448 139 OFFCURVE",
"380 61 OFFCURVE",
"281 61 CURVE SMOOTH",
"182 61 OFFCURVE",
"114 139 OFFCURVE",
"114 235 CURVE SMOOTH",
"114 330 OFFCURVE",
"182 409 OFFCURVE",
"281 409 CURVE SMOOTH"
);
}
);
};
layerId = "A4368790-3638-4B5D-B474-0996C59BD988";
name = Regular;
paths = (
{
closed = 1;
nodes = (
"280 23 LINE",
"285 23 LINE SMOOTH",
"401 25 OFFCURVE",
"487 118 OFFCURVE",
"487 233 CURVE SMOOTH",
"487 350 OFFCURVE",
"399 445 OFFCURVE",
"280 445 CURVE SMOOTH",
"162 445 OFFCURVE",
"73 350 OFFCURVE",
"73 233 CURVE SMOOTH",
"73 118 OFFCURVE",
"160 26 OFFCURVE",
"275 23 CURVE SMOOTH"
);
}
);
width = 562;
}
);
leftKerningGroupId = "@MMK_R_o";
unicode = 006F;
},
{
changeCount = 0;
export = 0;
glyphname = oacute;
layers = (
{
layerId = "A4368790-3638-4B5D-B474-0996C59BD988";
name = Regular;
paths = (
{
closed = 1;
nodes = (
"418 -13 OFFCURVE",
"528 96 OFFCURVE",
"528 234 CURVE SMOOTH",
"528 372 OFFCURVE",
"419 483 OFFCURVE",
"281 483 CURVE SMOOTH",
"143 483 OFFCURVE",
"34 372 OFFCURVE",
"34 234 CURVE SMOOTH",
"34 96 OFFCURVE",
"144 -13 OFFCURVE",
"281 -13 CURVE SMOOTH"
);
},
{
closed = 1;
nodes = (
"380 409 OFFCURVE",
"448 330 OFFCURVE",
"448 235 CURVE SMOOTH",
"448 139 OFFCURVE",
"380 61 OFFCURVE",
"281 61 CURVE SMOOTH",
"182 61 OFFCURVE",
"114 139 OFFCURVE",
"114 235 CURVE SMOOTH",
"114 330 OFFCURVE",
"182 409 OFFCURVE",
"281 409 CURVE SMOOTH"
);
},
{
closed = 1;
nodes = (
"339 744 LINE",
"220 580 LINE",
"270 552 LINE",
"423 706 LINE"
);
}
);
width = 562;
}
);
unicode = 00F3;
},
{
changeCount = 0;
export = 0;
glyphname = ocircumflex;
layers = (
{
layerId = "A4368790-3638-4B5D-B474-0996C59BD988";
name = Regular;
paths = (
{
closed = 1;
nodes = (
"418 -13 OFFCURVE",
"528 96 OFFCURVE",
"528 234 CURVE SMOOTH",
"528 372 OFFCURVE",
"419 483 OFFCURVE",
"281 483 CURVE SMOOTH",
"143 483 OFFCURVE",
"34 372 OFFCURVE",
"34 234 CURVE SMOOTH",
"34 96 OFFCURVE",
"144 -13 OFFCURVE",
"281 -13 CURVE SMOOTH"
);
},
{
closed = 1;
nodes = (
"380 409 OFFCURVE",
"448 330 OFFCURVE",
"448 235 CURVE SMOOTH",
"448 139 OFFCURVE",
"380 61 OFFCURVE",
"281 61 CURVE SMOOTH",
"182 61 OFFCURVE",
"114 139 OFFCURVE",
"114 235 CURVE SMOOTH",
"114 330 OFFCURVE",
"182 409 OFFCURVE",
"281 409 CURVE SMOOTH"
);
},
{
closed = 1;
nodes = (
"124 604 LINE",
"181 559 LINE",
"280 644 LINE",
"380 559 LINE",
"438 604 LINE",
"280 737 LINE"
);
}
);
width = 562;
}
);
unicode = 00F4;
},
{
changeCount = 1;
color = 6;
glyphname = odieresis;
layers = (
{
background = {
paths = (
{
closed = 1;
nodes = (
"418 -13 OFFCURVE",
"528 96 OFFCURVE",
"528 234 CURVE SMOOTH",
"528 372 OFFCURVE",
"419 483 OFFCURVE",
"281 483 CURVE SMOOTH",
"143 483 OFFCURVE",
"34 372 OFFCURVE",
"34 234 CURVE SMOOTH",
"34 96 OFFCURVE",
"144 -13 OFFCURVE",
"281 -13 CURVE SMOOTH"
);
},
{
closed = 1;
nodes = (
"380 409 OFFCURVE",
"448 330 OFFCURVE",
"448 235 CURVE SMOOTH",
"448 139 OFFCURVE",
"380 61 OFFCURVE",
"281 61 CURVE SMOOTH",
"182 61 OFFCURVE",
"114 139 OFFCURVE",
"114 235 CURVE SMOOTH",
"114 330 OFFCURVE",
"182 409 OFFCURVE",
"281 409 CURVE SMOOTH"
);
},
{
closed = 1;
nodes = (
"153 705 OFFCURVE",
"129 681 OFFCURVE",
"129 651 CURVE SMOOTH",
"129 621 OFFCURVE",
"153 597 OFFCURVE",
"183 597 CURVE SMOOTH",
"213 597 OFFCURVE",
"237 621 OFFCURVE",
"237 651 CURVE SMOOTH",
"237 681 OFFCURVE",
"213 705 OFFCURVE",
"183 705 CURVE SMOOTH"
);
},
{
closed = 1;
nodes = (
"350 705 OFFCURVE",
"326 681 OFFCURVE",
"326 651 CURVE SMOOTH",
"326 621 OFFCURVE",
"350 597 OFFCURVE",
"380 597 CURVE SMOOTH",
"410 597 OFFCURVE",
"434 621 OFFCURVE",
"434 651 CURVE SMOOTH",
"434 681 OFFCURVE",
"410 705 OFFCURVE",
"380 705 CURVE SMOOTH"
);
}
);
};
layerId = "A4368790-3638-4B5D-B474-0996C59BD988";
name = Regular;
paths = (
{
closed = 1;
nodes = (
"160 26 OFFCURVE",
"73 118 OFFCURVE",
"73 233 CURVE SMOOTH",
"73 350 OFFCURVE",
"162 445 OFFCURVE",
"280 445 CURVE SMOOTH",
"399 445 OFFCURVE",
"487 350 OFFCURVE",
"487 233 CURVE SMOOTH",
"487 118 OFFCURVE",
"401 25 OFFCURVE",
"285 23 CURVE SMOOTH",
"280 23 LINE",
"275 23 LINE SMOOTH"
);
},
{
closed = 1;
nodes = (
"182 651 LINE",
"182 662 LINE",
"193 652 LINE SMOOTH"
);
},
{
closed = 1;
nodes = (
"381 651 LINE",
"381 662 LINE",
"392 652 LINE"
);
}
);
width = 562;
}
);
leftKerningGroupId = "@MMK_R_o";
unicode = 00F6;
},
{
changeCount = 0;
export = 0;
glyphname = oe;
layers = (
{
layerId = "A4368790-3638-4B5D-B474-0996C59BD988";
name = Regular;
paths = (
{
closed = 1;
nodes = (
"906 218 LINE",
"914 358 OFFCURVE",
"832 483 OFFCURVE",
"681 483 CURVE SMOOTH",
"600 481 OFFCURVE",
"526 442 OFFCURVE",
"489 369 CURVE",
"451 440 OFFCURVE",
"368 481 OFFCURVE",
"281 483 CURVE SMOOTH",
"143 483 OFFCURVE",
"34 372 OFFCURVE",
"34 234 CURVE SMOOTH",
"34 96 OFFCURVE",
"144 -13 OFFCURVE",
"281 -13 CURVE SMOOTH",
"363 -13 OFFCURVE",
"448 27 OFFCURVE",
"489 99 CURVE",
"524 29 OFFCURVE",
"606 -13 OFFCURVE",
"683 -13 CURVE SMOOTH",
"779 -13 OFFCURVE",
"855 35 OFFCURVE",
"900 119 CURVE",
"832 158 LINE",
"801 102 OFFCURVE",
"757 61 OFFCURVE",
"689 61 CURVE SMOOTH",
"598 61 OFFCURVE",
"536 131 OFFCURVE",
"535 218 CURVE"
);
},
{
closed = 1;
nodes = (
"542 286 LINE",
"552 354 OFFCURVE",
"616 409 OFFCURVE",
"685 409 CURVE SMOOTH",
"755 409 OFFCURVE",
"812 354 OFFCURVE",
"823 286 CURVE"
);
},
{
closed = 1;
nodes = (
"382 409 OFFCURVE",
"450 330 OFFCURVE",
"450 235 CURVE SMOOTH",
"450 139 OFFCURVE",
"382 61 OFFCURVE",
"283 61 CURVE SMOOTH",
"184 61 OFFCURVE",
"116 139 OFFCURVE",
"116 235 CURVE SMOOTH",
"116 330 OFFCURVE",
"184 409 OFFCURVE",
"283 409 CURVE SMOOTH"
);
}
);
width = 940;
}
);
leftKerningGroupId = "@MMK_R_o";
unicode = 0153;
},
{
changeCount = 0;
export = 0;
glyphname = ograve;
layers = (
{
layerId = "A4368790-3638-4B5D-B474-0996C59BD988";
name = Regular;
paths = (
{
closed = 1;
nodes = (
"418 -13 OFFCURVE",
"528 96 OFFCURVE",
"528 234 CURVE SMOOTH",
"528 372 OFFCURVE",
"419 483 OFFCURVE",
"281 483 CURVE SMOOTH",
"143 483 OFFCURVE",
"34 372 OFFCURVE",
"34 234 CURVE SMOOTH",
"34 96 OFFCURVE",
"144 -13 OFFCURVE",
"281 -13 CURVE SMOOTH"
);
},
{
closed = 1;
nodes = (
"380 409 OFFCURVE",
"448 330 OFFCURVE",
"448 235 CURVE SMOOTH",
"448 139 OFFCURVE",
"380 61 OFFCURVE",
"281 61 CURVE SMOOTH",
"182 61 OFFCURVE",
"114 139 OFFCURVE",
"114 235 CURVE SMOOTH",
"114 330 OFFCURVE",
"182 409 OFFCURVE",
"281 409 CURVE SMOOTH"
);
},
{
closed = 1;
nodes = (
"140 706 LINE",
"293 552 LINE",
"343 580 LINE",
"224 744 LINE"
);
}
);
width = 562;
}
);
leftKerningGroupId = "@MMK_R_o";
unicode = 00F2;
},
{
changeCount = 0;
export = 0;
glyphname = oslash;
layers = (
{
layerId = "A4368790-3638-4B5D-B474-0996C59BD988";
name = Regular;
paths = (
{
closed = 1;
nodes = (
"143 134 LINE",
"125 162 OFFCURVE",
"114 197 OFFCURVE",
"114 235 CURVE SMOOTH",
"114 330 OFFCURVE",
"182 409 OFFCURVE",
"281 409 CURVE SMOOTH",
"321 409 OFFCURVE",
"356 396 OFFCURVE",
"383 374 CURVE"
);
},
{
closed = 1;
nodes = (
"419 333 LINE",
"438 306 OFFCURVE",
"448 272 OFFCURVE",
"448 235 CURVE SMOOTH",
"448 139 OFFCURVE",
"380 61 OFFCURVE",
"281 61 CURVE SMOOTH",
"242 61 OFFCURVE",
"207 73 OFFCURVE",
"181 94 CURVE"
);
},
{
closed = 1;
nodes = (
"20 11 LINE",
"59 -28 LINE",
"127 40 LINE",
"169 7 OFFCURVE",
"223 -13 OFFCURVE",
"281 -13 CURVE SMOOTH",
"418 -13 OFFCURVE",
"528 96 OFFCURVE",
"528 234 CURVE SMOOTH",
"528 293 OFFCURVE",
"508 348 OFFCURVE",
"475 389 CURVE",
"542 456 LINE",
"503 494 LINE",
"437 428 LINE",
"396 462 OFFCURVE",
"341 483 OFFCURVE",
"281 483 CURVE SMOOTH",
"143 483 OFFCURVE",
"34 372 OFFCURVE",
"34 234 CURVE SMOOTH",
"34 175 OFFCURVE",
"54 121 OFFCURVE",
"88 79 CURVE"
);
}
);
width = 562;
}
);
leftKerningGroupId = "@MMK_R_o";
unicode = 00F8;
},
{
changeCount = 0;
export = 0;
glyphname = otilde;
layers = (
{
layerId = "A4368790-3638-4B5D-B474-0996C59BD988";
name = Regular;
paths = (
{
closed = 1;
nodes = (
"418 -13 OFFCURVE",
"528 96 OFFCURVE",
"528 234 CURVE SMOOTH",
"528 372 OFFCURVE",
"419 483 OFFCURVE",
"281 483 CURVE SMOOTH",
"143 483 OFFCURVE",
"34 372 OFFCURVE",
"34 234 CURVE SMOOTH",
"34 96 OFFCURVE",
"144 -13 OFFCURVE",
"281 -13 CURVE SMOOTH"
);
},
{
closed = 1;
nodes = (
"380 409 OFFCURVE",
"448 330 OFFCURVE",
"448 235 CURVE SMOOTH",
"448 139 OFFCURVE",
"380 61 OFFCURVE",
"281 61 CURVE SMOOTH",
"182 61 OFFCURVE",
"114 139 OFFCURVE",
"114 235 CURVE SMOOTH",
"114 330 OFFCURVE",
"182 409 OFFCURVE",
"281 409 CURVE SMOOTH"
);
},
{
closed = 1;
nodes = (
"155 588 LINE",
"165 610 OFFCURVE",
"177 634 OFFCURVE",
"205 634 CURVE SMOOTH",
"226 634 OFFCURVE",
"250 623 OFFCURVE",
"275 612 CURVE SMOOTH",
"300 600 OFFCURVE",
"326 589 OFFCURVE",
"350 589 CURVE SMOOTH",
"399 589 OFFCURVE",
"438 626 OFFCURVE",
"456 670 CURVE",
"409 708 LINE",
"397 686 OFFCURVE",
"381 660 OFFCURVE",
"353 660 CURVE SMOOTH",
"335 660 OFFCURVE",
"314 672 OFFCURVE",
"289 683 CURVE",
"265 695 OFFCURVE",
"238 706 OFFCURVE",
"208 706 CURVE SMOOTH",
"158 706 OFFCURVE",
"129 667 OFFCURVE",
"106 627 CURVE"
);
}
);
width = 562;
}
);
leftKerningGroupId = "@MMK_R_o";
unicode = 00F5;
},
{
changeCount = 1;
color = 6;
glyphname = p;
layers = (
{
background = {
paths = (
{
closed = 1;
nodes = (
"400 409 OFFCURVE",
"459 333 OFFCURVE",
"459 239 CURVE SMOOTH",
"459 144 OFFCURVE",
"405 61 OFFCURVE",
"302 61 CURVE SMOOTH",
"202 61 OFFCURVE",
"148 148 OFFCURVE",
"148 240 CURVE SMOOTH",
"148 328 OFFCURVE",
"208 409 OFFCURVE",
"301 409 CURVE SMOOTH"
);
},
{
closed = 1;
nodes = (
"152 470 LINE",
"72 470 LINE",
"72 -264 LINE",
"152 -264 LINE",
"152 66 LINE",
"154 66 LINE",
"192 15 OFFCURVE",
"251 -13 OFFCURVE",
"315 -13 CURVE SMOOTH",
"456 -13 OFFCURVE",
"541 100 OFFCURVE",
"541 234 CURVE SMOOTH",
"541 364 OFFCURVE",
"454 483 OFFCURVE",
"316 483 CURVE SMOOTH",
"251 483 OFFCURVE",
"193 455 OFFCURVE",
"154 403 CURVE",
"152 403 LINE"
);
}
);
};
layerId = "A4368790-3638-4B5D-B474-0996C59BD988";
name = Regular;
paths = (
{
closed = 1;
nodes = (
"56 179 LINE",
"116 -242 LINE",
"116 450 LINE"
);
},
{
closed = 1;
nodes = (
"116 240 LINE",
"117 268 LINE",
"129 390 OFFCURVE",
"227 446 OFFCURVE",
"300 446 CURVE SMOOTH",
"419 446 OFFCURVE",
"492 348 OFFCURVE",
"492 236 CURVE SMOOTH",
"492 122 OFFCURVE",
"422 24 OFFCURVE",
"300 24 CURVE SMOOTH",
"223 24 OFFCURVE",
"129 81 OFFCURVE",
"117 214 CURVE"
);
}
);
width = 577;
}
);
leftKerningGroupId = "@MMK_R_p";
unicode = 0070;
},
{
changeCount = 1;
color = 6;
glyphname = q;
layers = (
{
background = {
paths = (
{
closed = 1;
nodes = (
"370 409 OFFCURVE",
"429 333 OFFCURVE",
"429 239 CURVE SMOOTH",
"429 144 OFFCURVE",
"375 61 OFFCURVE",
"272 61 CURVE SMOOTH",
"172 61 OFFCURVE",
"118 148 OFFCURVE",
"118 240 CURVE SMOOTH",
"118 328 OFFCURVE",
"178 409 OFFCURVE",
"271 409 CURVE SMOOTH"
);
},
{
closed = 1;
nodes = (
"505 470 LINE",
"425 470 LINE",
"425 403 LINE",
"423 403 LINE",
"384 455 OFFCURVE",
"325 483 OFFCURVE",
"261 483 CURVE SMOOTH",
"122 483 OFFCURVE",
"36 364 OFFCURVE",
"36 233 CURVE SMOOTH",
"36 100 OFFCURVE",
"121 -13 OFFCURVE",
"262 -13 CURVE SMOOTH",
"325 -13 OFFCURVE",
"385 15 OFFCURVE",
"423 66 CURVE",
"425 66 LINE",
"425 -264 LINE",
"505 -264 LINE"
);
}
);
};
layerId = "A4368790-3638-4B5D-B474-0996C59BD988";
name = Regular;
paths = (
{
closed = 1;
nodes = (
"530 179 LINE",
"460 -244 LINE",
"460 450 LINE"
);
},
{
closed = 1;
nodes = (
"460 240 LINE",
"459 268 LINE",
"447 390 OFFCURVE",
"349 446 OFFCURVE",
"275 446 CURVE SMOOTH",
"157 446 OFFCURVE",
"84 348 OFFCURVE",
"84 236 CURVE SMOOTH",
"84 122 OFFCURVE",
"153 24 OFFCURVE",
"275 24 CURVE SMOOTH",
"352 24 OFFCURVE",
"447 81 OFFCURVE",
"459 214 CURVE"
);
}
);
width = 577;
}
);
leftKerningGroupId = "@MMK_R_q";
unicode = 0071;
},
{
changeCount = 1;
color = 6;
glyphname = r;
layers = (
{
background = {
paths = (
{
closed = 1;
nodes = (
"152 470 LINE",
"72 470 LINE",
"72 0 LINE",
"152 0 LINE",
"152 235 LINE SMOOTH",
"152 296 OFFCURVE",
"156 409 OFFCURVE",
"244 409 CURVE SMOOTH",
"265 409 OFFCURVE",
"276 399 OFFCURVE",
"292 388 CURVE",
"330 461 LINE",
"307 474 OFFCURVE",
"285 483 OFFCURVE",
"258 483 CURVE SMOOTH",
"206 483 OFFCURVE",
"182 456 OFFCURVE",
"154 419 CURVE",
"152 419 LINE"
);
}
);
};
layerId = "A4368790-3638-4B5D-B474-0996C59BD988";
name = Regular;
paths = (
{
closed = 1;
nodes = (
"218 333 LINE",
"112 247 LINE",
"115 290 OFFCURVE",
"136 357 OFFCURVE",
"168 390 CURVE SMOOTH",
"199 424 OFFCURVE",
"251 448 OFFCURVE",
"295 437 CURVE"
);
},
{
closed = 1;
nodes = (
"46 167 LINE",
"112 17 LINE",
"112 450 LINE"
);
}
);
width = 335;
}
);
leftKerningGroupId = "@MMK_R_r";
rightKerningGroupId = "@MMK_L_r";
unicode = 0072;
},
{
changeCount = 1;
color = 6;
glyphname = s;
layers = (
{
background = {
paths = (
{
closed = 1;
nodes = (
"333 396 LINE",
"312 445 OFFCURVE",
"262 483 OFFCURVE",
"208 483 CURVE SMOOTH",
"132 483 OFFCURVE",
"68 429 OFFCURVE",
"68 350 CURVE SMOOTH",
"68 202 OFFCURVE",
"280 238 OFFCURVE",
"280 133 CURVE SMOOTH",
"280 90 OFFCURVE",
"247 61 OFFCURVE",
"204 61 CURVE SMOOTH",
"151 61 OFFCURVE",
"128 92 OFFCURVE",
"108 136 CURVE",
"37 106 LINE",
"62 32 OFFCURVE",
"124 -13 OFFCURVE",
"203 -13 CURVE SMOOTH",
"290 -13 OFFCURVE",
"362 51 OFFCURVE",
"362 140 CURVE SMOOTH",
"362 219 OFFCURVE",
"308 252 OFFCURVE",
"253 275 CURVE SMOOTH",
"198 298 OFFCURVE",
"144 314 OFFCURVE",
"144 357 CURVE SMOOTH",
"144 387 OFFCURVE",
"174 409 OFFCURVE",
"202 409 CURVE SMOOTH",
"231 409 OFFCURVE",
"255 386 OFFCURVE",
"266 361 CURVE"
);
}
);
};
layerId = "A4368790-3638-4B5D-B474-0996C59BD988";
name = Regular;
paths = (
{
closed = 1;
nodes = (
"308 333 LINE",
"80 99 LINE",
"114 27 OFFCURVE",
"205 -4 OFFCURVE",
"275 45 CURVE SMOOTH",
"341 91 OFFCURVE",
"332 181 OFFCURVE",
"267 222 CURVE SMOOTH",
"213 257 OFFCURVE",
"99 277 OFFCURVE",
"107 362 CURVE SMOOTH",
"116 459 OFFCURVE",
"243 486 OFFCURVE",
"294 404 CURVE"
);
}
);
width = 399;
}
);
leftKerningGroupId = "@MMK_R_s";
unicode = 0073;
},
{
changeCount = 0;
export = 0;
glyphname = scaron;
layers = (
{
layerId = "A4368790-3638-4B5D-B474-0996C59BD988";
name = Regular;
paths = (
{
closed = 1;
nodes = (
"333 396 LINE",
"312 445 OFFCURVE",
"262 483 OFFCURVE",
"208 483 CURVE SMOOTH",
"132 483 OFFCURVE",
"68 429 OFFCURVE",
"68 350 CURVE SMOOTH",
"68 202 OFFCURVE",
"280 238 OFFCURVE",
"280 133 CURVE SMOOTH",
"280 90 OFFCURVE",
"247 61 OFFCURVE",
"204 61 CURVE SMOOTH",
"151 61 OFFCURVE",
"128 92 OFFCURVE",
"108 136 CURVE",
"37 106 LINE",
"62 32 OFFCURVE",
"124 -13 OFFCURVE",
"203 -13 CURVE SMOOTH",
"290 -13 OFFCURVE",
"362 51 OFFCURVE",
"362 140 CURVE SMOOTH",
"362 219 OFFCURVE",
"308 252 OFFCURVE",
"253 275 CURVE SMOOTH",
"198 298 OFFCURVE",
"144 314 OFFCURVE",
"144 357 CURVE SMOOTH",
"144 387 OFFCURVE",
"174 409 OFFCURVE",
"202 409 CURVE SMOOTH",
"231 409 OFFCURVE",
"255 386 OFFCURVE",
"266 361 CURVE"
);
},
{
closed = 1;
nodes = (
"357 692 LINE",
"300 737 LINE",
"201 652 LINE",
"101 737 LINE",
"43 692 LINE",
"201 559 LINE"
);
}
);
width = 399;
}
);
leftKerningGroupId = "@MMK_R_s";
unicode = 0161;
},
{
changeCount = 1;
color = 6;
glyphname = t;
layers = (
{
background = {
paths = (
{
closed = 1;
nodes = (
"160 396 LINE",
"244 396 LINE",
"244 470 LINE",
"160 470 LINE",
"160 639 LINE",
"80 639 LINE",
"80 470 LINE",
"31 470 LINE",
"31 396 LINE",
"80 396 LINE",
"80 0 LINE",
"160 0 LINE"
);
}
);
};
layerId = "A4368790-3638-4B5D-B474-0996C59BD988";
name = Regular;
paths = (
{
closed = 1;
nodes = (
"199 193 LINE",
"121 619 LINE",
"121 20 LINE"
);
},
{
closed = 1;
nodes = (
"219 363 LINE",
"222 433 LINE",
"49 433 LINE"
);
}
);
width = 240;
}
);
leftKerningGroupId = "@MMK_R_t";
unicode = 0074;
},
{
changeCount = 0;
export = 0;
glyphname = thorn;
layers = (
{
layerId = "A4368790-3638-4B5D-B474-0996C59BD988";
name = Regular;
paths = (
{
closed = 1;
nodes = (
"152 825 LINE",
"72 825 LINE",
"72 -264 LINE",
"152 -264 LINE",
"152 66 LINE",
"154 66 LINE",
"192 15 OFFCURVE",
"251 -13 OFFCURVE",
"315 -13 CURVE SMOOTH",
"456 -13 OFFCURVE",
"541 100 OFFCURVE",
"541 234 CURVE SMOOTH",
"541 364 OFFCURVE",
"454 483 OFFCURVE",
"316 483 CURVE SMOOTH",
"251 483 OFFCURVE",
"193 455 OFFCURVE",
"154 403 CURVE",
"152 403 LINE"
);
},
{
closed = 1;
nodes = (
"400 409 OFFCURVE",
"459 333 OFFCURVE",
"459 239 CURVE SMOOTH",
"459 144 OFFCURVE",
"405 61 OFFCURVE",
"302 61 CURVE SMOOTH",
"202 61 OFFCURVE",
"148 148 OFFCURVE",
"148 240 CURVE SMOOTH",
"148 328 OFFCURVE",
"208 409 OFFCURVE",
"301 409 CURVE SMOOTH"
);
}
);
width = 577;
}
);
unicode = 00FE;
},
{
changeCount = 1;
color = 6;
glyphname = u;
layers = (
{
background = {
paths = (
{
closed = 1;
nodes = (
"150 470 LINE",
"70 470 LINE",
"70 199 LINE SMOOTH",
"70 74 OFFCURVE",
"117 -13 OFFCURVE",
"256 -13 CURVE SMOOTH",
"395 -13 OFFCURVE",
"442 74 OFFCURVE",
"442 199 CURVE SMOOTH",
"442 470 LINE",
"362 470 LINE",
"362 208 LINE SMOOTH",
"362 129 OFFCURVE",
"353 61 OFFCURVE",
"256 61 CURVE SMOOTH",
"159 61 OFFCURVE",
"150 129 OFFCURVE",
"150 208 CURVE SMOOTH"
);
}
);
};
layerId = "A4368790-3638-4B5D-B474-0996C59BD988";
name = Regular;
paths = (
{
closed = 1;
nodes = (
"228 445 LINE",
"110 449 LINE",
"110 204 LINE SMOOTH",
"110 102 OFFCURVE",
"138 24 OFFCURVE",
"256 24 CURVE SMOOTH",
"374 24 OFFCURVE",
"402 102 OFFCURVE",
"402 204 CURVE SMOOTH",
"402 449 LINE"
);
}
);
width = 512;
}
);
unicode = 0075;
},
{
changeCount = 0;
export = 0;
glyphname = uacute;
layers = (
{
layerId = "A4368790-3638-4B5D-B474-0996C59BD988";
name = Regular;
paths = (
{
closed = 1;
nodes = (
"150 470 LINE",
"70 470 LINE",
"70 199 LINE SMOOTH",
"70 74 OFFCURVE",
"117 -13 OFFCURVE",
"256 -13 CURVE SMOOTH",
"395 -13 OFFCURVE",
"442 74 OFFCURVE",
"442 199 CURVE SMOOTH",
"442 470 LINE",
"362 470 LINE",
"362 208 LINE SMOOTH",
"362 129 OFFCURVE",
"353 61 OFFCURVE",
"256 61 CURVE SMOOTH",
"159 61 OFFCURVE",
"150 129 OFFCURVE",
"150 208 CURVE SMOOTH"
);
},
{
closed = 1;
nodes = (
"314 744 LINE",
"195 580 LINE",
"245 552 LINE",
"398 706 LINE"
);
}
);
width = 512;
}
);
leftKerningGroupId = "@MMK_R_u";
unicode = 00FA;
},
{
changeCount = 0;
export = 0;
glyphname = ucircumflex;
layers = (
{
layerId = "A4368790-3638-4B5D-B474-0996C59BD988";
name = Regular;
paths = (
{
closed = 1;
nodes = (
"150 470 LINE",
"70 470 LINE",
"70 199 LINE SMOOTH",
"70 74 OFFCURVE",
"117 -13 OFFCURVE",
"256 -13 CURVE SMOOTH",
"395 -13 OFFCURVE",
"442 74 OFFCURVE",
"442 199 CURVE SMOOTH",
"442 470 LINE",
"362 470 LINE",
"362 208 LINE SMOOTH",
"362 129 OFFCURVE",
"353 61 OFFCURVE",
"256 61 CURVE SMOOTH",
"159 61 OFFCURVE",
"150 129 OFFCURVE",
"150 208 CURVE SMOOTH"
);
},
{
closed = 1;
nodes = (
"99 604 LINE",
"156 559 LINE",
"255 644 LINE",
"355 559 LINE",
"413 604 LINE",
"255 737 LINE"
);
}
);
width = 512;
}
);
leftKerningGroupId = "@MMK_R_u";
unicode = 00FB;
},
{
changeCount = 1;
color = 6;
glyphname = udieresis;
layers = (
{
background = {
paths = (
{
closed = 1;
nodes = (
"150 470 LINE",
"70 470 LINE",
"70 199 LINE SMOOTH",
"70 74 OFFCURVE",
"117 -13 OFFCURVE",
"256 -13 CURVE SMOOTH",
"395 -13 OFFCURVE",
"442 74 OFFCURVE",
"442 199 CURVE SMOOTH",
"442 470 LINE",
"362 470 LINE",
"362 208 LINE SMOOTH",
"362 129 OFFCURVE",
"353 61 OFFCURVE",
"256 61 CURVE SMOOTH",
"159 61 OFFCURVE",
"150 129 OFFCURVE",
"150 208 CURVE SMOOTH"
);
},
{
closed = 1;
nodes = (
"128 705 OFFCURVE",
"104 681 OFFCURVE",
"104 651 CURVE SMOOTH",
"104 621 OFFCURVE",
"128 597 OFFCURVE",
"158 597 CURVE SMOOTH",
"188 597 OFFCURVE",
"212 621 OFFCURVE",
"212 651 CURVE SMOOTH",
"212 681 OFFCURVE",
"188 705 OFFCURVE",
"158 705 CURVE SMOOTH"
);
},
{
closed = 1;
nodes = (
"325 705 OFFCURVE",
"301 681 OFFCURVE",
"301 651 CURVE SMOOTH",
"301 621 OFFCURVE",
"325 597 OFFCURVE",
"355 597 CURVE SMOOTH",
"385 597 OFFCURVE",
"409 621 OFFCURVE",
"409 651 CURVE SMOOTH",
"409 681 OFFCURVE",
"385 705 OFFCURVE",
"355 705 CURVE SMOOTH"
);
}
);
};
layerId = "A4368790-3638-4B5D-B474-0996C59BD988";
name = Regular;
paths = (
{
closed = 1;
nodes = (
"164 651 LINE SMOOTH",
"153 650 LINE",
"153 661 LINE"
);
},
{
closed = 1;
nodes = (
"363 651 LINE",
"352 650 LINE",
"352 661 LINE"
);
},
{
closed = 1;
nodes = (
"228 445 LINE",
"110 449 LINE",
"110 204 LINE SMOOTH",
"110 102 OFFCURVE",
"138 24 OFFCURVE",
"256 24 CURVE SMOOTH",
"374 24 OFFCURVE",
"402 102 OFFCURVE",
"402 204 CURVE SMOOTH",
"402 449 LINE"
);
}
);
width = 512;
}
);
leftKerningGroupId = "@MMK_R_u";
unicode = 00FC;
},
{
changeCount = 0;
export = 0;
glyphname = ugrave;
layers = (
{
layerId = "A4368790-3638-4B5D-B474-0996C59BD988";
name = Regular;
paths = (
{
closed = 1;
nodes = (
"150 470 LINE",
"70 470 LINE",
"70 199 LINE SMOOTH",
"70 74 OFFCURVE",
"117 -13 OFFCURVE",
"256 -13 CURVE SMOOTH",
"395 -13 OFFCURVE",
"442 74 OFFCURVE",
"442 199 CURVE SMOOTH",
"442 470 LINE",
"362 470 LINE",
"362 208 LINE SMOOTH",
"362 129 OFFCURVE",
"353 61 OFFCURVE",
"256 61 CURVE SMOOTH",
"159 61 OFFCURVE",
"150 129 OFFCURVE",
"150 208 CURVE SMOOTH"
);
},
{
closed = 1;
nodes = (
"115 706 LINE",
"268 552 LINE",
"318 580 LINE",
"199 744 LINE"
);
}
);
width = 512;
}
);
leftKerningGroupId = "@MMK_R_u";
unicode = 00F9;
},
{
changeCount = 1;
color = 6;
glyphname = v;
layers = (
{
background = {
paths = (
{
closed = 1;
nodes = (
"92 470 LINE",
"1 470 LINE",
"232 -31 LINE",
"462 470 LINE",
"372 470 LINE",
"232 154 LINE"
);
}
);
};
layerId = "A4368790-3638-4B5D-B474-0996C59BD988";
name = Regular;
paths = (
{
closed = 1;
nodes = (
"158 443 LINE",
"46 447 LINE",
"231 38 LINE",
"416 447 LINE"
);
}
);
width = 463;
}
);
rightKerningGroupId = "@MMK_L_v";
unicode = 0076;
},
{
changeCount = 1;
color = 6;
glyphname = w;
layers = (
{
background = {
paths = (
{
closed = 1;
nodes = (
"94 470 LINE",
"3 470 LINE",
"234 -33 LINE",
"379 317 LINE",
"524 -33 LINE",
"757 470 LINE",
"666 470 LINE",
"526 152 LINE",
"379 506 LINE",
"233 152 LINE"
);
}
);
};
layerId = "A4368790-3638-4B5D-B474-0996C59BD988";
name = Regular;
paths = (
{
closed = 1;
nodes = (
"386 470 LINE",
"49 445 LINE",
"234 34 LINE",
"380 415 LINE",
"526 34 LINE",
"712 445 LINE"
);
}
);
width = 760;
}
);
rightKerningGroupId = "@MMK_L_w";
unicode = 0077;
},
{
changeCount = 1;
color = 6;
glyphname = x;
layers = (
{
background = {
paths = (
{
closed = 1;
nodes = (
"201 250 LINE",
"1 0 LINE",
"101 0 LINE",
"251 191 LINE",
"400 0 LINE",
"497 0 LINE",
"302 250 LINE",
"474 470 LINE",
"374 470 LINE",
"251 310 LINE",
"128 470 LINE",
"30 470 LINE"
);
}
);
};
layerId = "A4368790-3638-4B5D-B474-0996C59BD988";
name = Regular;
paths = (
{
closed = 1;
nodes = (
"134 245 LINE",
"91 455 LINE",
"436 15 LINE"
);
},
{
closed = 1;
nodes = (
"362 225 LINE",
"416 455 LINE",
"65 15 LINE"
);
}
);
width = 498;
}
);
unicode = 0078;
},
{
changeCount = 1;
color = 6;
glyphname = y;
layers = (
{
background = {
paths = (
{
closed = 1;
nodes = (
"214 44 LINE",
"62 -264 LINE",
"153 -264 LINE",
"500 470 LINE",
"409 470 LINE",
"257 133 LINE",
"91 470 LINE",
"-2 470 LINE"
);
}
);
};
layerId = "A4368790-3638-4B5D-B474-0996C59BD988";
name = Regular;
paths = (
{
closed = 1;
nodes = (
"329 25 LINE",
"118 -245 LINE",
"444 440 LINE"
);
},
{
closed = 1;
nodes = (
"108 180 LINE",
"258 49 LINE",
"57 440 LINE"
);
}
);
width = 498;
}
);
leftKerningGroupId = "@MMK_R_y";
rightKerningGroupId = "@MMK_L_y";
unicode = 0079;
},
{
changeCount = 0;
export = 0;
glyphname = yacute;
layers = (
{
layerId = "A4368790-3638-4B5D-B474-0996C59BD988";
name = Regular;
paths = (
{
closed = 1;
nodes = (
"214 44 LINE",
"62 -264 LINE",
"153 -264 LINE",
"500 470 LINE",
"409 470 LINE",
"257 133 LINE",
"91 470 LINE",
"-2 470 LINE"
);
},
{
closed = 1;
nodes = (
"327 744 LINE",
"208 580 LINE",
"258 552 LINE",
"411 706 LINE"
);
}
);
width = 498;
}
);
leftKerningGroupId = "@MMK_R_y";
rightKerningGroupId = "@MMK_L_y";
unicode = 00FD;
},
{
changeCount = 0;
export = 0;
glyphname = ydieresis;
layers = (
{
layerId = "A4368790-3638-4B5D-B474-0996C59BD988";
name = Regular;
paths = (
{
closed = 1;
nodes = (
"214 44 LINE",
"62 -264 LINE",
"153 -264 LINE",
"500 470 LINE",
"409 470 LINE",
"257 133 LINE",
"91 470 LINE",
"-2 470 LINE"
);
},
{
closed = 1;
nodes = (
"126 705 OFFCURVE",
"102 681 OFFCURVE",
"102 651 CURVE SMOOTH",
"102 621 OFFCURVE",
"126 597 OFFCURVE",
"156 597 CURVE SMOOTH",
"186 597 OFFCURVE",
"210 621 OFFCURVE",
"210 651 CURVE SMOOTH",
"210 681 OFFCURVE",
"186 705 OFFCURVE",
"156 705 CURVE SMOOTH"
);
},
{
closed = 1;
nodes = (
"323 705 OFFCURVE",
"299 681 OFFCURVE",
"299 651 CURVE SMOOTH",
"299 621 OFFCURVE",
"323 597 OFFCURVE",
"353 597 CURVE SMOOTH",
"383 597 OFFCURVE",
"407 621 OFFCURVE",
"407 651 CURVE SMOOTH",
"407 681 OFFCURVE",
"383 705 OFFCURVE",
"353 705 CURVE SMOOTH"
);
}
);
width = 498;
}
);
leftKerningGroupId = "@MMK_R_y";
rightKerningGroupId = "@MMK_L_y";
unicode = 00FF;
},
{
changeCount = 1;
color = 6;
glyphname = z;
layers = (
{
background = {
paths = (
{
closed = 1;
nodes = (
"172 74 LINE",
"510 470 LINE",
"73 470 LINE",
"73 396 LINE",
"349 396 LINE",
"10 0 LINE",
"496 0 LINE",
"496 74 LINE"
);
}
);
};
layerId = "A4368790-3638-4B5D-B474-0996C59BD988";
name = Regular;
paths = (
{
closed = 1;
nodes = (
"92 272 LINE",
"476 37 LINE",
"93 37 LINE",
"432 433 LINE",
"94 433 LINE SMOOTH"
);
}
);
width = 519;
}
);
unicode = 007A;
},
{
changeCount = 0;
export = 0;
glyphname = zcaron;
layers = (
{
layerId = "A4368790-3638-4B5D-B474-0996C59BD988";
name = Regular;
paths = (
{
closed = 1;
nodes = (
"172 74 LINE",
"510 470 LINE",
"73 470 LINE",
"73 396 LINE",
"349 396 LINE",
"10 0 LINE",
"496 0 LINE",
"496 74 LINE"
);
},
{
closed = 1;
nodes = (
"432 692 LINE",
"375 737 LINE",
"276 652 LINE",
"176 737 LINE",
"118 692 LINE",
"276 559 LINE"
);
}
);
width = 519;
}
);
unicode = 017E;
},
{
changeCount = 0;
export = 0;
glyphname = a.superior;
layers = (
{
layerId = "A4368790-3638-4B5D-B474-0996C59BD988";
name = Regular;
paths = (
{
closed = 1;
nodes = (
"238 723 OFFCURVE",
"276 677 OFFCURVE",
"276 620 CURVE SMOOTH",
"276 563 OFFCURVE",
"241 513 OFFCURVE",
"174 513 CURVE SMOOTH",
"109 513 OFFCURVE",
"73 566 OFFCURVE",
"73 621 CURVE SMOOTH",
"73 674 OFFCURVE",
"113 723 OFFCURVE",
"174 723 CURVE SMOOTH"
);
},
{
closed = 1;
nodes = (
"326 759 LINE",
"274 759 LINE",
"274 719 LINE",
"272 719 LINE",
"247 749 OFFCURVE",
"209 767 OFFCURVE",
"168 767 CURVE SMOOTH",
"76 767 OFFCURVE",
"21 698 OFFCURVE",
"21 617 CURVE SMOOTH",
"21 539 OFFCURVE",
"77 469 OFFCURVE",
"167 469 CURVE SMOOTH",
"210 469 OFFCURVE",
"246 485 OFFCURVE",
"272 516 CURVE",
"274 516 LINE",
"274 477 LINE",
"326 477 LINE"
);
}
);
width = 346;
}
);
},
{
changeCount = 0;
export = 0;
glyphname = o.superior;
layers = (
{
layerId = "A4368790-3638-4B5D-B474-0996C59BD988";
name = Regular;
paths = (
{
closed = 1;
nodes = (
"258 469 OFFCURVE",
"330 534 OFFCURVE",
"330 617 CURVE SMOOTH",
"330 700 OFFCURVE",
"259 767 OFFCURVE",
"169 767 CURVE SMOOTH",
"79 767 OFFCURVE",
"8 700 OFFCURVE",
"8 617 CURVE SMOOTH",
"8 534 OFFCURVE",
"80 469 OFFCURVE",
"169 469 CURVE SMOOTH"
);
},
{
closed = 1;
nodes = (
"233 723 OFFCURVE",
"278 675 OFFCURVE",
"278 618 CURVE SMOOTH",
"278 560 OFFCURVE",
"233 513 OFFCURVE",
"169 513 CURVE SMOOTH",
"105 513 OFFCURVE",
"60 560 OFFCURVE",
"60 618 CURVE SMOOTH",
"60 675 OFFCURVE",
"105 723 OFFCURVE",
"169 723 CURVE SMOOTH"
);
}
);
width = 337;
}
);
},
{
changeCount = 0;
export = 0;
glyphname = f_i;
layers = (
{
layerId = "A4368790-3638-4B5D-B474-0996C59BD988";
name = Regular;
paths = (
{
closed = 1;
nodes = (
"151 396 LINE",
"270 396 LINE",
"270 470 LINE",
"151 470 LINE",
"151 629 LINE SMOOTH",
"151 712 OFFCURVE",
"151 758 OFFCURVE",
"216 758 CURVE SMOOTH",
"236 758 OFFCURVE",
"252 753 OFFCURVE",
"270 747 CURVE",
"270 828 LINE",
"251 834 OFFCURVE",
"232 838 OFFCURVE",
"213 838 CURVE SMOOTH",
"165 838 OFFCURVE",
"118 821 OFFCURVE",
"92 779 CURVE SMOOTH",
"71 745 OFFCURVE",
"71 696 OFFCURVE",
"71 657 CURVE SMOOTH",
"71 470 LINE",
"27 470 LINE",
"27 396 LINE",
"71 396 LINE",
"71 0 LINE",
"151 0 LINE"
);
},
{
closed = 1;
nodes = (
"428 470 LINE",
"348 470 LINE",
"348 0 LINE",
"428 0 LINE"
);
},
{
closed = 1;
nodes = (
"357 704 OFFCURVE",
"331 678 OFFCURVE",
"331 647 CURVE SMOOTH",
"331 615 OFFCURVE",
"357 590 OFFCURVE",
"388 590 CURVE SMOOTH",
"419 590 OFFCURVE",
"445 615 OFFCURVE",
"445 647 CURVE SMOOTH",
"445 678 OFFCURVE",
"419 704 OFFCURVE",
"388 704 CURVE SMOOTH"
);
}
);
width = 519;
}
);
leftKerningGroupId = "@MMK_R_f";
},
{
changeCount = 0;
export = 0;
glyphname = f_l;
layers = (
{
layerId = "A4368790-3638-4B5D-B474-0996C59BD988";
name = Regular;
paths = (
{
closed = 1;
nodes = (
"428 825 LINE",
"348 825 LINE",
"348 0 LINE",
"428 0 LINE"
);
},
{
closed = 1;
nodes = (
"151 396 LINE",
"270 396 LINE",
"270 470 LINE",
"151 470 LINE",
"151 629 LINE SMOOTH",
"151 712 OFFCURVE",
"151 758 OFFCURVE",
"216 758 CURVE SMOOTH",
"236 758 OFFCURVE",
"252 753 OFFCURVE",
"270 747 CURVE",
"270 828 LINE",
"251 834 OFFCURVE",
"232 838 OFFCURVE",
"213 838 CURVE SMOOTH",
"165 838 OFFCURVE",
"118 821 OFFCURVE",
"92 779 CURVE SMOOTH",
"71 745 OFFCURVE",
"71 696 OFFCURVE",
"71 657 CURVE SMOOTH",
"71 470 LINE",
"27 470 LINE",
"27 396 LINE",
"71 396 LINE",
"71 0 LINE",
"151 0 LINE"
);
}
);
width = 501;
}
);
leftKerningGroupId = "@MMK_R_f";
},
{
changeCount = 0;
export = 0;
glyphname = fi;
layers = (
{
layerId = "A4368790-3638-4B5D-B474-0996C59BD988";
name = Regular;
paths = (
{
closed = 1;
nodes = (
"151 396 LINE",
"270 396 LINE",
"270 470 LINE",
"151 470 LINE",
"151 629 LINE SMOOTH",
"151 712 OFFCURVE",
"151 758 OFFCURVE",
"216 758 CURVE SMOOTH",
"236 758 OFFCURVE",
"252 753 OFFCURVE",
"270 747 CURVE",
"270 828 LINE",
"251 834 OFFCURVE",
"232 838 OFFCURVE",
"213 838 CURVE SMOOTH",
"165 838 OFFCURVE",
"118 821 OFFCURVE",
"92 779 CURVE SMOOTH",
"71 745 OFFCURVE",
"71 696 OFFCURVE",
"71 657 CURVE SMOOTH",
"71 470 LINE",
"27 470 LINE",
"27 396 LINE",
"71 396 LINE",
"71 0 LINE",
"151 0 LINE"
);
},
{
closed = 1;
nodes = (
"428 470 LINE",
"348 470 LINE",
"348 0 LINE",
"428 0 LINE"
);
},
{
closed = 1;
nodes = (
"357 704 OFFCURVE",
"331 678 OFFCURVE",
"331 647 CURVE SMOOTH",
"331 615 OFFCURVE",
"357 590 OFFCURVE",
"388 590 CURVE SMOOTH",
"419 590 OFFCURVE",
"445 615 OFFCURVE",
"445 647 CURVE SMOOTH",
"445 678 OFFCURVE",
"419 704 OFFCURVE",
"388 704 CURVE SMOOTH"
);
}
);
width = 519;
}
);
leftKerningGroupId = "@MMK_R_f";
unicode = FB01;
},
{
changeCount = 0;
export = 0;
glyphname = fl;
layers = (
{
layerId = "A4368790-3638-4B5D-B474-0996C59BD988";
name = Regular;
paths = (
{
closed = 1;
nodes = (
"428 825 LINE",
"348 825 LINE",
"348 0 LINE",
"428 0 LINE"
);
},
{
closed = 1;
nodes = (
"151 396 LINE",
"270 396 LINE",
"270 470 LINE",
"151 470 LINE",
"151 629 LINE SMOOTH",
"151 712 OFFCURVE",
"151 758 OFFCURVE",
"216 758 CURVE SMOOTH",
"236 758 OFFCURVE",
"252 753 OFFCURVE",
"270 747 CURVE",
"270 828 LINE",
"251 834 OFFCURVE",
"232 838 OFFCURVE",
"213 838 CURVE SMOOTH",
"165 838 OFFCURVE",
"118 821 OFFCURVE",
"92 779 CURVE SMOOTH",
"71 745 OFFCURVE",
"71 696 OFFCURVE",
"71 657 CURVE SMOOTH",
"71 470 LINE",
"27 470 LINE",
"27 396 LINE",
"71 396 LINE",
"71 0 LINE",
"151 0 LINE"
);
}
);
width = 501;
}
);
leftKerningGroupId = "@MMK_R_f";
unicode = FB02;
},
{
changeCount = 0;
export = 0;
glyphname = ordfeminine;
layers = (
{
layerId = "A4368790-3638-4B5D-B474-0996C59BD988";
name = Regular;
paths = (
{
closed = 1;
nodes = (
"238 723 OFFCURVE",
"276 677 OFFCURVE",
"276 620 CURVE SMOOTH",
"276 563 OFFCURVE",
"241 513 OFFCURVE",
"174 513 CURVE SMOOTH",
"109 513 OFFCURVE",
"73 566 OFFCURVE",
"73 621 CURVE SMOOTH",
"73 674 OFFCURVE",
"113 723 OFFCURVE",
"174 723 CURVE SMOOTH"
);
},
{
closed = 1;
nodes = (
"326 759 LINE",
"274 759 LINE",
"274 719 LINE",
"272 719 LINE",
"247 749 OFFCURVE",
"209 767 OFFCURVE",
"168 767 CURVE SMOOTH",
"76 767 OFFCURVE",
"21 698 OFFCURVE",
"21 617 CURVE SMOOTH",
"21 539 OFFCURVE",
"77 469 OFFCURVE",
"167 469 CURVE SMOOTH",
"210 469 OFFCURVE",
"246 485 OFFCURVE",
"272 516 CURVE",
"274 516 LINE",
"274 477 LINE",
"326 477 LINE"
);
}
);
width = 346;
}
);
unicode = 00AA;
},
{
changeCount = 0;
export = 0;
glyphname = ordmasculine;
layers = (
{
layerId = "A4368790-3638-4B5D-B474-0996C59BD988";
name = Regular;
paths = (
{
closed = 1;
nodes = (
"258 469 OFFCURVE",
"330 534 OFFCURVE",
"330 617 CURVE SMOOTH",
"330 700 OFFCURVE",
"259 767 OFFCURVE",
"169 767 CURVE SMOOTH",
"79 767 OFFCURVE",
"8 700 OFFCURVE",
"8 617 CURVE SMOOTH",
"8 534 OFFCURVE",
"80 469 OFFCURVE",
"169 469 CURVE SMOOTH"
);
},
{
closed = 1;
nodes = (
"233 723 OFFCURVE",
"278 675 OFFCURVE",
"278 618 CURVE SMOOTH",
"278 560 OFFCURVE",
"233 513 OFFCURVE",
"169 513 CURVE SMOOTH",
"105 513 OFFCURVE",
"60 560 OFFCURVE",
"60 618 CURVE SMOOTH",
"60 675 OFFCURVE",
"105 723 OFFCURVE",
"169 723 CURVE SMOOTH"
);
}
);
width = 337;
}
);
unicode = 00BA;
},
{
changeCount = 0;
export = 0;
glyphname = florin;
layers = (
{
layerId = "A4368790-3638-4B5D-B474-0996C59BD988";
name = Regular;
paths = (
{
closed = 1;
nodes = (
"538 825 LINE",
"516 834 OFFCURVE",
"493 838 OFFCURVE",
"470 838 CURVE SMOOTH",
"355 838 OFFCURVE",
"321 758 OFFCURVE",
"304 660 CURVE SMOOTH",
"276 502 LINE",
"192 502 LINE",
"181 434 LINE",
"263 434 LINE",
"206 124 LINE SMOOTH",
"189 27 OFFCURVE",
"174 -62 OFFCURVE",
"55 -62 CURVE SMOOTH",
"21 -61 LINE",
"5 -136 LINE",
"55 -140 LINE",
"123 -140 OFFCURVE",
"194 -118 OFFCURVE",
"234 -60 CURVE SMOOTH",
"266 -12 OFFCURVE",
"278 64 OFFCURVE",
"288 120 CURVE SMOOTH",
"346 434 LINE",
"467 434 LINE",
"478 502 LINE",
"358 502 LINE",
"383 638 LINE SMOOTH",
"389 666 OFFCURVE",
"396 703 OFFCURVE",
"409 729 CURVE SMOOTH",
"423 755 OFFCURVE",
"445 761 OFFCURVE",
"473 761 CURVE SMOOTH",
"491 761 OFFCURVE",
"507 757 OFFCURVE",
"523 750 CURVE"
);
}
);
width = 616;
}
);
unicode = 0192;
},
{
changeCount = 0;
export = 0;
glyphname = Omega;
layers = (
{
layerId = "A4368790-3638-4B5D-B474-0996C59BD988";
name = Regular;
paths = (
{
closed = 1;
nodes = (
"222 64 LINE",
"55 64 LINE",
"55 0 LINE",
"320 0 LINE",
"320 47 LINE",
"234 100 OFFCURVE",
"150 228 OFFCURVE",
"150 391 CURVE SMOOTH",
"150 561 OFFCURVE",
"248 699 OFFCURVE",
"402 699 CURVE SMOOTH",
"565 699 OFFCURVE",
"649 535 OFFCURVE",
"649 393 CURVE SMOOTH",
"649 220 OFFCURVE",
"565 101 OFFCURVE",
"479 47 CURVE",
"479 0 LINE",
"743 0 LINE",
"743 64 LINE",
"575 64 LINE",
"575 67 LINE",
"651 128 OFFCURVE",
"728 249 OFFCURVE",
"728 407 CURVE SMOOTH",
"728 594 OFFCURVE",
"601 763 OFFCURVE",
"403 763 CURVE SMOOTH",
"215 763 OFFCURVE",
"71 615 OFFCURVE",
"71 403 CURVE SMOOTH",
"71 250 OFFCURVE",
"143 134 OFFCURVE",
"222 67 CURVE"
);
}
);
width = 800;
}
);
unicode = 03A9;
},
{
changeCount = 0;
export = 0;
glyphname = Omega.001;
layers = (
{
anchors = (
{
name = topleft;
position = "{20, 754}";
}
);
layerId = "A4368790-3638-4B5D-B474-0996C59BD988";
name = Regular;
paths = (
{
closed = 1;
nodes = (
"222 64 LINE",
"55 64 LINE",
"55 0 LINE",
"320 0 LINE",
"320 47 LINE",
"234 100 OFFCURVE",
"150 228 OFFCURVE",
"150 391 CURVE SMOOTH",
"150 561 OFFCURVE",
"248 699 OFFCURVE",
"402 699 CURVE SMOOTH",
"565 699 OFFCURVE",
"649 535 OFFCURVE",
"649 393 CURVE SMOOTH",
"649 220 OFFCURVE",
"565 101 OFFCURVE",
"479 47 CURVE",
"479 0 LINE",
"743 0 LINE",
"743 64 LINE",
"575 64 LINE",
"575 67 LINE",
"651 128 OFFCURVE",
"728 249 OFFCURVE",
"728 407 CURVE SMOOTH",
"728 594 OFFCURVE",
"601 763 OFFCURVE",
"403 763 CURVE SMOOTH",
"215 763 OFFCURVE",
"71 615 OFFCURVE",
"71 403 CURVE SMOOTH",
"71 250 OFFCURVE",
"143 134 OFFCURVE",
"222 67 CURVE"
);
}
);
width = 800;
}
);
},
{
changeCount = 0;
export = 0;
glyphname = mu;
layers = (
{
layerId = "A4368790-3638-4B5D-B474-0996C59BD988";
name = Regular;
paths = (
{
closed = 1;
nodes = (
"150 470 LINE",
"70 470 LINE",
"70 -264 LINE",
"150 -264 LINE",
"150 34 LINE",
"193 -7 OFFCURVE",
"222 -13 OFFCURVE",
"256 -13 CURVE SMOOTH",
"395 -13 OFFCURVE",
"442 74 OFFCURVE",
"442 199 CURVE SMOOTH",
"442 470 LINE",
"362 470 LINE",
"362 208 LINE SMOOTH",
"362 129 OFFCURVE",
"353 61 OFFCURVE",
"256 61 CURVE SMOOTH",
"159 61 OFFCURVE",
"150 129 OFFCURVE",
"150 208 CURVE SMOOTH"
);
}
);
width = 512;
}
);
unicode = 03BC;
},
{
changeCount = 0;
export = 0;
glyphname = pi;
layers = (
{
layerId = "A4368790-3638-4B5D-B474-0996C59BD988";
name = Regular;
paths = (
{
closed = 1;
nodes = (
"599 492 LINE",
"607 559 LINE",
"167 559 LINE SMOOTH",
"83 559 OFFCURVE",
"38 547 OFFCURVE",
"10 530 CURVE",
"23 478 LINE",
"46 487 OFFCURVE",
"77 492 OFFCURVE",
"148 492 CURVE",
"142 346 OFFCURVE",
"109 115 OFFCURVE",
"67 0 CURVE",
"144 0 LINE",
"185 100 OFFCURVE",
"219 351 OFFCURVE",
"226 492 CURVE",
"430 492 LINE",
"430 153 LINE SMOOTH",
"430 62 OFFCURVE",
"438 17 OFFCURVE",
"449 0 CURVE",
"525 0 LINE",
"516 29 OFFCURVE",
"508 69 OFFCURVE",
"508 160 CURVE SMOOTH",
"508 492 LINE"
);
}
);
width = 628;
}
);
unicode = 03C0;
},
{
changeCount = 0;
export = 0;
glyphname = mu.001;
layers = (
{
layerId = "A4368790-3638-4B5D-B474-0996C59BD988";
name = Regular;
paths = (
{
closed = 1;
nodes = (
"150 470 LINE",
"70 470 LINE",
"70 -264 LINE",
"150 -264 LINE",
"150 34 LINE",
"193 -7 OFFCURVE",
"222 -13 OFFCURVE",
"256 -13 CURVE SMOOTH",
"395 -13 OFFCURVE",
"442 74 OFFCURVE",
"442 199 CURVE SMOOTH",
"442 470 LINE",
"362 470 LINE",
"362 208 LINE SMOOTH",
"362 129 OFFCURVE",
"353 61 OFFCURVE",
"256 61 CURVE SMOOTH",
"159 61 OFFCURVE",
"150 129 OFFCURVE",
"150 208 CURVE SMOOTH"
);
}
);
width = 512;
}
);
},
{
changeCount = 1;
color = 6;
glyphname = zero;
layers = (
{
background = {
paths = (
{
closed = 1;
nodes = (
"117 767 OFFCURVE",
"38 531 OFFCURVE",
"38 376 CURVE SMOOTH",
"38 190 OFFCURVE",
"136 -13 OFFCURVE",
"308 -13 CURVE SMOOTH",
"480 -13 OFFCURVE",
"578 190 OFFCURVE",
"578 376 CURVE SMOOTH",
"578 531 OFFCURVE",
"499 767 OFFCURVE",
"308 767 CURVE SMOOTH"
);
},
{
closed = 1;
nodes = (
"450 689 OFFCURVE",
"496 479 OFFCURVE",
"494 372 CURVE SMOOTH",
"492 266 OFFCURVE",
"447 65 OFFCURVE",
"308 65 CURVE SMOOTH",
"169 65 OFFCURVE",
"124 266 OFFCURVE",
"122 372 CURVE SMOOTH",
"120 479 OFFCURVE",
"166 689 OFFCURVE",
"308 689 CURVE SMOOTH"
);
}
);
};
layerId = "A4368790-3638-4B5D-B474-0996C59BD988";
name = Regular;
paths = (
{
closed = 1;
nodes = (
"309 25 LINE",
"316 25 LINE SMOOTH",
"466 31 OFFCURVE",
"536 229 OFFCURVE",
"537 373 CURVE SMOOTH",
"538 504 OFFCURVE",
"475 727 OFFCURVE",
"309 727 CURVE",
"142 727 OFFCURVE",
"80 504 OFFCURVE",
"81 373 CURVE SMOOTH",
"82 229 OFFCURVE",
"151 32 OFFCURVE",
"301 25 CURVE SMOOTH"
);
}
);
width = 616;
}
);
unicode = 0030;
},
{
changeCount = 1;
color = 6;
glyphname = one;
layers = (
{
background = {
paths = (
{
closed = 1;
nodes = (
"283 676 LINE",
"283 0 LINE",
"367 0 LINE",
"367 754 LINE",
"202 754 LINE",
"158 676 LINE"
);
}
);
};
layerId = "A4368790-3638-4B5D-B474-0996C59BD988";
name = Regular;
paths = (
{
closed = 1;
nodes = (
"247 380 LINE",
"327 20 LINE",
"327 715 LINE",
"200 715 LINE"
);
}
);
width = 616;
}
);
unicode = 0031;
},
{
changeCount = 1;
color = 6;
glyphname = two;
layers = (
{
background = {
paths = (
{
closed = 1;
nodes = (
"211 78 LINE",
"472 385 LINE SMOOTH",
"511 430 OFFCURVE",
"529 483 OFFCURVE",
"529 544 CURVE SMOOTH",
"529 675 OFFCURVE",
"418 767 OFFCURVE",
"292 767 CURVE SMOOTH",
"159 767 OFFCURVE",
"62 666 OFFCURVE",
"59 534 CURVE",
"143 534 LINE",
"145 622 OFFCURVE",
"204 689 OFFCURVE",
"295 689 CURVE SMOOTH",
"377 689 OFFCURVE",
"445 627 OFFCURVE",
"445 543 CURVE SMOOTH",
"445 494 OFFCURVE",
"424 453 OFFCURVE",
"394 417 CURVE SMOOTH",
"41 0 LINE",
"529 0 LINE",
"529 78 LINE"
);
}
);
};
layerId = "A4368790-3638-4B5D-B474-0996C59BD988";
name = Regular;
paths = (
{
closed = 1;
nodes = (
"274 496 LINE",
"509 40 LINE",
"125 40 LINE",
"432 402 LINE SMOOTH",
"466 442 OFFCURVE",
"486 489 OFFCURVE",
"486 544 CURVE SMOOTH",
"486 652 OFFCURVE",
"396 729 OFFCURVE",
"292 729 CURVE SMOOTH",
"189 729 OFFCURVE",
"115 658 OFFCURVE",
"102 561 CURVE"
);
}
);
width = 616;
}
);
unicode = 0032;
},
{
changeCount = 1;
color = 6;
glyphname = three;
layers = (
{
background = {
paths = (
{
closed = 1;
nodes = (
"271 357 LINE",
"363 360 OFFCURVE",
"431 312 OFFCURVE",
"431 216 CURVE SMOOTH",
"431 133 OFFCURVE",
"368 65 OFFCURVE",
"284 65 CURVE SMOOTH",
"208 65 OFFCURVE",
"143 119 OFFCURVE",
"139 196 CURVE",
"57 196 LINE",
"59 70 OFFCURVE",
"159 -13 OFFCURVE",
"281 -13 CURVE SMOOTH",
"410 -13 OFFCURVE",
"515 79 OFFCURVE",
"515 211 CURVE SMOOTH",
"515 288 OFFCURVE",
"480 363 OFFCURVE",
"407 396 CURVE",
"468 427 OFFCURVE",
"504 494 OFFCURVE",
"504 561 CURVE SMOOTH",
"504 685 OFFCURVE",
"411 767 OFFCURVE",
"290 767 CURVE SMOOTH",
"166 767 OFFCURVE",
"93 688 OFFCURVE",
"81 568 CURVE",
"164 568 LINE",
"171 639 OFFCURVE",
"213 689 OFFCURVE",
"288 689 CURVE SMOOTH",
"367 689 OFFCURVE",
"420 637 OFFCURVE",
"420 557 CURVE SMOOTH",
"420 462 OFFCURVE",
"351 438 OFFCURVE",
"271 435 CURVE"
);
}
);
};
layerId = "A4368790-3638-4B5D-B474-0996C59BD988";
name = Regular;
paths = (
{
closed = 1;
nodes = (
"154 365 LINE",
"101 179 LINE",
"111 86 OFFCURVE",
"190 25 OFFCURVE",
"284 25 CURVE SMOOTH",
"390 25 OFFCURVE",
"474 105 OFFCURVE",
"474 213 CURVE SMOOTH",
"474 293 OFFCURVE",
"422 395 OFFCURVE",
"287 395 CURVE",
"386 395 OFFCURVE",
"463 463 OFFCURVE",
"463 558 CURVE SMOOTH",
"463 660 OFFCURVE",
"390 727 OFFCURVE",
"290 727 CURVE SMOOTH",
"198 727 OFFCURVE",
"142 672 OFFCURVE",
"127 588 CURVE"
);
}
);
width = 616;
}
);
unicode = 0033;
},
{
changeCount = 1;
color = 6;
glyphname = four;
layers = (
{
background = {
paths = (
{
closed = 1;
nodes = (
"476 200 LINE",
"476 796 LINE",
"474 796 LINE",
"6 122 LINE",
"392 122 LINE",
"392 0 LINE",
"476 0 LINE",
"476 122 LINE",
"569 122 LINE",
"569 200 LINE"
);
},
{
closed = 1;
nodes = (
"392 200 LINE",
"153 200 LINE",
"390 541 LINE",
"392 541 LINE"
);
}
);
};
layerId = "A4368790-3638-4B5D-B474-0996C59BD988";
name = Regular;
paths = (
{
closed = 1;
nodes = (
"516 73 LINE",
"434 19 LINE",
"434 711 LINE",
"79 160 LINE",
"548 159 LINE"
);
}
);
width = 616;
}
);
unicode = 0034;
},
{
changeCount = 1;
color = 6;
glyphname = five;
layers = (
{
background = {
paths = (
{
closed = 1;
nodes = (
"523 676 LINE",
"523 754 LINE",
"223 754 LINE",
"114 393 LINE",
"157 421 OFFCURVE",
"205 441 OFFCURVE",
"257 441 CURVE SMOOTH",
"362 441 OFFCURVE",
"445 365 OFFCURVE",
"445 258 CURVE SMOOTH",
"445 148 OFFCURVE",
"366 65 OFFCURVE",
"255 65 CURVE SMOOTH",
"183 65 OFFCURVE",
"122 109 OFFCURVE",
"88 170 CURVE",
"21 122 LINE",
"71 37 OFFCURVE",
"153 -13 OFFCURVE",
"252 -13 CURVE SMOOTH",
"406 -13 OFFCURVE",
"529 100 OFFCURVE",
"529 256 CURVE SMOOTH",
"529 402 OFFCURVE",
"427 519 OFFCURVE",
"278 519 CURVE",
"233 515 LINE",
"282 676 LINE"
);
}
);
};
layerId = "A4368790-3638-4B5D-B474-0996C59BD988";
name = Regular;
paths = (
{
closed = 1;
nodes = (
"589 339 LINE",
"501 716 LINE",
"251 716 LINE",
"172 455 LINE",
"194 469 OFFCURVE",
"240 481 OFFCURVE",
"266 481 CURVE SMOOTH",
"393 481 OFFCURVE",
"486 384 OFFCURVE",
"486 258 CURVE SMOOTH",
"486 125 OFFCURVE",
"385 27 OFFCURVE",
"252 27 CURVE SMOOTH",
"176 27 OFFCURVE",
"111 64 OFFCURVE",
"68 124 CURVE"
);
}
);
width = 616;
}
);
unicode = 0035;
},
{
changeCount = 1;
color = 6;
glyphname = six;
layers = (
{
background = {
paths = (
{
closed = 1;
nodes = (
"363 767 LINE",
"113 426 LINE SMOOTH",
"75 373 OFFCURVE",
"44 314 OFFCURVE",
"44 245 CURVE SMOOTH",
"44 103 OFFCURVE",
"161 -13 OFFCURVE",
"304 -13 CURVE SMOOTH",
"446 -13 OFFCURVE",
"564 102 OFFCURVE",
"564 246 CURVE SMOOTH",
"564 382 OFFCURVE",
"457 495 OFFCURVE",
"320 495 CURVE SMOOTH",
"309 495 OFFCURVE",
"297 494 OFFCURVE",
"286 492 CURVE SMOOTH",
"275 490 OFFCURVE",
"264 488 OFFCURVE",
"254 484 CURVE",
"252 486 LINE",
"426 720 LINE"
);
},
{
closed = 1;
nodes = (
"206 65 OFFCURVE",
"128 145 OFFCURVE",
"128 243 CURVE SMOOTH",
"128 341 OFFCURVE",
"206 417 OFFCURVE",
"304 417 CURVE SMOOTH",
"401 417 OFFCURVE",
"480 341 OFFCURVE",
"480 243 CURVE SMOOTH",
"480 145 OFFCURVE",
"402 65 OFFCURVE",
"304 65 CURVE SMOOTH"
);
}
);
};
layerId = "A4368790-3638-4B5D-B474-0996C59BD988";
name = Regular;
paths = (
{
closed = 1;
nodes = (
"242 310 LINE",
"383 727 LINE",
"120 360 LINE SMOOTH",
"98 326 OFFCURVE",
"84 285 OFFCURVE",
"84 241 CURVE SMOOTH",
"84 122 OFFCURVE",
"182 26 OFFCURVE",
"303 26 CURVE SMOOTH",
"424 26 OFFCURVE",
"522 122 OFFCURVE",
"522 241 CURVE SMOOTH",
"522 360 OFFCURVE",
"426 453 OFFCURVE",
"305 453 CURVE SMOOTH",
"237 453 OFFCURVE",
"170 422 OFFCURVE",
"130 374 CURVE"
);
}
);
width = 616;
}
);
unicode = 0036;
},
{
changeCount = 1;
color = 6;
glyphname = seven;
layers = (
{
background = {
paths = (
{
closed = 1;
nodes = (
"463 676 LINE",
"35 26 LINE",
"101 -13 LINE",
"607 754 LINE",
"51 754 LINE",
"51 676 LINE"
);
}
);
};
layerId = "A4368790-3638-4B5D-B474-0996C59BD988";
name = Regular;
paths = (
{
closed = 1;
nodes = (
"155 459 LINE",
"81 24 LINE",
"536 715 LINE",
"73 715 LINE"
);
}
);
width = 616;
}
);
unicode = 0037;
},
{
changeCount = 1;
color = 6;
glyphname = eight;
layers = (
{
background = {
paths = (
{
closed = 1;
nodes = (
"390 355 OFFCURVE",
"454 290 OFFCURVE",
"454 210 CURVE SMOOTH",
"454 130 OFFCURVE",
"390 65 OFFCURVE",
"308 65 CURVE SMOOTH",
"226 65 OFFCURVE",
"162 130 OFFCURVE",
"162 210 CURVE SMOOTH",
"162 290 OFFCURVE",
"226 355 OFFCURVE",
"308 355 CURVE SMOOTH"
);
},
{
closed = 1;
nodes = (
"190 767 OFFCURVE",
"97 678 OFFCURVE",
"97 557 CURVE SMOOTH",
"97 491 OFFCURVE",
"131 425 OFFCURVE",
"189 392 CURVE",
"118 360 OFFCURVE",
"78 288 OFFCURVE",
"78 211 CURVE SMOOTH",
"78 81 OFFCURVE",
"178 -13 OFFCURVE",
"308 -13 CURVE SMOOTH",
"438 -13 OFFCURVE",
"538 81 OFFCURVE",
"538 211 CURVE SMOOTH",
"538 288 OFFCURVE",
"498 360 OFFCURVE",
"427 392 CURVE",
"485 425 OFFCURVE",
"519 491 OFFCURVE",
"519 557 CURVE SMOOTH",
"519 678 OFFCURVE",
"426 767 OFFCURVE",
"308 767 CURVE SMOOTH"
);
},
{
closed = 1;
nodes = (
"380 689 OFFCURVE",
"439 631 OFFCURVE",
"439 559 CURVE SMOOTH",
"439 486 OFFCURVE",
"380 427 OFFCURVE",
"308 427 CURVE SMOOTH",
"236 427 OFFCURVE",
"177 486 OFFCURVE",
"177 559 CURVE SMOOTH",
"177 631 OFFCURVE",
"236 689 OFFCURVE",
"308 689 CURVE SMOOTH"
);
}
);
};
layerId = "A4368790-3638-4B5D-B474-0996C59BD988";
name = Regular;
paths = (
{
closed = 1;
nodes = (
"308 26 LINE",
"312 26 LINE SMOOTH",
"414 28 OFFCURVE",
"496 110 OFFCURVE",
"496 212 CURVE SMOOTH",
"496 315 OFFCURVE",
"412 395 OFFCURVE",
"308 395 CURVE SMOOTH",
"213 395 OFFCURVE",
"136 463 OFFCURVE",
"136 557 CURVE SMOOTH",
"136 652 OFFCURVE",
"213 728 OFFCURVE",
"308 728 CURVE SMOOTH",
"403 728 OFFCURVE",
"481 652 OFFCURVE",
"481 557 CURVE SMOOTH",
"481 463 OFFCURVE",
"403 393 OFFCURVE",
"308 393 CURVE",
"204 393 OFFCURVE",
"120 315 OFFCURVE",
"120 212 CURVE SMOOTH",
"120 110 OFFCURVE",
"202 27 OFFCURVE",
"305 26 CURVE SMOOTH"
);
}
);
width = 616;
}
);
unicode = 0038;
},
{
changeCount = 1;
color = 6;
glyphname = nine;
layers = (
{
background = {
paths = (
{
closed = 1;
nodes = (
"245 -13 LINE",
"495 329 LINE SMOOTH",
"534 383 OFFCURVE",
"565 442 OFFCURVE",
"565 510 CURVE SMOOTH",
"565 653 OFFCURVE",
"447 767 OFFCURVE",
"305 767 CURVE SMOOTH",
"163 767 OFFCURVE",
"45 653 OFFCURVE",
"45 510 CURVE SMOOTH",
"45 373 OFFCURVE",
"151 261 OFFCURVE",
"289 261 CURVE SMOOTH",
"312 261 OFFCURVE",
"334 265 OFFCURVE",
"354 271 CURVE",
"356 269 LINE",
"182 30 LINE"
);
},
{
closed = 1;
nodes = (
"402 689 OFFCURVE",
"481 610 OFFCURVE",
"481 513 CURVE SMOOTH",
"481 415 OFFCURVE",
"402 339 OFFCURVE",
"305 339 CURVE SMOOTH",
"207 339 OFFCURVE",
"129 415 OFFCURVE",
"129 513 CURVE SMOOTH",
"129 610 OFFCURVE",
"207 689 OFFCURVE",
"305 689 CURVE SMOOTH"
);
}
);
};
layerId = "A4368790-3638-4B5D-B474-0996C59BD988";
name = Regular;
paths = (
{
closed = 1;
nodes = (
"368 443 LINE",
"227 26 LINE",
"490 393 LINE SMOOTH",
"512 427 OFFCURVE",
"525 468 OFFCURVE",
"525 512 CURVE",
"525 631 OFFCURVE",
"428 727 OFFCURVE",
"307 727 CURVE SMOOTH",
"186 727 OFFCURVE",
"88 631 OFFCURVE",
"88 512 CURVE SMOOTH",
"88 393 OFFCURVE",
"184 300 OFFCURVE",
"305 300 CURVE SMOOTH",
"373 300 OFFCURVE",
"440 331 OFFCURVE",
"480 379 CURVE"
);
}
);
width = 616;
}
);
unicode = 0039;
},
{
changeCount = 0;
export = 0;
glyphname = one.superior;
layers = (
{
layerId = "A4368790-3638-4B5D-B474-0996C59BD988";
name = Regular;
paths = (
{
closed = 1;
nodes = (
"195 707 LINE",
"195 307 LINE",
"255 307 LINE",
"255 759 LINE",
"143 759 LINE",
"114 707 LINE"
);
}
);
width = 369;
}
);
},
{
changeCount = 0;
export = 0;
glyphname = two.superior;
layers = (
{
layerId = "A4368790-3638-4B5D-B474-0996C59BD988";
name = Regular;
paths = (
{
closed = 1;
nodes = (
"146 359 LINE",
"311 538 LINE SMOOTH",
"334 563 OFFCURVE",
"343 601 OFFCURVE",
"343 633 CURVE SMOOTH",
"343 712 OFFCURVE",
"276 767 OFFCURVE",
"189 767 CURVE SMOOTH",
"103 767 OFFCURVE",
"40 706 OFFCURVE",
"38 627 CURVE",
"98 627 LINE",
"98 680 OFFCURVE",
"132 715 OFFCURVE",
"191 715 CURVE SMOOTH",
"244 715 OFFCURVE",
"283 683 OFFCURVE",
"283 633 CURVE SMOOTH",
"283 603 OFFCURVE",
"275 579 OFFCURVE",
"255 557 CURVE SMOOTH",
"26 307 LINE",
"343 307 LINE",
"343 359 LINE"
);
}
);
width = 369;
}
);
},
{
changeCount = 0;
export = 0;
glyphname = three.superior;
layers = (
{
layerId = "A4368790-3638-4B5D-B474-0996C59BD988";
name = Regular;
paths = (
{
closed = 1;
nodes = (
"175 519 LINE",
"234 521 OFFCURVE",
"273 488 OFFCURVE",
"273 436 CURVE SMOOTH",
"273 387 OFFCURVE",
"236 351 OFFCURVE",
"183 351 CURVE SMOOTH",
"134 351 OFFCURVE",
"96 378 OFFCURVE",
"96 424 CURVE",
"36 424 LINE",
"37 349 OFFCURVE",
"102 299 OFFCURVE",
"181 299 CURVE SMOOTH",
"270 299 OFFCURVE",
"333 348 OFFCURVE",
"333 433 CURVE SMOOTH",
"333 480 OFFCURVE",
"311 525 OFFCURVE",
"263 544 CURVE",
"303 563 OFFCURVE",
"326 603 OFFCURVE",
"326 643 CURVE SMOOTH",
"326 718 OFFCURVE",
"266 767 OFFCURVE",
"187 767 CURVE SMOOTH",
"106 767 OFFCURVE",
"59 720 OFFCURVE",
"51 648 CURVE",
"111 648 LINE",
"116 690 OFFCURVE",
"142 715 OFFCURVE",
"186 715 CURVE SMOOTH",
"224 715 OFFCURVE",
"266 689 OFFCURVE",
"266 641 CURVE SMOOTH",
"266 596 OFFCURVE",
"227 571 OFFCURVE",
"175 571 CURVE"
);
}
);
width = 369;
}
);
},
{
changeCount = 0;
export = 0;
glyphname = onequarter;
layers = (
{
layerId = "A4368790-3638-4B5D-B474-0996C59BD988";
name = Regular;
paths = (
{
closed = 1;
nodes = (
"764 125 LINE",
"764 478 LINE",
"763 478 LINE",
"459 73 LINE",
"704 73 LINE",
"704 0 LINE",
"764 0 LINE",
"764 73 LINE",
"824 73 LINE",
"824 125 LINE"
);
},
{
closed = 1;
nodes = (
"704 125 LINE",
"560 125 LINE",
"702 315 LINE",
"704 315 LINE"
);
},
{
closed = 1;
nodes = (
"181 707 LINE",
"181 307 LINE",
"241 307 LINE",
"241 759 LINE",
"129 759 LINE",
"100 707 LINE"
);
},
{
closed = 1;
nodes = (
"648 767 LINE",
"209 11 LINE",
"253 -13 LINE",
"692 743 LINE"
);
}
);
width = 924;
}
);
unicode = 00BC;
},
{
changeCount = 0;
export = 0;
glyphname = onehalf;
layers = (
{
layerId = "A4368790-3638-4B5D-B474-0996C59BD988";
name = Regular;
paths = (
{
closed = 1;
nodes = (
"181 707 LINE",
"181 307 LINE",
"241 307 LINE",
"241 759 LINE",
"129 759 LINE",
"100 707 LINE"
);
},
{
closed = 1;
nodes = (
"627 52 LINE",
"792 231 LINE SMOOTH",
"815 256 OFFCURVE",
"824 294 OFFCURVE",
"824 326 CURVE SMOOTH",
"824 405 OFFCURVE",
"757 460 OFFCURVE",
"670 460 CURVE SMOOTH",
"584 460 OFFCURVE",
"521 399 OFFCURVE",
"519 320 CURVE",
"579 320 LINE",
"579 373 OFFCURVE",
"613 408 OFFCURVE",
"672 408 CURVE SMOOTH",
"725 408 OFFCURVE",
"764 376 OFFCURVE",
"764 326 CURVE SMOOTH",
"764 296 OFFCURVE",
"756 272 OFFCURVE",
"736 250 CURVE SMOOTH",
"507 0 LINE",
"824 0 LINE",
"824 52 LINE"
);
},
{
closed = 1;
nodes = (
"603 767 LINE",
"164 11 LINE",
"208 -13 LINE",
"647 743 LINE"
);
}
);
width = 924;
}
);
unicode = 00BD;
},
{
changeCount = 0;
export = 0;
glyphname = threequarters;
layers = (
{
layerId = "A4368790-3638-4B5D-B474-0996C59BD988";
name = Regular;
paths = (
{
closed = 1;
nodes = (
"784 125 LINE",
"784 478 LINE",
"783 478 LINE",
"479 73 LINE",
"724 73 LINE",
"724 0 LINE",
"784 0 LINE",
"784 73 LINE",
"844 73 LINE",
"844 125 LINE"
);
},
{
closed = 1;
nodes = (
"724 125 LINE",
"580 125 LINE",
"722 315 LINE",
"724 315 LINE"
);
},
{
closed = 1;
nodes = (
"706 767 LINE",
"267 11 LINE",
"311 -13 LINE",
"750 743 LINE"
);
},
{
closed = 1;
nodes = (
"219 519 LINE",
"278 521 OFFCURVE",
"317 488 OFFCURVE",
"317 436 CURVE SMOOTH",
"317 387 OFFCURVE",
"280 351 OFFCURVE",
"227 351 CURVE SMOOTH",
"178 351 OFFCURVE",
"140 378 OFFCURVE",
"140 424 CURVE",
"80 424 LINE",
"81 349 OFFCURVE",
"146 299 OFFCURVE",
"225 299 CURVE SMOOTH",
"314 299 OFFCURVE",
"377 348 OFFCURVE",
"377 433 CURVE SMOOTH",
"377 480 OFFCURVE",
"355 525 OFFCURVE",
"307 544 CURVE",
"347 563 OFFCURVE",
"370 603 OFFCURVE",
"370 643 CURVE SMOOTH",
"370 718 OFFCURVE",
"310 767 OFFCURVE",
"231 767 CURVE SMOOTH",
"150 767 OFFCURVE",
"103 720 OFFCURVE",
"95 648 CURVE",
"155 648 LINE",
"160 690 OFFCURVE",
"186 715 OFFCURVE",
"230 715 CURVE SMOOTH",
"268 715 OFFCURVE",
"310 689 OFFCURVE",
"310 641 CURVE SMOOTH",
"310 596 OFFCURVE",
"271 571 OFFCURVE",
"219 571 CURVE"
);
}
);
width = 924;
}
);
unicode = 00BE;
},
{
changeCount = 1;
color = 6;
glyphname = fraction;
layers = (
{
background = {
paths = (
{
closed = 1;
nodes = (
"278 767 LINE",
"-161 11 LINE",
"-117 -13 LINE",
"322 743 LINE"
);
}
);
};
layerId = "A4368790-3638-4B5D-B474-0996C59BD988";
name = Regular;
paths = (
{
closed = 1;
nodes = (
"44 463 LINE",
"-128 20 LINE",
"289 736 LINE"
);
}
);
width = 161;
}
);
unicode = 2044;
},
{
changeCount = 0;
export = 0;
glyphname = twosuperior;
layers = (
{
layerId = "A4368790-3638-4B5D-B474-0996C59BD988";
name = Regular;
paths = (
{
closed = 1;
nodes = (
"146 359 LINE",
"311 538 LINE SMOOTH",
"334 563 OFFCURVE",
"343 601 OFFCURVE",
"343 633 CURVE SMOOTH",
"343 712 OFFCURVE",
"276 767 OFFCURVE",
"189 767 CURVE SMOOTH",
"103 767 OFFCURVE",
"40 706 OFFCURVE",
"38 627 CURVE",
"98 627 LINE",
"98 680 OFFCURVE",
"132 715 OFFCURVE",
"191 715 CURVE SMOOTH",
"244 715 OFFCURVE",
"283 683 OFFCURVE",
"283 633 CURVE SMOOTH",
"283 603 OFFCURVE",
"275 579 OFFCURVE",
"255 557 CURVE SMOOTH",
"26 307 LINE",
"343 307 LINE",
"343 359 LINE"
);
}
);
width = 369;
}
);
unicode = 00B2;
},
{
changeCount = 0;
export = 0;
glyphname = threesuperior;
layers = (
{
layerId = "A4368790-3638-4B5D-B474-0996C59BD988";
name = Regular;
paths = (
{
closed = 1;
nodes = (
"175 519 LINE",
"234 521 OFFCURVE",
"273 488 OFFCURVE",
"273 436 CURVE SMOOTH",
"273 387 OFFCURVE",
"236 351 OFFCURVE",
"183 351 CURVE SMOOTH",
"134 351 OFFCURVE",
"96 378 OFFCURVE",
"96 424 CURVE",
"36 424 LINE",
"37 349 OFFCURVE",
"102 299 OFFCURVE",
"181 299 CURVE SMOOTH",
"270 299 OFFCURVE",
"333 348 OFFCURVE",
"333 433 CURVE SMOOTH",
"333 480 OFFCURVE",
"311 525 OFFCURVE",
"263 544 CURVE",
"303 563 OFFCURVE",
"326 603 OFFCURVE",
"326 643 CURVE SMOOTH",
"326 718 OFFCURVE",
"266 767 OFFCURVE",
"187 767 CURVE SMOOTH",
"106 767 OFFCURVE",
"59 720 OFFCURVE",
"51 648 CURVE",
"111 648 LINE",
"116 690 OFFCURVE",
"142 715 OFFCURVE",
"186 715 CURVE SMOOTH",
"224 715 OFFCURVE",
"266 689 OFFCURVE",
"266 641 CURVE SMOOTH",
"266 596 OFFCURVE",
"227 571 OFFCURVE",
"175 571 CURVE"
);
}
);
width = 369;
}
);
unicode = 00B3;
},
{
changeCount = 0;
export = 0;
glyphname = onesuperior;
layers = (
{
layerId = "A4368790-3638-4B5D-B474-0996C59BD988";
name = Regular;
paths = (
{
closed = 1;
nodes = (
"195 707 LINE",
"195 307 LINE",
"255 307 LINE",
"255 759 LINE",
"143 759 LINE",
"114 707 LINE"
);
}
);
width = 369;
}
);
unicode = 00B9;
},
{
changeCount = 2;
color = 6;
glyphname = asterisk;
layers = (
{
background = {
paths = (
{
closed = 1;
nodes = (
"265 614 LINE",
"133 663 LINE",
"109 591 LINE",
"245 553 LINE",
"157 443 LINE",
"218 398 LINE",
"296 516 LINE",
"374 398 LINE",
"435 443 LINE",
"348 553 LINE",
"484 591 LINE",
"460 663 LINE",
"328 614 LINE",
"334 754 LINE",
"259 754 LINE"
);
}
);
};
layerId = "A4368790-3638-4B5D-B474-0996C59BD988";
name = Regular;
paths = (
{
closed = 1;
nodes = (
"361 708 LINE",
"389 441 LINE",
"297 567 LINE",
"297 723 LINE"
);
},
{
closed = 1;
nodes = (
"191 523 LINE",
"205 441 LINE",
"297 567 LINE"
);
},
{
closed = 1;
nodes = (
"232 684 LINE",
"149 616 LINE",
"297 567 LINE",
"445 616 LINE"
);
}
);
width = 592;
}
);
unicode = 002A;
},
{
changeCount = 1;
color = 6;
glyphname = backslash;
layers = (
{
background = {
paths = (
{
closed = 1;
nodes = (
"18 795 LINE",
"487 -30 LINE",
"552 0 LINE",
"84 825 LINE"
);
}
);
};
layerId = "A4368790-3638-4B5D-B474-0996C59BD988";
name = Regular;
paths = (
{
closed = 1;
nodes = (
"143 318 LINE",
"510 2 LINE",
"63 786 LINE"
);
}
);
width = 570;
}
);
unicode = 005C;
},
{
changeCount = 2;
color = 6;
glyphname = bullet;
layers = (
{
background = {
paths = (
{
closed = 1;
nodes = (
"399 189 OFFCURVE",
"485 272 OFFCURVE",
"485 377 CURVE SMOOTH",
"485 482 OFFCURVE",
"401 566 OFFCURVE",
"296 566 CURVE SMOOTH",
"191 566 OFFCURVE",
"107 482 OFFCURVE",
"108 377 CURVE SMOOTH",
"108 272 OFFCURVE",
"193 189 OFFCURVE",
"296 189 CURVE SMOOTH"
);
}
);
};
layerId = "A4368790-3638-4B5D-B474-0996C59BD988";
name = Regular;
paths = (
{
closed = 1;
nodes = (
"301 328 LINE",
"304 328 LINE SMOOTH",
"331 329 OFFCURVE",
"352 351 OFFCURVE",
"352 378 CURVE",
"352 406 OFFCURVE",
"329 429 OFFCURVE",
"301 429 CURVE SMOOTH",
"273 429 OFFCURVE",
"251 406 OFFCURVE",
"251 378 CURVE SMOOTH",
"251 351 OFFCURVE",
"272 329 OFFCURVE",
"298 328 CURVE SMOOTH"
);
}
);
width = 592;
}
);
unicode = 2022;
},
{
changeCount = 1;
color = 6;
glyphname = colon;
layers = (
{
background = {
paths = (
{
closed = 1;
nodes = (
"123 99 OFFCURVE",
"98 74 OFFCURVE",
"98 44 CURVE SMOOTH",
"98 13 OFFCURVE",
"123 -13 OFFCURVE",
"154 -13 CURVE SMOOTH",
"185 -13 OFFCURVE",
"210 13 OFFCURVE",
"210 44 CURVE SMOOTH",
"210 74 OFFCURVE",
"185 99 OFFCURVE",
"154 99 CURVE SMOOTH"
);
},
{
closed = 1;
nodes = (
"123 483 OFFCURVE",
"98 458 OFFCURVE",
"98 428 CURVE SMOOTH",
"98 397 OFFCURVE",
"123 371 OFFCURVE",
"154 371 CURVE SMOOTH",
"185 371 OFFCURVE",
"210 397 OFFCURVE",
"210 428 CURVE SMOOTH",
"210 458 OFFCURVE",
"185 483 OFFCURVE",
"154 483 CURVE SMOOTH"
);
}
);
};
layerId = "A4368790-3638-4B5D-B474-0996C59BD988";
name = Regular;
paths = (
{
closed = 1;
nodes = (
"154 31 LINE",
"154 42 LINE",
"165 42 LINE"
);
},
{
closed = 1;
nodes = (
"154 428 LINE",
"154 439 LINE",
"165 429 LINE"
);
}
);
width = 308;
}
);
leftKerningGroupId = "@MMK_R_colon";
unicode = 003A;
},
{
changeCount = 1;
color = 6;
glyphname = comma;
layers = (
{
background = {
paths = (
{
closed = 1;
nodes = (
"151 110 LINE",
"58 -150 LINE",
"112 -172 LINE",
"225 84 LINE"
);
}
);
};
layerId = "A4368790-3638-4B5D-B474-0996C59BD988";
name = Regular;
paths = (
{
closed = 1;
nodes = (
"154 -75 LINE",
"162 36 LINE",
"81 -165 LINE"
);
}
);
width = 308;
}
);
leftKerningGroupId = "@MMK_R_comma";
unicode = 002C;
},
{
changeCount = 1;
color = 6;
glyphname = ellipsis;
layers = (
{
background = {
paths = (
{
closed = 1;
nodes = (
"137 99 OFFCURVE",
"112 74 OFFCURVE",
"112 44 CURVE SMOOTH",
"112 13 OFFCURVE",
"137 -13 OFFCURVE",
"168 -13 CURVE SMOOTH",
"199 -13 OFFCURVE",
"224 13 OFFCURVE",
"224 44 CURVE SMOOTH",
"224 74 OFFCURVE",
"199 99 OFFCURVE",
"168 99 CURVE SMOOTH"
);
},
{
closed = 1;
nodes = (
"469 99 OFFCURVE",
"444 74 OFFCURVE",
"444 44 CURVE SMOOTH",
"444 13 OFFCURVE",
"469 -13 OFFCURVE",
"500 -13 CURVE SMOOTH",
"531 -13 OFFCURVE",
"556 13 OFFCURVE",
"556 44 CURVE SMOOTH",
"556 74 OFFCURVE",
"531 99 OFFCURVE",
"500 99 CURVE SMOOTH"
);
},
{
closed = 1;
nodes = (
"801 99 OFFCURVE",
"776 74 OFFCURVE",
"776 44 CURVE SMOOTH",
"776 13 OFFCURVE",
"801 -13 OFFCURVE",
"832 -13 CURVE SMOOTH",
"863 -13 OFFCURVE",
"888 13 OFFCURVE",
"888 44 CURVE SMOOTH",
"888 74 OFFCURVE",
"863 99 OFFCURVE",
"832 99 CURVE SMOOTH"
);
}
);
};
layerId = "A4368790-3638-4B5D-B474-0996C59BD988";
name = Regular;
paths = (
{
closed = 1;
nodes = (
"179 42 LINE",
"168 42 LINE",
"168 31 LINE"
);
},
{
closed = 1;
nodes = (
"513 42 LINE",
"502 42 LINE",
"502 31 LINE"
);
},
{
closed = 1;
nodes = (
"844 42 LINE",
"833 42 LINE",
"833 31 LINE"
);
}
);
width = 1000;
}
);
unicode = 2026;
},
{
changeCount = 1;
color = 6;
glyphname = exclam;
layers = (
{
background = {
paths = (
{
closed = 1;
nodes = (
"138 99 OFFCURVE",
"113 74 OFFCURVE",
"113 44 CURVE SMOOTH",
"113 13 OFFCURVE",
"138 -13 OFFCURVE",
"169 -13 CURVE SMOOTH",
"200 -13 OFFCURVE",
"225 13 OFFCURVE",
"225 44 CURVE SMOOTH",
"225 74 OFFCURVE",
"200 99 OFFCURVE",
"169 99 CURVE SMOOTH"
);
},
{
closed = 1;
nodes = (
"128 153 LINE",
"210 153 LINE",
"210 754 LINE",
"128 754 LINE"
);
}
);
};
layerId = "A4368790-3638-4B5D-B474-0996C59BD988";
name = Regular;
paths = (
{
closed = 1;
nodes = (
"206 467 LINE",
"169 733 LINE",
"169 174 LINE"
);
},
{
closed = 1;
nodes = (
"180 43 LINE",
"169 43 LINE",
"169 32 LINE"
);
}
);
width = 338;
}
);
unicode = 0021;
},
{
changeCount = 1;
color = 6;
glyphname = exclamdown;
layers = (
{
background = {
paths = (
{
closed = 1;
nodes = (
"138 483 OFFCURVE",
"113 458 OFFCURVE",
"113 428 CURVE SMOOTH",
"113 397 OFFCURVE",
"138 371 OFFCURVE",
"169 371 CURVE SMOOTH",
"200 371 OFFCURVE",
"225 397 OFFCURVE",
"225 428 CURVE SMOOTH",
"225 458 OFFCURVE",
"200 483 OFFCURVE",
"169 483 CURVE SMOOTH"
);
},
{
closed = 1;
nodes = (
"210 317 LINE",
"128 317 LINE",
"128 -284 LINE",
"210 -284 LINE"
);
}
);
};
layerId = "A4368790-3638-4B5D-B474-0996C59BD988";
name = Regular;
paths = (
{
closed = 1;
nodes = (
"132 5 LINE",
"169 -261 LINE",
"169 298 LINE"
);
},
{
closed = 1;
nodes = (
"158 429 LINE",
"169 429 LINE",
"169 440 LINE"
);
}
);
width = 338;
}
);
unicode = 00A1;
},
{
changeCount = 1;
color = 6;
glyphname = numbersign;
layers = (
{
background = {
paths = (
{
closed = 1;
nodes = (
"236 754 LINE",
"200 550 LINE",
"81 550 LINE",
"81 472 LINE",
"188 472 LINE",
"159 301 LINE",
"44 301 LINE",
"44 223 LINE",
"146 223 LINE",
"107 0 LINE",
"182 0 LINE",
"224 223 LINE",
"347 223 LINE",
"308 0 LINE",
"384 0 LINE",
"424 223 LINE",
"539 223 LINE",
"539 301 LINE",
"438 301 LINE",
"467 472 LINE",
"572 472 LINE",
"572 550 LINE",
"480 550 LINE",
"515 754 LINE",
"436 754 LINE",
"401 550 LINE",
"277 550 LINE",
"313 754 LINE"
);
},
{
closed = 1;
nodes = (
"266 472 LINE",
"389 472 LINE",
"360 301 LINE",
"237 301 LINE"
);
}
);
};
layerId = "A4368790-3638-4B5D-B474-0996C59BD988";
name = Regular;
paths = (
{
closed = 1;
nodes = (
"528 386 LINE",
"474 728 LINE",
"352 23 LINE"
);
},
{
closed = 1;
nodes = (
"160 618 LINE",
"150 23 LINE",
"272 728 LINE"
);
},
{
closed = 1;
nodes = (
"327 336 LINE",
"67 262 LINE SMOOTH",
"516 262 LINE"
);
},
{
closed = 1;
nodes = (
"338 563 LINE",
"104 513 LINE",
"553 513 LINE"
);
}
);
width = 616;
}
);
unicode = 0023;
},
{
changeCount = 1;
color = 6;
glyphname = period;
layers = (
{
background = {
paths = (
{
closed = 1;
nodes = (
"123 99 OFFCURVE",
"98 74 OFFCURVE",
"98 44 CURVE SMOOTH",
"98 13 OFFCURVE",
"123 -13 OFFCURVE",
"154 -13 CURVE",
"185 -13 OFFCURVE",
"210 13 OFFCURVE",
"210 44 CURVE SMOOTH",
"210 74 OFFCURVE",
"185 99 OFFCURVE",
"154 99 CURVE SMOOTH"
);
}
);
};
layerId = "A4368790-3638-4B5D-B474-0996C59BD988";
name = Regular;
paths = (
{
closed = 1;
nodes = (
"154 34 LINE",
"154 45 LINE",
"165 45 LINE SMOOTH"
);
}
);
width = 308;
}
);
leftKerningGroupId = "@MMK_R_period";
unicode = 002E;
},
{
changeCount = 1;
color = 6;
glyphname = periodcentered;
layers = (
{
background = {
paths = (
{
closed = 1;
nodes = (
"123 311 OFFCURVE",
"98 286 OFFCURVE",
"98 256 CURVE SMOOTH",
"98 225 OFFCURVE",
"123 199 OFFCURVE",
"154 199 CURVE SMOOTH",
"185 199 OFFCURVE",
"210 225 OFFCURVE",
"210 256 CURVE SMOOTH",
"210 286 OFFCURVE",
"185 311 OFFCURVE",
"154 311 CURVE SMOOTH"
);
}
);
};
layerId = "A4368790-3638-4B5D-B474-0996C59BD988";
name = Regular;
paths = (
{
closed = 1;
nodes = (
"165 260 LINE SMOOTH",
"154 260 LINE",
"154 249 LINE"
);
}
);
width = 308;
}
);
unicode = 00B7;
},
{
changeCount = 1;
color = 6;
glyphname = question;
layers = (
{
background = {
paths = (
{
closed = 1;
nodes = (
"325 328 LINE",
"325 278 OFFCURVE",
"300 232 OFFCURVE",
"244 232 CURVE SMOOTH",
"199 232 OFFCURVE",
"162 267 OFFCURVE",
"162 312 CURVE SMOOTH",
"162 362 OFFCURVE",
"196 383 OFFCURVE",
"239 395 CURVE SMOOTH",
"283 408 OFFCURVE",
"337 422 OFFCURVE",
"372 453 CURVE SMOOTH",
"408 486 OFFCURVE",
"426 538 OFFCURVE",
"426 587 CURVE SMOOTH",
"426 689 OFFCURVE",
"348 767 OFFCURVE",
"246 767 CURVE SMOOTH",
"147 767 OFFCURVE",
"62 700 OFFCURVE",
"62 596 CURVE",
"66 543 LINE",
"149 543 LINE",
"145 559 OFFCURVE",
"143 575 OFFCURVE",
"143 591 CURVE SMOOTH",
"143 646 OFFCURVE",
"184 690 OFFCURVE",
"241 690 CURVE SMOOTH",
"301 690 OFFCURVE",
"344 647 OFFCURVE",
"344 586 CURVE SMOOTH",
"344 504 OFFCURVE",
"281 491 OFFCURVE",
"217 471 CURVE SMOOTH",
"141 446 OFFCURVE",
"80 408 OFFCURVE",
"80 318 CURVE SMOOTH",
"80 226 OFFCURVE",
"150 155 OFFCURVE",
"243 155 CURVE SMOOTH",
"340 155 OFFCURVE",
"409 232 OFFCURVE",
"406 328 CURVE"
);
},
{
closed = 1;
nodes = (
"211 99 OFFCURVE",
"186 74 OFFCURVE",
"186 44 CURVE SMOOTH",
"186 13 OFFCURVE",
"211 -13 OFFCURVE",
"242 -13 CURVE SMOOTH",
"273 -13 OFFCURVE",
"298 13 OFFCURVE",
"298 44 CURVE SMOOTH",
"298 74 OFFCURVE",
"273 99 OFFCURVE",
"242 99 CURVE SMOOTH"
);
}
);
};
layerId = "A4368790-3638-4B5D-B474-0996C59BD988";
name = Regular;
paths = (
{
closed = 1;
nodes = (
"258 401 LINE",
"364 305 LINE",
"353 223 OFFCURVE",
"271 172 OFFCURVE",
"193 205 CURVE SMOOTH",
"121 236 OFFCURVE",
"93 342 OFFCURVE",
"155 398 CURVE SMOOTH",
"227 461 OFFCURVE",
"355 438 OFFCURVE",
"381 552 CURVE SMOOTH",
"399 633 OFFCURVE",
"350 716 OFFCURVE",
"266 729 CURVE SMOOTH",
"168 743 OFFCURVE",
"95 668 OFFCURVE",
"104 572 CURVE"
);
},
{
closed = 1;
nodes = (
"253 45 LINE",
"242 34 LINE SMOOTH",
"242 45 LINE"
);
}
);
width = 488;
}
);
unicode = 003F;
},
{
changeCount = 1;
color = 6;
glyphname = questiondown;
layers = (
{
background = {
paths = (
{
closed = 1;
nodes = (
"163 146 LINE",
"163 196 OFFCURVE",
"188 242 OFFCURVE",
"244 242 CURVE SMOOTH",
"289 242 OFFCURVE",
"326 207 OFFCURVE",
"326 162 CURVE SMOOTH",
"326 112 OFFCURVE",
"292 91 OFFCURVE",
"249 79 CURVE SMOOTH",
"205 66 OFFCURVE",
"151 52 OFFCURVE",
"116 21 CURVE SMOOTH",
"80 -12 OFFCURVE",
"62 -64 OFFCURVE",
"62 -113 CURVE SMOOTH",
"62 -215 OFFCURVE",
"140 -293 OFFCURVE",
"242 -293 CURVE SMOOTH",
"341 -293 OFFCURVE",
"426 -226 OFFCURVE",
"426 -122 CURVE",
"422 -69 LINE",
"339 -69 LINE",
"343 -85 OFFCURVE",
"345 -101 OFFCURVE",
"345 -117 CURVE SMOOTH",
"345 -172 OFFCURVE",
"304 -216 OFFCURVE",
"247 -216 CURVE SMOOTH",
"187 -216 OFFCURVE",
"144 -173 OFFCURVE",
"144 -112 CURVE SMOOTH",
"144 -30 OFFCURVE",
"207 -17 OFFCURVE",
"271 3 CURVE SMOOTH",
"347 28 OFFCURVE",
"408 66 OFFCURVE",
"408 156 CURVE SMOOTH",
"408 248 OFFCURVE",
"338 319 OFFCURVE",
"245 319 CURVE SMOOTH",
"148 319 OFFCURVE",
"79 242 OFFCURVE",
"82 146 CURVE"
);
},
{
closed = 1;
nodes = (
"215 483 OFFCURVE",
"190 458 OFFCURVE",
"190 427 CURVE SMOOTH",
"190 396 OFFCURVE",
"215 371 OFFCURVE",
"246 371 CURVE SMOOTH",
"277 371 OFFCURVE",
"302 396 OFFCURVE",
"302 427 CURVE SMOOTH",
"302 458 OFFCURVE",
"277 483 OFFCURVE",
"246 483 CURVE SMOOTH"
);
}
);
};
layerId = "A4368790-3638-4B5D-B474-0996C59BD988";
name = Regular;
paths = (
{
closed = 1;
nodes = (
"231 73 LINE",
"125 169 LINE",
"136 251 OFFCURVE",
"218 302 OFFCURVE",
"296 269 CURVE SMOOTH",
"368 238 OFFCURVE",
"396 132 OFFCURVE",
"334 76 CURVE SMOOTH",
"262 13 OFFCURVE",
"134 36 OFFCURVE",
"108 -78 CURVE SMOOTH",
"90 -159 OFFCURVE",
"139 -242 OFFCURVE",
"223 -255 CURVE SMOOTH",
"321 -269 OFFCURVE",
"394 -194 OFFCURVE",
"385 -98 CURVE"
);
},
{
closed = 1;
nodes = (
"236 429 LINE",
"247 440 LINE SMOOTH",
"247 429 LINE"
);
}
);
width = 488;
}
);
unicode = 00BF;
},
{
changeCount = 1;
color = 6;
glyphname = quotedbl;
layers = (
{
background = {
paths = (
{
closed = 1;
nodes = (
"102 754 LINE",
"120 426 LINE",
"178 426 LINE",
"196 754 LINE"
);
},
{
closed = 1;
nodes = (
"261 754 LINE",
"279 426 LINE",
"337 426 LINE",
"355 754 LINE"
);
}
);
};
layerId = "A4368790-3638-4B5D-B474-0996C59BD988";
name = Regular;
paths = (
{
closed = 1;
nodes = (
"250 600 LINE",
"308 448 LINE",
"308 734 LINE"
);
},
{
closed = 1;
nodes = (
"87 600 LINE",
"145 448 LINE",
"145 734 LINE"
);
}
);
width = 457;
}
);
unicode = 0022;
},
{
changeCount = 1;
color = 6;
glyphname = quotesingle;
layers = (
{
background = {
paths = (
{
closed = 1;
nodes = (
"98 754 LINE",
"116 426 LINE",
"174 426 LINE",
"192 754 LINE"
);
}
);
};
layerId = "A4368790-3638-4B5D-B474-0996C59BD988";
name = Regular;
paths = (
{
closed = 1;
nodes = (
"90 600 LINE",
"148 448 LINE",
"148 734 LINE"
);
}
);
width = 289;
}
);
unicode = 0027;
},
{
changeCount = 1;
color = 6;
glyphname = semicolon;
layers = (
{
background = {
paths = (
{
closed = 1;
nodes = (
"153 110 LINE",
"60 -150 LINE",
"114 -172 LINE",
"227 84 LINE"
);
},
{
closed = 1;
nodes = (
"148 483 OFFCURVE",
"123 458 OFFCURVE",
"123 428 CURVE SMOOTH",
"123 397 OFFCURVE",
"148 371 OFFCURVE",
"179 371 CURVE SMOOTH",
"210 371 OFFCURVE",
"235 397 OFFCURVE",
"235 428 CURVE SMOOTH",
"235 458 OFFCURVE",
"210 483 OFFCURVE",
"179 483 CURVE SMOOTH"
);
}
);
};
layerId = "A4368790-3638-4B5D-B474-0996C59BD988";
name = Regular;
paths = (
{
closed = 1;
nodes = (
"154 -75 LINE",
"162 36 LINE",
"81 -165 LINE"
);
},
{
closed = 1;
nodes = (
"189 429 LINE",
"178 439 LINE",
"178 428 LINE"
);
}
);
width = 308;
}
);
unicode = 003B;
},
{
changeCount = 1;
color = 6;
glyphname = slash;
layers = (
{
background = {
paths = (
{
closed = 1;
nodes = (
"486 825 LINE",
"18 -127 LINE",
"83 -157 LINE",
"552 795 LINE"
);
}
);
};
layerId = "A4368790-3638-4B5D-B474-0996C59BD988";
name = Regular;
paths = (
{
closed = 1;
nodes = (
"500 537 LINE",
"509 788 LINE",
"63 -116 LINE"
);
}
);
width = 570;
}
);
unicode = 002F;
},
{
changeCount = 1;
color = 6;
glyphname = underscore;
layers = (
{
background = {
paths = (
{
closed = 1;
nodes = (
"500 -75 LINE",
"0 -75 LINE",
"0 -125 LINE",
"500 -125 LINE"
);
}
);
};
layerId = "A4368790-3638-4B5D-B474-0996C59BD988";
name = Regular;
paths = (
{
closed = 1;
nodes = (
"224 -69 LINE",
"15 -101 LINE",
"482 -101 LINE"
);
}
);
width = 500;
}
);
unicode = 005F;
},
{
changeCount = 0;
export = 0;
glyphname = braceleft;
layers = (
{
layerId = "A4368790-3638-4B5D-B474-0996C59BD988";
name = Regular;
paths = (
{
closed = 1;
nodes = (
"51 242 LINE",
"119 221 OFFCURVE",
"126 169 OFFCURVE",
"126 81 CURVE SMOOTH",
"126 -105 LINE SMOOTH",
"126 -186 OFFCURVE",
"181 -240 OFFCURVE",
"211 -240 CURVE SMOOTH",
"284 -240 LINE",
"284 -166 LINE",
"244 -166 LINE SMOOTH",
"208 -166 OFFCURVE",
"208 -136 OFFCURVE",
"208 -90 CURVE SMOOTH",
"208 98 LINE SMOOTH",
"208 216 OFFCURVE",
"145 266 OFFCURVE",
"132 274 CURVE",
"145 282 OFFCURVE",
"208 332 OFFCURVE",
"208 449 CURVE SMOOTH",
"208 638 LINE SMOOTH",
"208 684 OFFCURVE",
"208 714 OFFCURVE",
"244 714 CURVE SMOOTH",
"284 714 LINE",
"284 788 LINE",
"211 788 LINE SMOOTH",
"181 788 OFFCURVE",
"126 734 OFFCURVE",
"126 653 CURVE SMOOTH",
"126 466 LINE SMOOTH",
"126 379 OFFCURVE",
"119 327 OFFCURVE",
"51 306 CURVE"
);
}
);
width = 334;
}
);
unicode = 007B;
},
{
changeCount = 0;
export = 0;
glyphname = braceright;
layers = (
{
layerId = "A4368790-3638-4B5D-B474-0996C59BD988";
name = Regular;
paths = (
{
closed = 1;
nodes = (
"283 306 LINE",
"215 327 OFFCURVE",
"208 379 OFFCURVE",
"208 466 CURVE SMOOTH",
"208 653 LINE SMOOTH",
"208 734 OFFCURVE",
"153 788 OFFCURVE",
"123 788 CURVE SMOOTH",
"50 788 LINE",
"50 714 LINE",
"90 714 LINE SMOOTH",
"126 714 OFFCURVE",
"126 684 OFFCURVE",
"126 638 CURVE SMOOTH",
"126 449 LINE SMOOTH",
"126 332 OFFCURVE",
"189 282 OFFCURVE",
"202 274 CURVE",
"189 266 OFFCURVE",
"126 216 OFFCURVE",
"126 98 CURVE SMOOTH",
"126 -90 LINE SMOOTH",
"126 -136 OFFCURVE",
"126 -166 OFFCURVE",
"90 -166 CURVE SMOOTH",
"50 -166 LINE",
"50 -240 LINE",
"123 -240 LINE SMOOTH",
"153 -240 OFFCURVE",
"208 -186 OFFCURVE",
"208 -105 CURVE SMOOTH",
"208 81 LINE SMOOTH",
"208 169 OFFCURVE",
"215 221 OFFCURVE",
"283 242 CURVE"
);
}
);
width = 334;
}
);
unicode = 007D;
},
{
changeCount = 2;
color = 6;
glyphname = bracketleft;
layers = (
{
background = {
paths = (
{
closed = 1;
nodes = (
"186 714 LINE",
"294 714 LINE",
"294 788 LINE",
"104 788 LINE",
"104 -240 LINE",
"294 -240 LINE",
"294 -166 LINE",
"186 -166 LINE"
);
}
);
};
layerId = "A4368790-3638-4B5D-B474-0996C59BD988";
name = Regular;
paths = (
{
closed = 1;
nodes = (
"218 516 LINE",
"275 754 LINE",
"145 754 LINE",
"145 -202 LINE",
"274 -203 LINE"
);
}
);
width = 315;
}
);
unicode = 005B;
},
{
changeCount = 2;
color = 6;
glyphname = bracketright;
layers = (
{
background = {
paths = (
{
closed = 1;
nodes = (
"129 -166 LINE",
"21 -166 LINE",
"21 -240 LINE",
"211 -240 LINE",
"211 788 LINE",
"21 788 LINE",
"21 714 LINE",
"129 714 LINE"
);
}
);
};
layerId = "A4368790-3638-4B5D-B474-0996C59BD988";
name = Regular;
paths = (
{
closed = 1;
nodes = (
"98 516 LINE",
"42 -203 LINE",
"171 -202 LINE",
"171 754 LINE",
"41 754 LINE"
);
}
);
width = 315;
}
);
unicode = 005D;
},
{
changeCount = 1;
color = 6;
glyphname = parenleft;
layers = (
{
background = {
paths = (
{
closed = 1;
nodes = (
"184 788 LINE",
"114 639 OFFCURVE",
"93 436 OFFCURVE",
"93 274 CURVE SMOOTH",
"93 112 OFFCURVE",
"114 -91 OFFCURVE",
"184 -240 CURVE",
"255 -206 LINE",
"198 -55 OFFCURVE",
"175 110 OFFCURVE",
"175 274 CURVE SMOOTH",
"175 438 OFFCURVE",
"198 603 OFFCURVE",
"255 754 CURVE"
);
}
);
};
layerId = "A4368790-3638-4B5D-B474-0996C59BD988";
name = Regular;
paths = (
{
closed = 1;
nodes = (
"236 161 LINE",
"202 752 LINE",
"152 607 OFFCURVE",
"131 442 OFFCURVE",
"131 292 CURVE SMOOTH",
"131 129 OFFCURVE",
"153 -55 OFFCURVE",
"217 -205 CURVE"
);
}
);
width = 287;
}
);
unicode = 0028;
},
{
changeCount = 1;
color = 6;
glyphname = parenright;
layers = (
{
background = {
paths = (
{
closed = 1;
nodes = (
"32 754 LINE",
"89 603 OFFCURVE",
"112 438 OFFCURVE",
"112 274 CURVE SMOOTH",
"112 110 OFFCURVE",
"89 -55 OFFCURVE",
"32 -206 CURVE",
"103 -240 LINE",
"173 -91 OFFCURVE",
"194 112 OFFCURVE",
"194 274 CURVE SMOOTH",
"194 436 OFFCURVE",
"173 639 OFFCURVE",
"103 788 CURVE"
);
}
);
};
layerId = "A4368790-3638-4B5D-B474-0996C59BD988";
name = Regular;
paths = (
{
closed = 1;
nodes = (
"12 365 LINE",
"69 -205 LINE",
"133 -55 OFFCURVE",
"155 129 OFFCURVE",
"155 292 CURVE SMOOTH",
"155 442 OFFCURVE",
"134 607 OFFCURVE",
"84 752 CURVE"
);
}
);
width = 287;
}
);
unicode = 0029;
},
{
changeCount = 1;
color = 6;
glyphname = emdash;
layers = (
{
background = {
paths = (
{
closed = 1;
nodes = (
"130 278 LINE",
"130 204 LINE",
"870 204 LINE",
"870 278 LINE"
);
}
);
};
layerId = "A4368790-3638-4B5D-B474-0996C59BD988";
name = Regular;
paths = (
{
closed = 1;
nodes = (
"358 273 LINE",
"149 241 LINE",
"855 241 LINE"
);
}
);
width = 1000;
}
);
unicode = 2014;
},
{
changeCount = 1;
color = 6;
glyphname = endash;
layers = (
{
background = {
paths = (
{
closed = 1;
nodes = (
"0 278 LINE",
"0 204 LINE",
"500 204 LINE",
"500 278 LINE"
);
}
);
};
layerId = "A4368790-3638-4B5D-B474-0996C59BD988";
name = Regular;
paths = (
{
closed = 1;
nodes = (
"234 273 LINE",
"18 241 LINE",
"482 241 LINE"
);
}
);
width = 500;
}
);
unicode = 2013;
},
{
changeCount = 1;
color = 6;
glyphname = hyphen;
layers = (
{
background = {
paths = (
{
closed = 1;
nodes = (
"2 278 LINE",
"2 204 LINE",
"207 204 LINE",
"207 278 LINE"
);
}
);
};
layerId = "A4368790-3638-4B5D-B474-0996C59BD988";
name = Regular;
paths = (
{
closed = 1;
nodes = (
"131 265 LINE",
"17 241 LINE",
"193 241 LINE"
);
}
);
width = 208;
}
);
unicode = 002D;
},
{
changeCount = 1;
color = 6;
glyphname = softhyphen;
layers = (
{
background = {
paths = (
{
closed = 1;
nodes = (
"2 278 LINE",
"2 204 LINE",
"207 204 LINE",
"207 278 LINE"
);
}
);
};
layerId = "A4368790-3638-4B5D-B474-0996C59BD988";
name = Regular;
paths = (
{
closed = 1;
nodes = (
"151 273 LINE",
"14 241 LINE",
"196 241 LINE"
);
}
);
width = 208;
}
);
unicode = 00AD;
},
{
changeCount = 1;
color = 6;
glyphname = guillemotleft;
layers = (
{
background = {
paths = (
{
closed = 1;
nodes = (
"297 240 LINE",
"432 411 LINE",
"379 453 LINE",
"211 240 LINE",
"379 33 LINE",
"432 74 LINE"
);
},
{
closed = 1;
nodes = (
"127 240 LINE",
"262 411 LINE",
"209 453 LINE",
"41 240 LINE",
"209 33 LINE",
"262 74 LINE"
);
}
);
};
layerId = "A4368790-3638-4B5D-B474-0996C59BD988";
name = Regular;
paths = (
{
closed = 1;
nodes = (
"397 175 LINE",
"397 417 LINE",
"256 239 LINE",
"396 67 LINE"
);
},
{
closed = 1;
nodes = (
"217 159 LINE",
"227 417 LINE",
"87 239 LINE",
"227 67 LINE"
);
}
);
width = 500;
}
);
unicode = 00AB;
},
{
changeCount = 1;
color = 6;
glyphname = guillemotright;
layers = (
{
background = {
paths = (
{
closed = 1;
nodes = (
"68 74 LINE",
"121 33 LINE",
"289 240 LINE",
"121 453 LINE",
"68 411 LINE",
"203 240 LINE"
);
},
{
closed = 1;
nodes = (
"238 74 LINE",
"291 33 LINE",
"459 240 LINE",
"291 453 LINE",
"238 411 LINE",
"373 240 LINE"
);
}
);
};
layerId = "A4368790-3638-4B5D-B474-0996C59BD988";
name = Regular;
paths = (
{
closed = 1;
nodes = (
"285 157 LINE",
"275 65 LINE",
"415 238 LINE",
"275 415 LINE"
);
},
{
closed = 1;
nodes = (
"105 173 LINE",
"105 65 LINE",
"245 238 LINE",
"105 415 LINE"
);
}
);
width = 500;
}
);
unicode = 00BB;
},
{
changeCount = 1;
color = 6;
glyphname = guilsinglleft;
layers = (
{
background = {
paths = (
{
closed = 1;
nodes = (
"127 240 LINE",
"262 411 LINE",
"209 453 LINE",
"41 240 LINE",
"209 33 LINE",
"262 74 LINE"
);
}
);
};
layerId = "A4368790-3638-4B5D-B474-0996C59BD988";
name = Regular;
paths = (
{
closed = 1;
nodes = (
"212 159 LINE",
"222 417 LINE",
"82 239 LINE",
"222 67 LINE"
);
}
);
width = 330;
}
);
unicode = 2039;
},
{
changeCount = 1;
color = 6;
glyphname = guilsinglright;
layers = (
{
background = {
paths = (
{
closed = 1;
nodes = (
"68 74 LINE",
"121 33 LINE",
"289 240 LINE",
"121 453 LINE",
"68 411 LINE",
"203 240 LINE"
);
}
);
};
layerId = "A4368790-3638-4B5D-B474-0996C59BD988";
name = Regular;
paths = (
{
closed = 1;
nodes = (
"119 157 LINE",
"109 65 LINE",
"249 238 LINE",
"109 415 LINE"
);
}
);
width = 330;
}
);
unicode = 203A;
},
{
changeCount = 1;
color = 6;
glyphname = quotedblbase;
layers = (
{
background = {
paths = (
{
closed = 1;
nodes = (
"155 110 LINE",
"61 -150 LINE",
"115 -172 LINE",
"229 84 LINE"
);
},
{
closed = 1;
nodes = (
"330 110 LINE",
"236 -150 LINE",
"290 -172 LINE",
"404 84 LINE"
);
}
);
};
layerId = "A4368790-3638-4B5D-B474-0996C59BD988";
name = Regular;
paths = (
{
closed = 1;
nodes = (
"243 -7 LINE",
"272 -134 LINE",
"356 70 LINE"
);
},
{
closed = 1;
nodes = (
"70 -7 LINE",
"99 -134 LINE",
"183 70 LINE"
);
}
);
width = 464;
}
);
unicode = 201E;
},
{
changeCount = 1;
color = 6;
glyphname = quotedblleft;
layers = (
{
background = {
paths = (
{
closed = 1;
nodes = (
"303 485 LINE",
"397 746 LINE",
"343 767 LINE",
"229 512 LINE"
);
},
{
closed = 1;
nodes = (
"135 485 LINE",
"229 746 LINE",
"175 767 LINE",
"61 512 LINE"
);
}
);
};
layerId = "A4368790-3638-4B5D-B474-0996C59BD988";
name = Regular;
paths = (
{
closed = 1;
nodes = (
"248 653 LINE",
"277 526 LINE",
"361 730 LINE"
);
},
{
closed = 1;
nodes = (
"75 653 LINE",
"104 526 LINE",
"188 730 LINE"
);
}
);
width = 457;
}
);
unicode = 201C;
},
{
changeCount = 1;
color = 6;
glyphname = quotedblright;
layers = (
{
background = {
paths = (
{
closed = 1;
nodes = (
"155 767 LINE",
"61 506 LINE",
"115 485 LINE",
"229 740 LINE"
);
},
{
closed = 1;
nodes = (
"323 767 LINE",
"229 506 LINE",
"283 485 LINE",
"397 740 LINE"
);
}
);
};
layerId = "A4368790-3638-4B5D-B474-0996C59BD988";
name = Regular;
paths = (
{
closed = 1;
nodes = (
"241 652 LINE",
"270 525 LINE",
"354 729 LINE"
);
},
{
closed = 1;
nodes = (
"68 652 LINE",
"97 525 LINE",
"181 729 LINE"
);
}
);
width = 457;
}
);
unicode = 201D;
},
{
changeCount = 1;
color = 6;
glyphname = quoteleft;
layers = (
{
background = {
paths = (
{
closed = 1;
nodes = (
"135 485 LINE",
"229 746 LINE",
"175 767 LINE",
"61 512 LINE"
);
}
);
};
layerId = "A4368790-3638-4B5D-B474-0996C59BD988";
name = Regular;
paths = (
{
closed = 1;
nodes = (
"77 649 LINE",
"106 522 LINE",
"190 726 LINE"
);
}
);
width = 289;
}
);
unicode = 2018;
},
{
changeCount = 1;
color = 6;
glyphname = quoteright;
layers = (
{
background = {
paths = (
{
closed = 1;
nodes = (
"154 767 LINE",
"60 506 LINE",
"114 485 LINE",
"228 740 LINE"
);
}
);
};
layerId = "A4368790-3638-4B5D-B474-0996C59BD988";
name = Regular;
paths = (
{
closed = 1;
nodes = (
"71 652 LINE",
"100 525 LINE",
"184 729 LINE"
);
}
);
width = 289;
}
);
leftKerningGroupId = "@MMK_R_quoteright";
rightKerningGroupId = "@MMK_L_quoteright";
unicode = 2019;
},
{
changeCount = 1;
color = 6;
glyphname = quotesinglbase;
layers = (
{
background = {
paths = (
{
closed = 1;
nodes = (
"155 110 LINE",
"61 -150 LINE",
"115 -172 LINE",
"229 84 LINE"
);
}
);
};
layerId = "A4368790-3638-4B5D-B474-0996C59BD988";
name = Regular;
paths = (
{
closed = 1;
nodes = (
"70 -7 LINE",
"99 -134 LINE",
"183 70 LINE"
);
}
);
width = 289;
}
);
unicode = 201A;
},
{
changeCount = 0;
export = 0;
glyphname = Euro;
layers = (
{
layerId = "A4368790-3638-4B5D-B474-0996C59BD988";
name = Regular;
paths = (
{
closed = 1;
nodes = (
"567 715 LINE",
"537 739 OFFCURVE",
"473 766 OFFCURVE",
"389 766 CURVE SMOOTH",
"213 766 OFFCURVE",
"131 645 OFFCURVE",
"108 483 CURVE",
"52 483 LINE",
"29 419 LINE",
"102 419 LINE",
"102 408 OFFCURVE",
"101 393 OFFCURVE",
"101 379 CURVE SMOOTH",
"101 365 OFFCURVE",
"102 347 OFFCURVE",
"103 337 CURVE",
"52 337 LINE",
"29 273 LINE",
"109 273 LINE",
"135 78 OFFCURVE",
"235 -12 OFFCURVE",
"388 -12 CURVE SMOOTH",
"477 -12 OFFCURVE",
"540 13 OFFCURVE",
"567 37 CURVE",
"567 121 LINE",
"530 88 OFFCURVE",
"477 61 OFFCURVE",
"399 61 CURVE SMOOTH",
"281 61 OFFCURVE",
"210 138 OFFCURVE",
"192 273 CURVE",
"443 273 LINE",
"466 337 LINE",
"183 337 LINE",
"183 348 OFFCURVE",
"182 363 OFFCURVE",
"182 379 CURVE SMOOTH",
"182 392 OFFCURVE",
"183 408 OFFCURVE",
"183 419 CURVE",
"496 419 LINE",
"519 483 LINE",
"192 483 LINE",
"206 600 OFFCURVE",
"270 691 OFFCURVE",
"398 691 CURVE SMOOTH",
"477 691 OFFCURVE",
"534 664 OFFCURVE",
"567 632 CURVE"
);
}
);
width = 616;
}
);
unicode = 20AC;
},
{
changeCount = 0;
export = 0;
glyphname = cent;
layers = (
{
layerId = "A4368790-3638-4B5D-B474-0996C59BD988";
name = Regular;
paths = (
{
closed = 1;
nodes = (
"491 587 LINE",
"455 612 OFFCURVE",
"414 627 OFFCURVE",
"371 631 CURVE",
"371 735 LINE",
"305 735 LINE",
"305 629 LINE",
"181 614 OFFCURVE",
"95 503 OFFCURVE",
"95 380 CURVE SMOOTH",
"95 263 OFFCURVE",
"187 153 OFFCURVE",
"305 140 CURVE",
"305 27 LINE",
"371 27 LINE",
"371 139 LINE",
"415 142 OFFCURVE",
"457 162 OFFCURVE",
"493 186 CURVE",
"493 293 LINE",
"491 293 LINE",
"463 254 OFFCURVE",
"421 220 OFFCURVE",
"371 213 CURVE",
"371 557 LINE",
"419 550 OFFCURVE",
"460 518 OFFCURVE",
"489 481 CURVE",
"491 481 LINE"
);
},
{
closed = 1;
nodes = (
"305 214 LINE",
"225 230 OFFCURVE",
"177 307 OFFCURVE",
"177 386 CURVE SMOOTH",
"177 462 OFFCURVE",
"227 540 OFFCURVE",
"305 555 CURVE"
);
}
);
width = 616;
}
);
unicode = 00A2;
},
{
changeCount = 0;
export = 0;
glyphname = currency;
layers = (
{
layerId = "A4368790-3638-4B5D-B474-0996C59BD988";
name = Regular;
paths = (
{
closed = 1;
nodes = (
"66 498 LINE",
"106 458 LINE",
"69 401 OFFCURVE",
"53 357 OFFCURVE",
"53 300 CURVE SMOOTH",
"53 243 OFFCURVE",
"69 199 OFFCURVE",
"106 142 CURVE",
"66 102 LINE",
"102 66 LINE",
"144 108 LINE",
"198 69 OFFCURVE",
"244 50 OFFCURVE",
"308 50 CURVE SMOOTH",
"372 50 OFFCURVE",
"418 69 OFFCURVE",
"472 108 CURVE",
"514 66 LINE",
"550 102 LINE",
"510 142 LINE",
"547 199 OFFCURVE",
"563 243 OFFCURVE",
"563 300 CURVE SMOOTH",
"563 357 OFFCURVE",
"547 401 OFFCURVE",
"510 458 CURVE",
"550 498 LINE",
"514 534 LINE",
"472 492 LINE",
"418 531 OFFCURVE",
"372 550 OFFCURVE",
"308 550 CURVE SMOOTH",
"244 550 OFFCURVE",
"198 531 OFFCURVE",
"144 492 CURVE",
"102 534 LINE"
);
},
{
closed = 1;
nodes = (
"416 484 OFFCURVE",
"501 407 OFFCURVE",
"499 300 CURVE SMOOTH",
"497 200 OFFCURVE",
"413 114 OFFCURVE",
"308 114 CURVE SMOOTH",
"203 114 OFFCURVE",
"119 200 OFFCURVE",
"117 300 CURVE SMOOTH",
"115 407 OFFCURVE",
"200 484 OFFCURVE",
"308 486 CURVE"
);
}
);
width = 616;
}
);
unicode = 00A4;
},
{
changeCount = 0;
export = 0;
glyphname = dollar;
layers = (
{
layerId = "A4368790-3638-4B5D-B474-0996C59BD988";
name = Regular;
paths = (
{
closed = 1;
nodes = (
"356 344 LINE",
"408 319 OFFCURVE",
"458 283 OFFCURVE",
"458 219 CURVE SMOOTH",
"458 153 OFFCURVE",
"419 97 OFFCURVE",
"356 76 CURVE"
);
},
{
closed = 1;
nodes = (
"290 463 LINE",
"246 483 OFFCURVE",
"197 514 OFFCURVE",
"197 569 CURVE SMOOTH",
"197 624 OFFCURVE",
"237 672 OFFCURVE",
"290 682 CURVE"
);
},
{
closed = 1;
nodes = (
"290 69 LINE",
"219 74 OFFCURVE",
"164 137 OFFCURVE",
"155 206 CURVE",
"74 183 LINE",
"93 78 OFFCURVE",
"182 -6 OFFCURVE",
"290 -11 CURVE",
"290 -115 LINE",
"356 -115 LINE",
"356 -5 LINE",
"464 17 OFFCURVE",
"542 110 OFFCURVE",
"542 221 CURVE SMOOTH",
"542 341 OFFCURVE",
"455 392 OFFCURVE",
"356 434 CURVE",
"356 681 LINE",
"398 673 OFFCURVE",
"428 639 OFFCURVE",
"448 604 CURVE",
"514 647 LINE",
"484 707 OFFCURVE",
"424 752 OFFCURVE",
"356 761 CURVE",
"356 864 LINE",
"290 864 LINE",
"290 761 LINE",
"191 747 OFFCURVE",
"113 676 OFFCURVE",
"113 572 CURVE SMOOTH",
"113 461 OFFCURVE",
"199 412 OFFCURVE",
"290 374 CURVE"
);
}
);
width = 616;
}
);
unicode = 0024;
},
{
changeCount = 0;
export = 0;
glyphname = sterling;
layers = (
{
layerId = "A4368790-3638-4B5D-B474-0996C59BD988";
name = Regular;
paths = (
{
closed = 1;
nodes = (
"208 268 LINE",
"213 252 OFFCURVE",
"215 235 OFFCURVE",
"215 219 CURVE SMOOTH",
"215 185 OFFCURVE",
"202 153 OFFCURVE",
"183 126 CURVE",
"119 125 OFFCURVE",
"69 81 OFFCURVE",
"37 29 CURVE",
"102 -15 LINE",
"122 19 OFFCURVE",
"151 46 OFFCURVE",
"192 46 CURVE SMOOTH",
"225 46 OFFCURVE",
"262 31 OFFCURVE",
"302 17 CURVE SMOOTH",
"341 3 OFFCURVE",
"383 -12 OFFCURVE",
"424 -12 CURVE SMOOTH",
"496 -12 OFFCURVE",
"550 42 OFFCURVE",
"578 104 CURVE",
"510 145 LINE",
"490 110 OFFCURVE",
"464 70 OFFCURVE",
"419 70 CURVE SMOOTH",
"386 70 OFFCURVE",
"310 101 OFFCURVE",
"274 113 CURVE",
"269 115 LINE",
"287 146 OFFCURVE",
"302 187 OFFCURVE",
"302 223 CURVE SMOOTH",
"302 238 OFFCURVE",
"299 253 OFFCURVE",
"295 268 CURVE",
"415 268 LINE",
"415 332 LINE",
"273 332 LINE",
"243 402 OFFCURVE",
"184 472 OFFCURVE",
"184 551 CURVE SMOOTH",
"184 629 OFFCURVE",
"247 687 OFFCURVE",
"323 687 CURVE SMOOTH",
"422 687 OFFCURVE",
"457 605 OFFCURVE",
"458 519 CURVE",
"540 541 LINE",
"539 669 OFFCURVE",
"452 767 OFFCURVE",
"321 767 CURVE SMOOTH",
"200 767 OFFCURVE",
"98 676 OFFCURVE",
"98 553 CURVE SMOOTH",
"98 482 OFFCURVE",
"131 430 OFFCURVE",
"162 369 CURVE SMOOTH",
"181 332 LINE",
"81 332 LINE",
"81 268 LINE"
);
}
);
width = 616;
}
);
unicode = 00A3;
},
{
changeCount = 0;
export = 0;
glyphname = yen;
layers = (
{
layerId = "A4368790-3638-4B5D-B474-0996C59BD988";
name = Regular;
paths = (
{
closed = 1;
nodes = (
"266 0 LINE",
"350 0 LINE",
"350 256 LINE",
"587 256 LINE",
"587 320 LINE",
"350 320 LINE",
"405 420 LINE",
"587 420 LINE",
"587 484 LINE",
"442 484 LINE",
"597 754 LINE",
"500 754 LINE",
"308 420 LINE",
"116 754 LINE",
"19 754 LINE",
"174 484 LINE",
"29 484 LINE",
"29 420 LINE",
"211 420 LINE",
"266 320 LINE",
"29 320 LINE",
"29 256 LINE",
"266 256 LINE"
);
}
);
width = 616;
}
);
unicode = 00A5;
},
{
changeCount = 0;
export = 0;
glyphname = approxequal;
layers = (
{
layerId = "A4368790-3638-4B5D-B474-0996C59BD988";
name = Regular;
paths = (
{
closed = 1;
nodes = (
"537 464 LINE",
"506 411 OFFCURVE",
"477 383 OFFCURVE",
"431 383 CURVE SMOOTH",
"391 383 OFFCURVE",
"365 400 OFFCURVE",
"326 421 CURVE SMOOTH",
"295 437 OFFCURVE",
"256 466 OFFCURVE",
"202 466 CURVE SMOOTH",
"139 466 OFFCURVE",
"85 427 OFFCURVE",
"51 363 CURVE",
"85 335 LINE",
"113 378 OFFCURVE",
"143 417 OFFCURVE",
"195 417 CURVE SMOOTH",
"232 417 OFFCURVE",
"265 399 OFFCURVE",
"299 380 CURVE SMOOTH",
"352 350 OFFCURVE",
"383 333 OFFCURVE",
"429 333 CURVE SMOOTH",
"496 333 OFFCURVE",
"540 379 OFFCURVE",
"569 436 CURVE"
);
},
{
closed = 1;
nodes = (
"537 279 LINE",
"505 225 OFFCURVE",
"477 198 OFFCURVE",
"432 198 CURVE SMOOTH",
"390 198 OFFCURVE",
"363 217 OFFCURVE",
"326 236 CURVE SMOOTH",
"295 252 OFFCURVE",
"256 281 OFFCURVE",
"202 281 CURVE SMOOTH",
"139 281 OFFCURVE",
"85 242 OFFCURVE",
"51 178 CURVE",
"85 149 LINE",
"112 192 OFFCURVE",
"143 232 OFFCURVE",
"195 232 CURVE SMOOTH",
"232 232 OFFCURVE",
"264 214 OFFCURVE",
"299 195 CURVE SMOOTH",
"352 165 OFFCURVE",
"383 148 OFFCURVE",
"428 148 CURVE SMOOTH",
"496 148 OFFCURVE",
"540 194 OFFCURVE",
"569 250 CURVE"
);
}
);
width = 622;
}
);
unicode = 2248;
},
{
changeCount = 2;
color = 6;
glyphname = asciitilde;
layers = (
{
background = {
paths = (
{
closed = 1;
nodes = (
"135 172 LINE",
"152 226 OFFCURVE",
"177 268 OFFCURVE",
"205 268 CURVE SMOOTH",
"232 268 OFFCURVE",
"265 243 OFFCURVE",
"309 214 CURVE SMOOTH",
"339 194 OFFCURVE",
"377 170 OFFCURVE",
"411 170 CURVE SMOOTH",
"477 170 OFFCURVE",
"523 237 OFFCURVE",
"550 317 CURVE",
"482 345 LINE",
"466 291 OFFCURVE",
"439 248 OFFCURVE",
"411 248 CURVE SMOOTH",
"384 248 OFFCURVE",
"348 280 OFFCURVE",
"314 302 CURVE SMOOTH",
"279 325 OFFCURVE",
"239 347 OFFCURVE",
"205 347 CURVE SMOOTH",
"140 347 OFFCURVE",
"95 280 OFFCURVE",
"66 200 CURVE"
);
}
);
};
layerId = "A4368790-3638-4B5D-B474-0996C59BD988";
name = Regular;
paths = (
{
closed = 1;
nodes = (
"366 380 LINE",
"109 208 LINE",
"131 265 OFFCURVE",
"164 308 OFFCURVE",
"205 308 CURVE SMOOTH",
"236 308 OFFCURVE",
"272 284 OFFCURVE",
"312 258 CURVE SMOOTH",
"344 237 OFFCURVE",
"381 209 OFFCURVE",
"411 209 CURVE SMOOTH",
"452 209 OFFCURVE",
"486 252 OFFCURVE",
"508 308 CURVE"
);
}
);
width = 616;
}
);
unicode = 007E;
},
{
changeCount = 2;
color = 6;
glyphname = bulletoperator;
layers = (
{
background = {
paths = (
{
closed = 1;
nodes = (
"123 311 OFFCURVE",
"98 286 OFFCURVE",
"98 256 CURVE SMOOTH",
"98 225 OFFCURVE",
"123 199 OFFCURVE",
"154 199 CURVE SMOOTH",
"185 199 OFFCURVE",
"210 225 OFFCURVE",
"210 256 CURVE SMOOTH",
"210 286 OFFCURVE",
"185 311 OFFCURVE",
"154 311 CURVE SMOOTH"
);
}
);
};
layerId = "A4368790-3638-4B5D-B474-0996C59BD988";
name = Regular;
paths = (
{
closed = 1;
nodes = (
"165 260 LINE SMOOTH",
"154 260 LINE",
"154 249 LINE"
);
}
);
width = 308;
}
);
unicode = 2219;
},
{
changeCount = 2;
color = 6;
glyphname = divide;
layers = (
{
background = {
paths = (
{
closed = 1;
nodes = (
"66 217 LINE",
"550 217 LINE",
"550 295 LINE",
"66 295 LINE"
);
},
{
closed = 1;
nodes = (
"277 124 OFFCURVE",
"251 98 OFFCURVE",
"251 67 CURVE SMOOTH",
"251 35 OFFCURVE",
"277 10 OFFCURVE",
"308 10 CURVE SMOOTH",
"339 10 OFFCURVE",
"365 35 OFFCURVE",
"365 67 CURVE SMOOTH",
"365 98 OFFCURVE",
"339 124 OFFCURVE",
"308 124 CURVE SMOOTH"
);
},
{
closed = 1;
nodes = (
"277 502 OFFCURVE",
"251 476 OFFCURVE",
"251 445 CURVE SMOOTH",
"251 413 OFFCURVE",
"277 388 OFFCURVE",
"308 388 CURVE SMOOTH",
"339 388 OFFCURVE",
"365 413 OFFCURVE",
"365 445 CURVE SMOOTH",
"365 476 OFFCURVE",
"339 502 OFFCURVE",
"308 502 CURVE SMOOTH"
);
}
);
};
layerId = "A4368790-3638-4B5D-B474-0996C59BD988";
name = Regular;
paths = (
{
closed = 1;
nodes = (
"215 347 LINE",
"87 256 LINE",
"530 256 LINE"
);
},
{
closed = 1;
nodes = (
"320 72 LINE",
"309 72 LINE",
"309 61 LINE"
);
},
{
closed = 1;
nodes = (
"320 442 LINE",
"309 452 LINE",
"309 441 LINE"
);
}
);
width = 616;
}
);
unicode = 00F7;
},
{
changeCount = 2;
color = 6;
glyphname = equal;
layers = (
{
background = {
paths = (
{
closed = 1;
nodes = (
"66 373 LINE",
"66 295 LINE",
"550 295 LINE",
"550 373 LINE"
);
},
{
closed = 1;
nodes = (
"66 217 LINE",
"66 139 LINE",
"550 139 LINE",
"550 217 LINE"
);
}
);
};
layerId = "A4368790-3638-4B5D-B474-0996C59BD988";
name = Regular;
paths = (
{
closed = 1;
nodes = (
"409 387 LINE",
"86 332 LINE",
"531 332 LINE"
);
},
{
closed = 1;
nodes = (
"409 230 LINE",
"86 175 LINE",
"531 175 LINE"
);
}
);
width = 616;
}
);
unicode = 003D;
},
{
changeCount = 2;
color = 6;
glyphname = greater;
layers = (
{
background = {
paths = (
{
closed = 1;
nodes = (
"66 413 LINE",
"434 256 LINE",
"66 99 LINE",
"66 14 LINE",
"550 221 LINE",
"550 291 LINE",
"66 498 LINE"
);
}
);
};
layerId = "A4368790-3638-4B5D-B474-0996C59BD988";
name = Regular;
paths = (
{
closed = 1;
nodes = (
"52 280 LINE",
"80 63 LINE",
"529 257 LINE",
"80 449 LINE"
);
}
);
width = 616;
}
);
unicode = 003E;
},
{
changeCount = 0;
export = 0;
glyphname = greaterequal;
layers = (
{
layerId = "A4368790-3638-4B5D-B474-0996C59BD988";
name = Regular;
paths = (
{
closed = 1;
nodes = (
"64 647 LINE",
"64 586 LINE",
"507 375 LINE",
"507 373 LINE",
"64 162 LINE",
"64 101 LINE",
"563 347 LINE",
"563 401 LINE"
);
},
{
closed = 1;
nodes = (
"564 4 LINE",
"564 56 LINE",
"57 56 LINE",
"57 4 LINE"
);
}
);
width = 622;
}
);
unicode = 2265;
},
{
changeCount = 0;
export = 0;
glyphname = increment;
layers = (
{
layerId = "A4368790-3638-4B5D-B474-0996C59BD988";
name = Regular;
paths = (
{
closed = 1;
nodes = (
"34 0 LINE",
"681 0 LINE",
"681 55 LINE",
"405 772 LINE",
"314 772 LINE",
"34 54 LINE"
);
},
{
closed = 1;
nodes = (
"114 63 LINE",
"287 500 LINE",
"307 558 OFFCURVE",
"344 645 OFFCURVE",
"354 684 CURVE",
"358 684 LINE",
"372 635 OFFCURVE",
"413 540 OFFCURVE",
"433 483 CURVE SMOOTH",
"597 63 LINE"
);
}
);
width = 715;
}
);
unicode = 2206;
},
{
changeCount = 0;
export = 0;
glyphname = infinity;
layers = (
{
layerId = "A4368790-3638-4B5D-B474-0996C59BD988";
name = Regular;
paths = (
{
closed = 1;
nodes = (
"794 313 LINE SMOOTH",
"794 411 OFFCURVE",
"731 479 OFFCURVE",
"636 480 CURVE SMOOTH",
"544 480 OFFCURVE",
"488 412 OFFCURVE",
"430 348 CURVE",
"372 416 OFFCURVE",
"309 480 OFFCURVE",
"227 480 CURVE SMOOTH",
"129 480 OFFCURVE",
"56 407 OFFCURVE",
"56 308 CURVE SMOOTH",
"56 212 OFFCURVE",
"131 139 OFFCURVE",
"219 139 CURVE SMOOTH",
"308 139 OFFCURVE",
"368 204 OFFCURVE",
"426 270 CURVE",
"503 183 OFFCURVE",
"558 139 OFFCURVE",
"628 139 CURVE SMOOTH",
"714 139 OFFCURVE",
"794 206 OFFCURVE",
"794 311 CURVE SMOOTH"
);
},
{
closed = 1;
nodes = (
"226 188 LINE SMOOTH",
"156 188 OFFCURVE",
"109 241 OFFCURVE",
"109 306 CURVE SMOOTH",
"109 373 OFFCURVE",
"149 432 OFFCURVE",
"219 432 CURVE SMOOTH",
"299 432 OFFCURVE",
"349 365 OFFCURVE",
"399 306 CURVE",
"353 258 OFFCURVE",
"298 188 OFFCURVE",
"227 188 CURVE SMOOTH"
);
},
{
closed = 1;
nodes = (
"630 432 LINE SMOOTH",
"694 432 OFFCURVE",
"742 386 OFFCURVE",
"742 308 CURVE SMOOTH",
"742 250 OFFCURVE",
"702 188 OFFCURVE",
"632 188 CURVE SMOOTH",
"573 188 OFFCURVE",
"530 231 OFFCURVE",
"456 311 CURVE",
"495 350 OFFCURVE",
"555 432 OFFCURVE",
"629 432 CURVE SMOOTH"
);
}
);
width = 850;
}
);
unicode = 221E;
},
{
changeCount = 0;
export = 0;
glyphname = integral;
layers = (
{
layerId = "A4368790-3638-4B5D-B474-0996C59BD988";
name = Regular;
paths = (
{
closed = 1;
nodes = (
"371 902 LINE",
"360 909 OFFCURVE",
"334 917 OFFCURVE",
"311 917 CURVE SMOOTH",
"275 917 OFFCURVE",
"238 905 OFFCURVE",
"211 876 CURVE",
"168 833 OFFCURVE",
"152 766 OFFCURVE",
"152 649 CURVE SMOOTH",
"152 480 OFFCURVE",
"168 275 OFFCURVE",
"168 100 CURVE SMOOTH",
"168 -11 OFFCURVE",
"151 -59 OFFCURVE",
"129 -87 CURVE SMOOTH",
"116 -103 OFFCURVE",
"96 -112 OFFCURVE",
"78 -112 CURVE SMOOTH",
"56 -112 OFFCURVE",
"37 -103 OFFCURVE",
"27 -98 CURVE",
"13 -154 LINE",
"26 -162 OFFCURVE",
"56 -172 OFFCURVE",
"84 -172 CURVE SMOOTH",
"126 -172 OFFCURVE",
"167 -155 OFFCURVE",
"191 -118 CURVE SMOOTH",
"215 -81 OFFCURVE",
"238 -18 OFFCURVE",
"238 99 CURVE SMOOTH",
"238 273 OFFCURVE",
"223 474 OFFCURVE",
"223 641 CURVE SMOOTH",
"223 744 OFFCURVE",
"233 802 OFFCURVE",
"261 834 CURVE",
"276 853 OFFCURVE",
"299 860 OFFCURVE",
"317 860 CURVE SMOOTH",
"331 860 OFFCURVE",
"348 854 OFFCURVE",
"358 848 CURVE"
);
}
);
width = 388;
}
);
unicode = 222B;
},
{
changeCount = 2;
color = 6;
glyphname = less;
layers = (
{
background = {
paths = (
{
closed = 1;
nodes = (
"550 498 LINE",
"66 291 LINE",
"66 221 LINE",
"550 14 LINE",
"550 99 LINE",
"182 256 LINE",
"550 413 LINE"
);
}
);
};
layerId = "A4368790-3638-4B5D-B474-0996C59BD988";
name = Regular;
paths = (
{
closed = 1;
nodes = (
"534 271 LINE",
"530 448 LINE",
"81 256 LINE",
"530 62 LINE"
);
}
);
width = 616;
}
);
unicode = 003C;
},
{
changeCount = 0;
export = 0;
glyphname = lessequal;
layers = (
{
layerId = "A4368790-3638-4B5D-B474-0996C59BD988";
name = Regular;
paths = (
{
closed = 1;
nodes = (
"562 101 LINE",
"562 162 LINE",
"118 374 LINE",
"118 376 LINE",
"562 586 LINE",
"562 647 LINE",
"63 401 LINE",
"63 347 LINE"
);
},
{
closed = 1;
nodes = (
"565 4 LINE",
"565 56 LINE",
"56 56 LINE",
"56 4 LINE"
);
}
);
width = 622;
}
);
unicode = 2264;
},
{
changeCount = 0;
export = 0;
glyphname = logicalnot;
layers = (
{
layerId = "A4368790-3638-4B5D-B474-0996C59BD988";
name = Regular;
paths = (
{
closed = 1;
nodes = (
"472 103 LINE",
"550 103 LINE",
"550 373 LINE",
"66 373 LINE",
"66 295 LINE",
"472 295 LINE"
);
}
);
width = 616;
}
);
unicode = 00AC;
},
{
changeCount = 2;
color = 6;
glyphname = minus;
layers = (
{
background = {
paths = (
{
closed = 1;
nodes = (
"66 217 LINE",
"550 217 LINE",
"550 295 LINE",
"66 295 LINE"
);
}
);
};
layerId = "A4368790-3638-4B5D-B474-0996C59BD988";
name = Regular;
paths = (
{
closed = 1;
nodes = (
"346 345 LINE",
"67 255 LINE",
"550 255 LINE"
);
}
);
width = 616;
}
);
unicode = 2212;
},
{
changeCount = 2;
color = 6;
glyphname = multiply;
layers = (
{
background = {
paths = (
{
closed = 1;
nodes = (
"66 443 LINE",
"253 256 LINE",
"66 69 LINE",
"121 14 LINE",
"308 201 LINE",
"494 14 LINE",
"550 69 LINE",
"363 256 LINE",
"550 443 LINE",
"494 498 LINE",
"308 311 LINE",
"121 498 LINE"
);
}
);
};
layerId = "A4368790-3638-4B5D-B474-0996C59BD988";
name = Regular;
paths = (
{
closed = 1;
nodes = (
"317 339 LINE",
"108 456 LINE",
"508 55 LINE"
);
},
{
closed = 1;
nodes = (
"281 125 LINE",
"508 456 LINE",
"108 57 LINE"
);
}
);
width = 616;
}
);
unicode = 00D7;
},
{
changeCount = 2;
color = 6;
glyphname = notequal;
layers = (
{
background = {
paths = (
{
closed = 1;
nodes = (
"440 546 LINE",
"400 565 LINE",
"340 437 LINE",
"56 437 LINE",
"56 386 LINE",
"320 386 LINE",
"245 225 LINE",
"56 225 LINE",
"56 174 LINE",
"224 174 LINE",
"172 63 LINE",
"213 44 LINE",
"273 174 LINE",
"565 174 LINE",
"565 225 LINE",
"294 225 LINE",
"369 386 LINE",
"565 386 LINE",
"565 437 LINE",
"390 437 LINE"
);
}
);
};
layerId = "A4368790-3638-4B5D-B474-0996C59BD988";
name = Regular;
paths = (
{
closed = 1;
nodes = (
"343 153 LINE",
"409 536 LINE",
"200 73 LINE"
);
},
{
closed = 1;
nodes = (
"409 254 LINE",
"76 199 LINE",
"545 199 LINE"
);
},
{
closed = 1;
nodes = (
"409 466 LINE",
"76 411 LINE",
"545 411 LINE"
);
}
);
width = 622;
}
);
unicode = 2260;
},
{
changeCount = 0;
export = 0;
glyphname = partialdiff;
layers = (
{
layerId = "A4368790-3638-4B5D-B474-0996C59BD988";
name = Regular;
paths = (
{
closed = 1;
nodes = (
"112 726 LINE",
"142 751 OFFCURVE",
"191 778 OFFCURVE",
"260 778 CURVE SMOOTH",
"372 778 OFFCURVE",
"469 650 OFFCURVE",
"469 455 CURVE SMOOTH",
"469 442 OFFCURVE",
"469 419 OFFCURVE",
"467 406 CURVE",
"466 406 LINE",
"449 439 OFFCURVE",
"385 514 OFFCURVE",
"281 514 CURVE SMOOTH",
"157 514 OFFCURVE",
"47 407 OFFCURVE",
"47 240 CURVE SMOOTH",
"47 119 OFFCURVE",
"114 -9 OFFCURVE",
"258 -9 CURVE SMOOTH",
"448 -9 OFFCURVE",
"545 188 OFFCURVE",
"545 435 CURVE SMOOTH",
"545 710 OFFCURVE",
"410 842 OFFCURVE",
"267 842 CURVE SMOOTH",
"178 842 OFFCURVE",
"120 810 OFFCURVE",
"84 782 CURVE"
);
},
{
closed = 1;
nodes = (
"265 56 LINE SMOOTH",
"180 56 OFFCURVE",
"124 135 OFFCURVE",
"124 241 CURVE SMOOTH",
"124 357 OFFCURVE",
"201 451 OFFCURVE",
"293 451 CURVE SMOOTH",
"381 451 OFFCURVE",
"441 377 OFFCURVE",
"457 329 CURVE",
"442 187 OFFCURVE",
"373 56 OFFCURVE",
"266 56 CURVE SMOOTH"
);
}
);
width = 601;
}
);
unicode = 2202;
},
{
changeCount = 2;
color = 6;
glyphname = percent;
layers = (
{
background = {
paths = (
{
closed = 1;
nodes = (
"256 703 OFFCURVE",
"304 658 OFFCURVE",
"304 602 CURVE SMOOTH",
"304 547 OFFCURVE",
"256 502 OFFCURVE",
"200 502 CURVE SMOOTH",
"144 502 OFFCURVE",
"96 547 OFFCURVE",
"96 602 CURVE SMOOTH",
"96 658 OFFCURVE",
"144 703 OFFCURVE",
"200 703 CURVE SMOOTH"
);
},
{
closed = 1;
nodes = (
"597 767 LINE",
"158 13 LINE",
"201 -13 LINE",
"637 743 LINE"
);
},
{
closed = 1;
nodes = (
"654 252 OFFCURVE",
"702 207 OFFCURVE",
"702 151 CURVE SMOOTH",
"702 96 OFFCURVE",
"654 51 OFFCURVE",
"598 51 CURVE SMOOTH",
"542 51 OFFCURVE",
"494 96 OFFCURVE",
"494 151 CURVE SMOOTH",
"494 207 OFFCURVE",
"542 252 OFFCURVE",
"598 252 CURVE SMOOTH"
);
},
{
closed = 1;
nodes = (
"108 767 OFFCURVE",
"32 695 OFFCURVE",
"32 602 CURVE SMOOTH",
"32 509 OFFCURVE",
"109 438 OFFCURVE",
"200 438 CURVE SMOOTH",
"291 438 OFFCURVE",
"368 510 OFFCURVE",
"368 602 CURVE SMOOTH",
"368 695 OFFCURVE",
"292 767 OFFCURVE",
"200 767 CURVE SMOOTH"
);
},
{
closed = 1;
nodes = (
"506 316 OFFCURVE",
"430 244 OFFCURVE",
"430 151 CURVE SMOOTH",
"430 58 OFFCURVE",
"507 -13 OFFCURVE",
"598 -13 CURVE SMOOTH",
"689 -13 OFFCURVE",
"766 59 OFFCURVE",
"766 151 CURVE SMOOTH",
"766 244 OFFCURVE",
"690 316 OFFCURVE",
"598 316 CURVE SMOOTH"
);
}
);
};
layerId = "A4368790-3638-4B5D-B474-0996C59BD988";
name = Regular;
paths = (
{
closed = 1;
nodes = (
"448 329 LINE",
"604 732 LINE",
"199 25 LINE"
);
},
{
closed = 1;
nodes = (
"597 18 LINE",
"602 18 LINE SMOOTH",
"672 21 OFFCURVE",
"728 78 OFFCURVE",
"728 149 CURVE",
"728 221 OFFCURVE",
"670 280 OFFCURVE",
"597 280 CURVE SMOOTH",
"525 280 OFFCURVE",
"467 221 OFFCURVE",
"467 149 CURVE SMOOTH",
"467 79 OFFCURVE",
"522 22 OFFCURVE",
"591 19 CURVE SMOOTH"
);
},
{
closed = 1;
nodes = (
"199 470 LINE",
"203 470 LINE SMOOTH",
"273 473 OFFCURVE",
"329 530 OFFCURVE",
"329 601 CURVE",
"329 673 OFFCURVE",
"271 732 OFFCURVE",
"199 732 CURVE SMOOTH",
"126 732 OFFCURVE",
"68 673 OFFCURVE",
"68 601 CURVE SMOOTH",
"68 531 OFFCURVE",
"123 474 OFFCURVE",
"192 470 CURVE SMOOTH"
);
}
);
width = 797;
}
);
unicode = 0025;
},
{
changeCount = 2;
color = 6;
glyphname = perthousand;
layers = (
{
background = {
paths = (
{
closed = 1;
nodes = (
"258 703 OFFCURVE",
"306 658 OFFCURVE",
"306 602 CURVE SMOOTH",
"306 547 OFFCURVE",
"258 502 OFFCURVE",
"202 502 CURVE SMOOTH",
"146 502 OFFCURVE",
"98 547 OFFCURVE",
"98 602 CURVE SMOOTH",
"98 658 OFFCURVE",
"146 703 OFFCURVE",
"202 703 CURVE SMOOTH"
);
},
{
closed = 1;
nodes = (
"599 767 LINE",
"160 13 LINE",
"203 -13 LINE",
"639 743 LINE"
);
},
{
closed = 1;
nodes = (
"656 252 OFFCURVE",
"704 207 OFFCURVE",
"704 151 CURVE SMOOTH",
"704 96 OFFCURVE",
"656 51 OFFCURVE",
"600 51 CURVE SMOOTH",
"544 51 OFFCURVE",
"496 96 OFFCURVE",
"496 151 CURVE SMOOTH",
"496 207 OFFCURVE",
"544 252 OFFCURVE",
"600 252 CURVE SMOOTH"
);
},
{
closed = 1;
nodes = (
"110 767 OFFCURVE",
"34 695 OFFCURVE",
"34 602 CURVE SMOOTH",
"34 509 OFFCURVE",
"111 438 OFFCURVE",
"202 438 CURVE SMOOTH",
"293 438 OFFCURVE",
"370 510 OFFCURVE",
"370 602 CURVE SMOOTH",
"370 695 OFFCURVE",
"294 767 OFFCURVE",
"202 767 CURVE SMOOTH"
);
},
{
closed = 1;
nodes = (
"508 316 OFFCURVE",
"432 244 OFFCURVE",
"432 151 CURVE SMOOTH",
"432 58 OFFCURVE",
"509 -13 OFFCURVE",
"600 -13 CURVE SMOOTH",
"691 -13 OFFCURVE",
"768 59 OFFCURVE",
"768 151 CURVE SMOOTH",
"768 244 OFFCURVE",
"692 316 OFFCURVE",
"600 316 CURVE SMOOTH"
);
},
{
closed = 1;
nodes = (
"918 316 OFFCURVE",
"842 244 OFFCURVE",
"842 151 CURVE SMOOTH",
"842 58 OFFCURVE",
"919 -13 OFFCURVE",
"1010 -13 CURVE SMOOTH",
"1101 -13 OFFCURVE",
"1178 59 OFFCURVE",
"1178 151 CURVE SMOOTH",
"1178 244 OFFCURVE",
"1102 316 OFFCURVE",
"1010 316 CURVE SMOOTH"
);
},
{
closed = 1;
nodes = (
"1066 252 OFFCURVE",
"1114 207 OFFCURVE",
"1114 151 CURVE SMOOTH",
"1114 96 OFFCURVE",
"1066 51 OFFCURVE",
"1010 51 CURVE SMOOTH",
"954 51 OFFCURVE",
"906 96 OFFCURVE",
"906 151 CURVE SMOOTH",
"906 207 OFFCURVE",
"954 252 OFFCURVE",
"1010 252 CURVE SMOOTH"
);
}
);
};
layerId = "A4368790-3638-4B5D-B474-0996C59BD988";
name = Regular;
paths = (
{
closed = 1;
nodes = (
"448 329 LINE",
"604 732 LINE",
"199 25 LINE"
);
},
{
closed = 1;
nodes = (
"597 18 LINE",
"602 18 LINE SMOOTH",
"672 21 OFFCURVE",
"728 78 OFFCURVE",
"728 149 CURVE",
"728 221 OFFCURVE",
"670 280 OFFCURVE",
"597 280 CURVE SMOOTH",
"525 280 OFFCURVE",
"467 221 OFFCURVE",
"467 149 CURVE SMOOTH",
"467 79 OFFCURVE",
"522 22 OFFCURVE",
"591 19 CURVE SMOOTH"
);
},
{
closed = 1;
nodes = (
"199 470 LINE",
"203 470 LINE SMOOTH",
"273 473 OFFCURVE",
"329 530 OFFCURVE",
"329 601 CURVE",
"329 673 OFFCURVE",
"271 732 OFFCURVE",
"199 732 CURVE SMOOTH",
"126 732 OFFCURVE",
"68 673 OFFCURVE",
"68 601 CURVE SMOOTH",
"68 531 OFFCURVE",
"123 474 OFFCURVE",
"192 470 CURVE SMOOTH"
);
},
{
closed = 1;
nodes = (
"1010 18 LINE",
"1015 18 LINE SMOOTH",
"1085 21 OFFCURVE",
"1141 78 OFFCURVE",
"1141 149 CURVE",
"1141 221 OFFCURVE",
"1083 280 OFFCURVE",
"1010 280 CURVE SMOOTH",
"938 280 OFFCURVE",
"880 221 OFFCURVE",
"880 149 CURVE SMOOTH",
"880 79 OFFCURVE",
"935 22 OFFCURVE",
"1004 19 CURVE SMOOTH"
);
}
);
width = 1212;
}
);
unicode = 2030;
},
{
changeCount = 2;
color = 6;
glyphname = plus;
layers = (
{
background = {
paths = (
{
closed = 1;
nodes = (
"269 498 LINE",
"269 295 LINE",
"66 295 LINE",
"66 217 LINE",
"269 217 LINE",
"269 14 LINE",
"347 14 LINE",
"347 217 LINE",
"550 217 LINE",
"550 295 LINE",
"347 295 LINE",
"347 498 LINE"
);
}
);
};
layerId = "A4368790-3638-4B5D-B474-0996C59BD988";
name = Regular;
paths = (
{
closed = 1;
nodes = (
"480 374 LINE",
"85 257 LINE",
"530 257 LINE"
);
},
{
closed = 1;
nodes = (
"401 315 LINE",
"308 479 LINE",
"308 34 LINE"
);
}
);
width = 616;
}
);
unicode = 002B;
},
{
changeCount = 2;
color = 6;
glyphname = plusminus;
layers = (
{
background = {
paths = (
{
closed = 1;
nodes = (
"269 498 LINE",
"269 345 LINE",
"66 345 LINE",
"66 267 LINE",
"269 267 LINE",
"269 114 LINE",
"347 114 LINE",
"347 267 LINE",
"550 267 LINE",
"550 345 LINE",
"347 345 LINE",
"347 498 LINE"
);
},
{
closed = 1;
nodes = (
"66 0 LINE",
"550 0 LINE",
"550 78 LINE",
"66 78 LINE"
);
}
);
};
layerId = "A4368790-3638-4B5D-B474-0996C59BD988";
name = Regular;
paths = (
{
closed = 1;
nodes = (
"285 67 LINE",
"86 39 LINE",
"530 39 LINE"
);
},
{
closed = 1;
nodes = (
"261 280 LINE",
"530 307 LINE",
"87 307 LINE"
);
},
{
closed = 1;
nodes = (
"344 248 LINE",
"308 478 LINE",
"308 133 LINE"
);
}
);
width = 616;
}
);
unicode = 00B1;
},
{
changeCount = 0;
export = 0;
glyphname = product;
layers = (
{
layerId = "A4368790-3638-4B5D-B474-0996C59BD988";
name = Regular;
paths = (
{
closed = 1;
nodes = (
"741 681 LINE",
"741 751 LINE",
"28 751 LINE",
"28 681 LINE",
"151 681 LINE",
"151 -104 LINE",
"227 -104 LINE",
"227 681 LINE",
"543 681 LINE",
"543 -104 LINE",
"619 -104 LINE",
"619 681 LINE"
);
}
);
width = 771;
}
);
unicode = 220F;
},
{
changeCount = 0;
export = 0;
glyphname = radical;
layers = (
{
layerId = "A4368790-3638-4B5D-B474-0996C59BD988";
name = Regular;
paths = (
{
closed = 1;
nodes = (
"628 892 LINE",
"569 892 LINE",
"363 5 LINE SMOOTH",
"357 -21 OFFCURVE",
"351 -51 OFFCURVE",
"348 -71 CURVE",
"347 -71 LINE",
"342 -50 OFFCURVE",
"335 -20 OFFCURVE",
"328 5 CURVE",
"184 413 LINE",
"37 356 LINE",
"54 308 LINE",
"136 339 LINE",
"313 -162 LINE",
"383 -162 LINE"
);
}
);
width = 628;
}
);
unicode = 221A;
},
{
changeCount = 0;
export = 0;
glyphname = summation;
layers = (
{
layerId = "A4368790-3638-4B5D-B474-0996C59BD988";
name = Regular;
paths = (
{
closed = 1;
nodes = (
"586 -104 LINE",
"586 -31 LINE",
"126 -31 LINE",
"126 -27 LINE",
"414 333 LINE",
"147 680 LINE",
"147 684 LINE",
"569 684 LINE",
"569 751 LINE",
"38 751 LINE",
"38 697 LINE",
"324 322 LINE",
"25 -52 LINE",
"25 -104 LINE"
);
}
);
width = 612;
}
);
unicode = 2211;
},
{
changeCount = 2;
color = 6;
glyphname = ampersand;
layers = (
{
background = {
paths = (
{
closed = 1;
nodes = (
"302 492 LINE",
"284 517 LINE SMOOTH",
"263 547 OFFCURVE",
"238 575 OFFCURVE",
"238 613 CURVE SMOOTH",
"238 660 OFFCURVE",
"275 696 OFFCURVE",
"321 696 CURVE SMOOTH",
"365 696 OFFCURVE",
"403 665 OFFCURVE",
"403 619 CURVE SMOOTH",
"403 559 OFFCURVE",
"352 530 OFFCURVE",
"309 497 CURVE SMOOTH"
);
},
{
closed = 1;
nodes = (
"581 0 LINE",
"687 0 LINE",
"559 165 LINE",
"655 277 LINE",
"594 327 LINE",
"509 228 LINE",
"350 431 LINE",
"415 480 OFFCURVE",
"483 529 OFFCURVE",
"483 619 CURVE SMOOTH",
"483 707 OFFCURVE",
"408 767 OFFCURVE",
"323 767 CURVE SMOOTH",
"229 767 OFFCURVE",
"158 702 OFFCURVE",
"158 607 CURVE SMOOTH",
"158 545 OFFCURVE",
"199 494 OFFCURVE",
"233 447 CURVE",
"224 441 LINE SMOOTH",
"130 379 OFFCURVE",
"39 319 OFFCURVE",
"39 193 CURVE SMOOTH",
"39 73 OFFCURVE",
"144 -13 OFFCURVE",
"259 -13 CURVE SMOOTH",
"353 -13 OFFCURVE",
"433 46 OFFCURVE",
"500 106 CURVE"
);
},
{
closed = 1;
nodes = (
"282 385 LINE",
"450 169 LINE",
"396 122 OFFCURVE",
"330 63 OFFCURVE",
"254 63 CURVE SMOOTH",
"183 63 OFFCURVE",
"121 128 OFFCURVE",
"121 199 CURVE SMOOTH",
"121 276 OFFCURVE",
"189 322 OFFCURVE",
"246 361 CURVE SMOOTH"
);
}
);
};
layerId = "A4368790-3638-4B5D-B474-0996C59BD988";
name = Regular;
paths = (
{
closed = 1;
nodes = (
"657 197 LINE",
"623 15 LINE",
"292 444 LINE",
"260 480 OFFCURVE",
"226 514 OFFCURVE",
"210 560 CURVE SMOOTH",
"192 609 OFFCURVE",
"201 669 OFFCURVE",
"240 705 CURVE SMOOTH",
"315 773 OFFCURVE",
"459 705 OFFCURVE",
"438 602 CURVE SMOOTH",
"426 540 OFFCURVE",
"360 501 OFFCURVE",
"312 461 CURVE SMOOTH",
"265 422 OFFCURVE",
"217 382 OFFCURVE",
"170 343 CURVE SMOOTH",
"146 323 OFFCURVE",
"115 294 OFFCURVE",
"100 262 CURVE SMOOTH",
"75 213 OFFCURVE",
"78 153 OFFCURVE",
"107 106 CURVE SMOOTH",
"159 23 OFFCURVE",
"288 23 OFFCURVE",
"370 58 CURVE SMOOTH",
"413 76 OFFCURVE",
"449 111 OFFCURVE",
"482 142 CURVE SMOOTH",
"529 186 OFFCURVE",
"573 234 OFFCURVE",
"616 282 CURVE"
);
},
{
closed = 0;
nodes = (
"634 0 LINE"
);
}
);
width = 695;
}
);
unicode = 0026;
},
{
changeCount = 0;
export = 0;
glyphname = at;
layers = (
{
layerId = "A4368790-3638-4B5D-B474-0996C59BD988";
name = Regular;
paths = (
{
closed = 1;
nodes = (
"261 423 OFFCURVE",
"320 507 OFFCURVE",
"401 507 CURVE SMOOTH",
"470 507 OFFCURVE",
"513 452 OFFCURVE",
"503 372 CURVE SMOOTH",
"494 301 OFFCURVE",
"458 226 OFFCURVE",
"369 226 CURVE SMOOTH",
"299 226 OFFCURVE",
"261 278 OFFCURVE",
"261 346 CURVE SMOOTH"
);
},
{
closed = 1;
nodes = (
"528 505 LINE",
"488 557 OFFCURVE",
"446 575 OFFCURVE",
"395 575 CURVE SMOOTH",
"271 575 OFFCURVE",
"191 459 OFFCURVE",
"191 339 CURVE SMOOTH",
"191 237 OFFCURVE",
"271 156 OFFCURVE",
"359 156 CURVE SMOOTH",
"419 156 OFFCURVE",
"461 183 OFFCURVE",
"495 217 CURVE",
"501 179 OFFCURVE",
"521 157 OFFCURVE",
"549 156 CURVE SMOOTH",
"597 154 OFFCURVE",
"655 179 OFFCURVE",
"703 242 CURVE SMOOTH",
"743 294 OFFCURVE",
"765 370 OFFCURVE",
"765 452 CURVE SMOOTH",
"765 545 OFFCURVE",
"721 622 OFFCURVE",
"653 681 CURVE SMOOTH",
"587 740 OFFCURVE",
"506 767 OFFCURVE",
"418 767 CURVE SMOOTH",
"205 767 OFFCURVE",
"36 599 OFFCURVE",
"36 377 CURVE SMOOTH",
"36 152 OFFCURVE",
"209 -13 OFFCURVE",
"424 -13 CURVE SMOOTH",
"545 -13 OFFCURVE",
"623 18 OFFCURVE",
"693 54 CURVE",
"623 105 LINE",
"581 75 OFFCURVE",
"515 59 OFFCURVE",
"432 59 CURVE SMOOTH",
"251 59 OFFCURVE",
"108 185 OFFCURVE",
"108 377 CURVE SMOOTH",
"108 559 OFFCURVE",
"237 695 OFFCURVE",
"415 695 CURVE SMOOTH",
"578 695 OFFCURVE",
"703 593 OFFCURVE",
"693 417 CURVE SMOOTH",
"688 322 OFFCURVE",
"623 226 OFFCURVE",
"577 226 CURVE SMOOTH",
"543 226 OFFCURVE",
"556 278 OFFCURVE",
"563 311 CURVE SMOOTH",
"613 566 LINE",
"542 566 LINE"
);
}
);
width = 800;
}
);
unicode = 0040;
},
{
changeCount = 0;
export = 0;
glyphname = bar;
layers = (
{
layerId = "A4368790-3638-4B5D-B474-0996C59BD988";
name = Regular;
paths = (
{
closed = 1;
nodes = (
"324 786 LINE",
"246 786 LINE",
"246 -214 LINE",
"324 -214 LINE"
);
}
);
width = 570;
}
);
unicode = 007C;
},
{
changeCount = 0;
export = 0;
glyphname = brokenbar;
layers = (
{
layerId = "A4368790-3638-4B5D-B474-0996C59BD988";
name = Regular;
paths = (
{
closed = 1;
nodes = (
"324 161 LINE",
"246 161 LINE",
"246 -89 LINE",
"324 -89 LINE"
);
},
{
closed = 1;
nodes = (
"324 661 LINE",
"246 661 LINE",
"246 411 LINE",
"324 411 LINE"
);
}
);
width = 570;
}
);
unicode = 00A6;
},
{
changeCount = 0;
export = 0;
glyphname = copyright;
layers = (
{
layerId = "A4368790-3638-4B5D-B474-0996C59BD988";
name = Regular;
paths = (
{
closed = 1;
nodes = (
"619 -13 OFFCURVE",
"792 160 OFFCURVE",
"792 377 CURVE SMOOTH",
"792 594 OFFCURVE",
"619 767 OFFCURVE",
"400 767 CURVE SMOOTH",
"181 767 OFFCURVE",
"8 594 OFFCURVE",
"8 377 CURVE SMOOTH",
"8 160 OFFCURVE",
"181 -13 OFFCURVE",
"400 -13 CURVE SMOOTH"
);
},
{
closed = 1;
nodes = (
"221 47 OFFCURVE",
"68 193 OFFCURVE",
"68 377 CURVE SMOOTH",
"68 561 OFFCURVE",
"221 707 OFFCURVE",
"400 707 CURVE SMOOTH",
"579 707 OFFCURVE",
"732 561 OFFCURVE",
"732 377 CURVE SMOOTH",
"732 193 OFFCURVE",
"579 47 OFFCURVE",
"400 47 CURVE SMOOTH"
);
},
{
closed = 1;
nodes = (
"599 457 LINE",
"581 550 OFFCURVE",
"507 605 OFFCURVE",
"415 605 CURVE SMOOTH",
"280 605 OFFCURVE",
"198 509 OFFCURVE",
"198 380 CURVE SMOOTH",
"198 256 OFFCURVE",
"284 156 OFFCURVE",
"416 156 CURVE SMOOTH",
"506 156 OFFCURVE",
"587 213 OFFCURVE",
"599 307 CURVE",
"538 307 LINE",
"524 250 OFFCURVE",
"482 216 OFFCURVE",
"416 216 CURVE SMOOTH",
"316 216 OFFCURVE",
"258 290 OFFCURVE",
"258 382 CURVE SMOOTH",
"258 460 OFFCURVE",
"306 545 OFFCURVE",
"414 545 CURVE SMOOTH",
"480 545 OFFCURVE",
"526 512 OFFCURVE",
"538 457 CURVE"
);
}
);
width = 800;
}
);
unicode = 00A9;
},
{
changeCount = 0;
export = 0;
glyphname = dagger;
layers = (
{
layerId = "A4368790-3638-4B5D-B474-0996C59BD988";
name = Regular;
paths = (
{
closed = 1;
nodes = (
"255 754 LINE",
"255 569 LINE",
"88 569 LINE",
"88 491 LINE",
"255 491 LINE",
"255 -163 LINE",
"337 -163 LINE",
"337 491 LINE",
"504 491 LINE",
"504 569 LINE",
"337 569 LINE",
"337 754 LINE"
);
}
);
width = 592;
}
);
unicode = 2020;
},
